<?xml version="1.0" encoding="UTF-8" standalone="no"?>
<svg
   height="50"
   width="120"
   viewBox="-43.6242 -135.2265 37.80764 50.709938"
   version="1.1"
   id="svg5"
   sodipodi:docname="Java.svg"
   inkscape:version="1.3.2 (091e20ef0f, 2023-11-25)"
   xmlns:inkscape="http://www.inkscape.org/namespaces/inkscape"
   xmlns:sodipodi="http://sodipodi.sourceforge.net/DTD/sodipodi-0.dtd"
   xmlns="http://www.w3.org/2000/svg"
   xmlns:svg="http://www.w3.org/2000/svg">
  <defs
     id="defs5" />
  <sodipodi:namedview
     id="namedview5"
     pagecolor="#ffffff"
     bordercolor="#000000"
     borderopacity="0.25"
     inkscape:showpageshadow="2"
     inkscape:pageopacity="0.0"
     inkscape:pagecheckerboard="0"
     inkscape:deskcolor="#d1d1d1"
     inkscape:zoom="2.4795878"
     inkscape:cx="-28.230499"
     inkscape:cy="-41.337516"
     inkscape:window-width="1920"
     inkscape:window-height="1011"
     inkscape:window-x="0"
     inkscape:window-y="32"
     inkscape:window-maximized="1"
     inkscape:current-layer="svg5" />
  <path
     d="m -65.812616,-98.322445 c 0,0 -1.67339,0.97313 1.19089,1.30242 3.46998,0.39586 5.24345,0.3391 9.06739,-0.38465 0,0 1.00536,0.63039 2.4094,1.17637 -8.57227,3.67394 -19.40075,-0.21279 -12.66768,-2.09414 m -1.04749,-4.794245 c 0,0 -1.87686,1.3893 0.98954,1.68578 3.70674,0.3824 6.63404,0.41368 11.69939,-0.56169 0,0 0.70061,0.71028 1.80227,1.09871 -10.3644,3.030685 -21.90846,0.239 -14.4912,-2.2228"
     fill="#5382a1"
     id="path1"
     style="stroke-width:0.999996"
     sodipodi:nodetypes="cccccccccc" />
  <path
     d="m -58.029466,-111.24932 c 2.1122,2.43182 -0.55496,4.62015 -0.55496,4.62015 0,0 5.36325,-2.76867 2.90015,-6.2357 -2.30046,-3.23323 -4.0646,-4.83969 5.48576,-10.37856 0,0 -14.99092,3.74404 -7.83095,11.99411"
     fill="#f8981d"
     id="path2"
     style="stroke-width:0.999996" />
  <path
     d="m -46.691946,-94.776345 c 0,0 1.23834,1.02033 -1.3638,1.8097 -4.94803,1.49894 -20.59423,1.95157 -24.94068,0.0597 -1.56244,-0.67972 1.36757,-1.62299 2.28924,-1.82091 0.96121,-0.20844 1.51051,-0.16961 1.51051,-0.16961 -1.73759,-1.22406 -11.23107,2.40349 -4.82222,3.44237 17.47786,2.83441 31.86047,-1.27634 27.32695,-3.32127 m -18.31596,-13.307725 c 0,0 -7.95866,1.89032 -2.81837,2.57676 2.1704,0.29058 6.49702,0.22485 10.52716,-0.11283 3.29365,-0.27784 6.60087,-0.86856 6.60087,-0.86856 0,0 -1.16138,0.49737 -2.00161,1.07109 -8.08188,2.12555 -23.69456,1.13671 -19.19987,-1.03746 3.80117,-1.83744 6.89182,-1.629 6.89182,-1.629 m 14.27685,7.98026 c 8.21561,-4.26915 4.41703,-8.37175 1.76568,-7.81903 -0.64985,0.13526 -0.93961,0.25246 -0.93961,0.25246 0,0 0.24125,-0.37792 0.70202,-0.54151 5.24523,-1.84405 9.27914,5.43879 -1.69321,8.323236 0,1.2e-4 0.12712,-0.113536 0.16512,-0.215156"
     fill="#5382a1"
     id="path3"
     style="stroke-width:0.999996" />
  <path
     d="m -55.684276,-132.18726 c 0,0 4.54992,4.55147 -4.31541,11.55033 -7.1091,5.61429 -1.6211,8.81541 -0.003,12.47282 -4.14985,-3.74404 -7.19517,-7.03994 -5.15213,-10.10745 2.99871,-4.50284 11.30613,-6.68597 9.47034,-13.9157"
     fill="#f8981d"
     id="path4"
     style="stroke-width:0.999996" />
  <path
     d="m -64.200606,-88.535455 c 7.88595,0.5048 19.99572,-0.28008 20.28252,-4.01148 0,0 -0.5513,1.41454 -6.51731,2.53792 -6.73083,1.26666 -15.03235,1.11877 -19.95607,0.30698 1.2e-4,-1.1e-4 1.00795,0.83422 6.19086,1.16658"
     fill="#5382a1"
     id="path5"
     style="stroke-width:0.999996"
     sodipodi:nodetypes="ccccc" />
  <path
     d="m -17.346448,-104.84967 c -1.22992,1.0826 -2.52893,1.69032 -3.69468,1.69032 -1.66389,0 -2.56289,-1.01249 -2.56289,-2.63647 0,-1.75665 0.9632,-3.04101 4.82743,-3.04101 h 1.42995 v 3.98716 m 3.39397,3.88579 v -12.02824 c 0,-3.07271 -1.72695,-5.10027 -5.8907,-5.10027 -2.43081,0 -4.5601,0.60914 -6.29075,1.38596 l 0.49954,2.12915 c 1.36262,-0.50755 3.12645,-0.98003 4.85766,-0.98003 2.3986,0 3.43047,0.98003 3.43047,3.00617 v 1.52023 h -1.19714 c -5.8277,0 -8.45655,2.29565 -8.45655,5.74144 0,2.97369 1.7324,4.66401 4.99427,4.66401 2.09672,0 3.6619,-0.87842 5.12502,-2.16399 l 0.26558,1.82577 h 2.6626 z m 11.3263845,0 h -4.23285 l -5.0941945,-16.82394 h 3.6964445 l 3.16098,10.33674 0.70268,3.10875 c 1.59912,-4.49471 2.73012,-9.05474 3.29582,-13.44549 h 3.59574 c -0.96337,5.54006 -2.69694997,11.62093 -5.12462,16.82394 m 16.2377205,-3.88579 c -1.23227,1.0826 -2.53362,1.69032 -3.6993605,1.69032 -1.66097,0 -2.56232,-1.01249 -2.56232,-2.63647 0,-1.75665 0.96554,-3.04101 4.8293905,-3.04101 h 1.43229 v 3.98716 m 3.39338,3.88579 v -12.02824 c 0,-3.07271 -1.73123,-5.10027 -5.89013,-5.10027 -2.4325405,0 -4.5626405,0.60914 -6.2925005,1.38596 l 0.49876,2.12915 c 1.36322,-0.50755 3.13036,-0.98003 4.8602205,-0.98003 2.39683,0 3.43027,0.98003 3.43027,3.00617 v 1.52023 h -1.1991 c -5.8294405,0 -8.4571205,2.29565 -8.4571205,5.74144 0,2.97369 1.73103,4.66401 4.99231,4.66401 2.0978905,0 3.6624905,-0.87842 5.1281405,-2.16399 l 0.26656,1.82577 h 2.66259 z m -47.726165,2.857058 c -0.96747,1.433491 -2.5301,2.567561 -4.24085,3.209141 l -1.67561,-2.00099 c 1.30214,-0.67804 2.41888,-1.773111 2.93775,-2.793111 0.4488,-0.907148 0.63457,-2.076258 0.63457,-4.872148 v -19.20713 h 3.60569 v 18.94397 c -2e-4,3.73788 -0.29464,5.247788 -1.26155,6.720268"
     style="fill:#5382a1;stroke-width:0.999996"
     id="path1-6" />
  <path
     d="m 18.486017,-117.64744 h -0.31442 v -0.22573 h 0.84641 v 0.22573 h -0.31227 v 1.12635 h -0.21972 z m 1.68821,0.0589 h -0.005 l -0.31151,1.06772 h -0.14251 l -0.30949,-1.06772 h -0.003 v 1.06772 h -0.20706 v -1.35209 h 0.30472 l 0.28699,0.95744 0.28602,-0.95744 h 0.30365 v 1.35209 h -0.20281 z"
     style="fill:#5382a1;stroke-width:0.999996"
     id="path1-8" />
</svg>
