<?xml version="1.0" encoding="UTF-8" standalone="no"?>
<!-- Created with Inkscape (http://www.inkscape.org/) -->

<svg
   width="44.137001mm"
   height="13.229mm"
   viewBox="0 0 44.137001 13.229"
   version="1.1"
   id="svg1"
   xml:space="preserve"
   inkscape:version="1.3.2 (091e20ef0f, 2023-11-25)"
   sodipodi:docname="linux.svg"
   xmlns:inkscape="http://www.inkscape.org/namespaces/inkscape"
   xmlns:sodipodi="http://sodipodi.sourceforge.net/DTD/sodipodi-0.dtd"
   xmlns="http://www.w3.org/2000/svg"
   xmlns:svg="http://www.w3.org/2000/svg"><sodipodi:namedview
     id="namedview1"
     pagecolor="#ffffff"
     bordercolor="#000000"
     borderopacity="0.25"
     inkscape:showpageshadow="2"
     inkscape:pageopacity="0.0"
     inkscape:pagecheckerboard="0"
     inkscape:deskcolor="#d1d1d1"
     inkscape:document-units="mm"
     inkscape:zoom="2.8970539"
     inkscape:cx="82.497603"
     inkscape:cy="55.40111"
     inkscape:window-width="1920"
     inkscape:window-height="1011"
     inkscape:window-x="0"
     inkscape:window-y="32"
     inkscape:window-maximized="1"
     inkscape:current-layer="layer1" /><defs
     id="defs1" /><g
     inkscape:label="Camada 1"
     inkscape:groupmode="layer"
     id="layer1"
     transform="translate(-40.119774,-144.71497)"><rect
       style="opacity:0.99;fill:none;fill-opacity:1;stroke:none;stroke-width:0.4"
       id="rect4"
       width="44.137001"
       height="13.229"
       x="40.119774"
       y="144.71497" /><path
       style="opacity:0.99;fill:#f3993d;fill-opacity:1;stroke:none;stroke-width:0.4"
       d="m 50.675209,146.62038 c -2.139159,0.0979 -1.810453,1.54802 -1.280663,2.77208 l -1.279464,-1.50689 -0.02413,-1.59182 z"
       id="path3"
       sodipodi:nodetypes="ccccc" /><path
       style="fill:#0d0c0c;stroke:none;stroke-width:0.999997"
       d="m 46.461078,148.38366 c 0.01528,-0.69798 0.44932,-1.28024 1.192821,-1.35435 1.63e-4,1.44047 0.7304,2.65402 1.316153,3.93407 0.260047,0.56829 0.595887,1.16886 0.604388,1.80581 0.02306,1.72803 -1.310658,2.7918 -2.053076,4.19205 2.749287,-1.33281 3.283715,-4.4131 2.248556,-6.96525 -0.344192,-0.8486 -1.43135,-1.70478 -1.29207,-2.70871 0.146357,-1.05495 1.669659,-0.71015 2.356906,-0.58043 -0.216089,-0.73163 -1.131141,-0.56227 -1.722964,-0.65942 -0.908347,-0.1491 -1.51551,-0.82409 -2.518178,-0.45543 -1.114926,0.40993 -1.160915,2.24406 -0.132536,2.79166 m -1.060286,0.32246 c -0.818042,2.33809 -1.603231,4.76743 0.119547,6.96526 0.336284,0.42901 0.687831,0.8717 1.20581,1.09639 -1.071996,-1.98284 -1.593202,-3.78782 -1.259089,-5.99786 1.060239,0.48118 1.559021,1.82091 1.8555,2.83769 0.896382,-1.62888 0.142234,-4.54341 -1.921768,-4.90148"
       id="path1"
       sodipodi:nodetypes="ccsscsscssccscccc" /><text
       xml:space="preserve"
       style="font-style:normal;font-variant:normal;font-weight:normal;font-stretch:normal;font-size:11.8257px;font-family:Cantarell;-inkscape-font-specification:'Cantarell, Normal';font-variant-ligatures:normal;font-variant-caps:normal;font-variant-numeric:normal;font-variant-east-asian:normal;text-align:center;text-anchor:middle;opacity:0.99;fill:#000000;stroke:#000000;stroke-width:0.4"
       x="59.998608"
       y="169.25037"
       id="text1"
       transform="scale(1.0878443,0.9192492)"><tspan
         sodipodi:role="line"
         id="tspan1"
         x="59.998608"
         y="169.25037"
         style="font-style:normal;font-variant:normal;font-weight:normal;font-stretch:normal;font-size:11.8257px;font-family:Cantarell;-inkscape-font-specification:'Cantarell, Normal';font-variant-ligatures:normal;font-variant-caps:normal;font-variant-numeric:normal;font-variant-east-asian:normal;fill:#000000;stroke-width:0.4">linux</tspan></text><ellipse
       style="opacity:0.99;fill:#f3993d;fill-opacity:1;stroke:none;stroke-width:0.4"
       id="path2"
       cx="56.864296"
       cy="148.55586"
       rx="1.0719306"
       ry="0.90966266" /></g></svg>
