<?xml version="1.0" encoding="UTF-8" standalone="no"?>
<svg
   width="125.11276pt"
   height="37.499527pt"
   version="1.1"
   id="svg15"
   sodipodi:docname="Python.svg"
   inkscape:version="1.3.2 (091e20ef0f, 2023-11-25)"
   xmlns:inkscape="http://www.inkscape.org/namespaces/inkscape"
   xmlns:sodipodi="http://sodipodi.sourceforge.net/DTD/sodipodi-0.dtd"
   xmlns="http://www.w3.org/2000/svg"
   xmlns:svg="http://www.w3.org/2000/svg"
   xmlns:rdf="http://www.w3.org/1999/02/22-rdf-syntax-ns#"
   xmlns:cc="http://creativecommons.org/ns#"
   xmlns:dc="http://purl.org/dc/elements/1.1/">
  <sodipodi:namedview
     id="namedview15"
     pagecolor="#ffffff"
     bordercolor="#000000"
     borderopacity="0.25"
     inkscape:showpageshadow="2"
     inkscape:pageopacity="0.0"
     inkscape:pagecheckerboard="0"
     inkscape:deskcolor="#d1d1d1"
     inkscape:document-units="pt"
     inkscape:zoom="4.0586421"
     inkscape:cx="93.380986"
     inkscape:cy="37.327756"
     inkscape:window-width="1920"
     inkscape:window-height="1011"
     inkscape:window-x="0"
     inkscape:window-y="32"
     inkscape:window-maximized="1"
     inkscape:current-layer="svg15" />
  <title
     id="title1">Python programming language logo</title>
  <metadata
     id="metadata1">
    <rdf:RDF>
      <dc:format>image/svg+xml</dc:format>
      <dc:type
         rdf:resource="http://purl.org/dc/dcmitype/StillImage" />
      <dc:title />
      <cc:Work
         rdf:about="">
        <dc:title>Python programming language logo</dc:title>
      </cc:Work>
    </rdf:RDF>
  </metadata>
  <defs
     id="defs6">
    <linearGradient
       id="vlpc"
       x1="151"
       x2="112"
       y1="192.39999"
       y2="137.3"
       gradientTransform="matrix(0.17923632,0,0,0.18098885,3.4641653,2.4809929)"
       gradientUnits="userSpaceOnUse">
      <stop
         style="stop-color:#ffd43b"
         offset="0"
         id="stop1" />
      <stop
         style="stop-color:#ffe873"
         offset="1"
         id="stop2" />
    </linearGradient>
    <linearGradient
       id="vlpb"
       x1="26.65"
       x2="135.7"
       y1="20.6"
       y2="114.4"
       gradientTransform="matrix(0.17923632,0,0,0.18098885,3.4641653,2.4809929)"
       gradientUnits="userSpaceOnUse">
      <stop
         style="stop-color:#5a9fd4"
         offset="0"
         id="stop3" />
      <stop
         style="stop-color:#306998"
         offset="1"
         id="stop4" />
    </linearGradient>
    <radialGradient
       id="vlpa"
       cx="61.52"
       cy="132.3"
       r="29.040001"
       gradientTransform="matrix(0,-0.07645371,0.33613636,1.2081956e-7,-21.069757,49.647875)"
       gradientUnits="userSpaceOnUse">
      <stop
         style="stop-color:#b8b8b8;stop-opacity:.498"
         offset="0"
         id="stop5" />
      <stop
         style="stop-color:#7f7f7f;stop-opacity:0"
         offset="1"
         id="stop6" />
    </radialGradient>
  </defs>
  <rect
     style="opacity:0.99;fill:none;fill-opacity:1;stroke:none;stroke-width:1.51181"
     id="rect4"
     width="166.81702"
     height="49.999371"
     x="0"
     y="0" />
  <path
     d="m 65.280782,23.904912 c 0,-4.639433 -1.323003,-7.022878 -3.970284,-7.153521 -1.052794,-0.04971 -2.081053,0.118025 -3.080953,0.506323 -0.798199,0.285726 -1.33543,0.568458 -1.618066,0.853961 v 11.076008 c 1.692629,1.062354 3.195983,1.555931 4.505603,1.478501 2.773463,-0.183252 4.161469,-2.435065 4.161469,-6.761591 z m 3.262897,0.192555 c 0,2.357316 -0.552844,4.314418 -1.664587,5.869392 -1.2392,1.761137 -2.956683,2.667993 -5.152447,2.717701 -1.655347,0.0528 -3.361677,-0.465855 -5.11421,-1.553063 V 41.197409 L 53.773651,40.184764 V 17.841562 c 0.465855,-0.571326 1.065221,-1.062354 1.792044,-1.478501 1.689442,-0.984604 3.744048,-1.490927 6.159357,-1.515781 l 0.04037,0.04037 c 2.208191,-0.02796 3.909741,0.878815 5.10465,2.7177 1.11493,1.686574 1.674147,3.8492 1.674147,6.490745 z"
     style="fill:#646464;stroke-width:0.999998"
     id="path6" />
  <path
     d="m 85.896942,30.704739 c 0,3.161888 -0.316794,5.350005 -0.95051,6.570406 -0.636648,1.217532 -1.848126,2.18971 -3.635709,2.913347 -1.45046,0.571325 -3.018818,0.882002 -4.703162,0.934896 L 76.13852,39.33453 c 1.711428,-0.232927 2.916533,-0.465855 3.616591,-0.698783 1.375897,-0.465855 2.320035,-1.180251 2.838784,-2.136815 0.416147,-0.779718 0.621034,-2.26714 0.621034,-4.470552 v -0.739251 c -1.941169,0.882002 -3.976656,1.320136 -6.102001,1.320136 -1.397565,0 -2.630711,-0.437815 -3.693065,-1.320136 -1.192678,-0.95975 -1.788858,-2.177283 -1.788858,-3.651641 V 15.82223 l 2.838785,-0.972178 v 11.891732 c 0,1.270428 0.410093,2.24866 1.229959,2.935015 0.819867,0.686356 1.882221,1.015513 3.183556,0.990659 1.301335,-0.02795 2.695714,-0.531177 4.177401,-1.515781 V 15.277989 h 2.838785 v 15.425476 z"
     style="fill:#646464;stroke-width:0.999998"
     id="path7" />
  <path
     d="m 96.985696,32.53056 c -0.338399,0.02795 -0.649075,0.04037 -0.934897,0.04037 -1.605639,0 -2.857266,-0.382052 -3.75042,-1.149024 -0.891243,-0.767291 -1.338617,-1.82614 -1.338617,-3.177183 V 17.063565 h -1.944356 v -1.785991 h 1.944356 V 10.536176 L 93.79736,9.5267169 v 5.7514951 h 3.18961 v 1.78599 h -3.18961 v 11.104686 c 0,1.065221 0.285727,1.820085 0.857148,2.261086 0.490709,0.363252 1.270427,0.571326 2.332462,0.62422 v 1.478501 z"
     style="fill:#646464;stroke-width:0.999998"
     id="path8" />
  <path
     d="m 114.16051,32.297951 h -2.83878 v -10.95811 c 0,-1.11493 -0.26091,-2.074681 -0.77972,-2.876066 -0.59937,-0.906856 -1.43166,-1.360284 -2.50007,-1.360284 -1.30133,0 -2.92896,0.686355 -4.88159,2.059067 v 13.134437 h -2.83879 V 6.1045936 l 2.83879,-0.894429 V 17.140135 c 1.8137,-1.320136 3.79502,-1.981637 5.94904,-1.981637 1.50336,0 2.72057,0.506322 3.65164,1.515781 0.9349,1.009459 1.40076,2.267141 1.40076,3.769539 v 11.850309 z"
     style="fill:#646464;stroke-width:0.999998"
     id="path9" />
  <path
     d="m 129.26416,23.458812 c 0,-1.782804 -0.3384,-3.253338 -1.01265,-4.419569 -0.80138,-1.419233 -2.04664,-2.167724 -3.7313,-2.245473 -3.11218,0.180129 -4.66492,2.410211 -4.66492,6.685117 0,1.95965 0.3231,3.597472 0.97536,4.910278 0.8323,1.674147 2.08105,2.500068 3.74724,2.472346 3.1246,-0.02485 4.68722,-2.490827 4.68722,-7.402061 z m 3.10899,0.01863 c 0,2.537349 -0.64907,4.648991 -1.94435,6.334609 -1.42561,1.888275 -3.39354,2.835599 -5.90763,2.835599 -2.49083,0 -4.43232,-0.947324 -5.83434,-2.835599 -1.27043,-1.686573 -1.90389,-3.798216 -1.90389,-6.334609 0,-2.385357 0.68635,-4.390892 2.05906,-6.025527 1.45046,-1.733096 3.3585,-2.602671 5.71326,-2.602671 2.35732,0 4.27618,0.869575 5.75468,2.602671 1.37271,1.633679 2.05907,3.638895 2.05907,6.025527 z"
     style="fill:#646464;stroke-width:0.999998"
     id="path10" />
  <path
     d="m 148.63761,32.297951 h -2.83878 V 20.718488 c 0,-1.270427 -0.38205,-2.261086 -1.14616,-2.975482 -0.7641,-0.71121 -1.7828,-1.055981 -3.05291,-1.02794 -1.34786,0.02485 -2.63071,0.465855 -3.8492,1.320135 v 14.262431 h -2.83878 V 17.684694 c 1.63368,-1.189492 3.13703,-1.966023 4.50878,-2.329275 1.29529,-0.338398 2.43794,-0.506323 3.42222,-0.506323 0.67393,0 1.30771,0.06523 1.90389,0.195678 1.11493,0.257782 2.02179,0.736064 2.72057,1.438033 0.77972,0.776532 1.16782,1.708242 1.16782,2.798317 v 13.01654 z"
     style="fill:#646464;stroke-width:0.999998"
     id="path11" />
  <path
     d="m 25.740453,6.2100643 c -1.460657,0.00679 -2.855354,0.1313443 -4.081809,0.3485947 -3.616591,0.6388779 -4.272994,1.9755826 -4.272994,4.441874 v 3.256526 h 8.542802 v 1.085295 H 17.38565 14.180108 c -2.482862,0 -4.6585516,1.492521 -5.3372598,4.33035 -0.7844975,3.253338 -0.8192295,5.286277 0,8.683004 0.6073323,2.529383 2.0577918,4.33035 4.5406538,4.33035 h 2.937564 v -3.903369 c 0,-2.819985 2.439845,-5.308582 5.337259,-5.308582 h 8.533243 c 2.375478,0 4.272993,-1.955827 4.272993,-4.339909 v -8.134939 c 0,-2.3152555 -1.953277,-4.0531309 -4.272993,-4.4418746 C 28.723901,6.3130813 27.201109,6.2020982 25.740134,6.2087897 Z m -4.620314,2.6189214 c 0.882639,0 1.603089,0.7325588 1.603089,1.6330423 0,0.897297 -0.720769,1.623164 -1.603089,1.623164 -0.885508,0 -1.60309,-0.725549 -1.60309,-1.623164 0,-0.9004835 0.717582,-1.6330423 1.60309,-1.6330423 z"
     style="fill:url(#vlpb);stroke-width:0.999998"
     id="path12" />
  <path
     d="m 35.529146,15.339805 v 3.795031 c 0,2.941387 -2.493695,5.41692 -5.33726,5.41692 h -8.533242 c -2.33756,0 -4.272994,2.000436 -4.272994,4.339908 v 8.13494 c 0,2.315255 2.013501,3.677132 4.272994,4.339908 2.704318,0.795332 5.299022,0.939039 8.533242,0 2.150836,-0.622627 4.272994,-1.876166 4.272994,-4.339908 v -3.256525 h -8.533242 v -1.085296 h 8.533242 4.272994 c 2.482861,0 3.409473,-1.731821 4.272994,-4.33035 0.89188,-2.676277 0.853961,-5.251226 0,-8.683004 C 42.397163,17.199721 41.225196,15.34108 38.737874,15.34108 H 35.532332 Z M 30.730392,35.94322 c 0.885507,1e-6 1.603089,0.725548 1.603089,1.623164 0,0.900483 -0.717582,1.633042 -1.603089,1.633042 -0.88264,0 -1.60309,-0.732559 -1.60309,-1.633042 1e-6,-0.897297 0.720769,-1.623164 1.60309,-1.623164 z"
     style="fill:url(#vlpc);stroke-width:0.999998"
     id="path13" />
  <path
     d="m 154.18199,12.746057 h 0.49772 V 9.6246357 h 1.17898 V 9.2524614 h -2.85568 v 0.3721743 h 1.17898 v 3.1214213 m 2.11802,0 h 0.42507 V 9.895163 l 0.92278,2.850575 h 0.47351 l 0.96166,-2.8410157 v 2.8413347 h 0.46394 V 9.253736 h -0.6137 l -1.05089,2.993008 -0.89634,-2.993008 h -0.68603 v 3.492321"
     style="fill:#646464;stroke-width:0.999998"
     id="path14" />
</svg>
