<?xml version="1.0" encoding="UTF-8" standalone="no"?>
<!-- Created with Inkscape (http://www.inkscape.org/) -->

<svg
   version="1.1"
   id="svg1"
   width="1000"
   height="666.66669"
   viewBox="0 0 1000 666.66669"
   sodipodi:docname="grupo.svg"
   inkscape:version="1.3.2 (091e20ef0f, 2023-11-25)"
   xmlns:inkscape="http://www.inkscape.org/namespaces/inkscape"
   xmlns:sodipodi="http://sodipodi.sourceforge.net/DTD/sodipodi-0.dtd"
   xmlns="http://www.w3.org/2000/svg"
   xmlns:svg="http://www.w3.org/2000/svg">
  <defs
     id="defs1">
    <clipPath
       clipPathUnits="userSpaceOnUse"
       id="clipPath59">
      <path
         d="m 3183.03,3455.45 c 50.88,-34.48 118.07,-45.49 178.43,-42.45 13.3,0.67 26.89,2.21 40.41,4.66 -31.75,30.4 -42.23,54.03 -36.44,99.78 2.99,23.62 10.79,46.32 19.95,68.18 3.3,7.86 32.31,56.34 29.15,61.71 -0.9,1.52 -2,2.94 -3.39,4.23 -7.23,6.7 -18.27,6.35 -28.13,6.31 -36.89,-0.15 -71.59,10.94 -101.89,31.84 -14.41,9.95 -27.44,21.73 -39.89,34.02 -7.12,7.04 -20.37,31.73 -31.09,32.44 -1.01,0.07 -1.78,-0.47 -2.62,-0.85 -11.79,-50.64 -12.09,-97.82 -41.77,-143.48 -11.23,-17.28 -24.58,-32.69 -40.53,-44.11 -8.15,-8.05 -18.15,-14.01 -31.79,-16.72 22.23,-38.02 52.81,-70.64 89.6,-95.56 z"
         transform="translate(0,2.5e-5)"
         id="path59" />
    </clipPath>
    <clipPath
       clipPathUnits="userSpaceOnUse"
       id="clipPath73">
      <path
         d="m 1258.48,2081.96 c 127.42,100.62 247.19,112.11 400.93,59.94 113.93,-38.66 236.64,-147.72 318.32,-236.05 227.93,-246.51 477.43,-472.83 681.49,-739.44 13.64,-17.82 52.22,-69.95 33.19,-58.05 -178.24,111.4 -50.37,-60.9 -90.84,-107.51 -40.61,-46.78 -164.81,-22.901 -210.62,-17.858 -71.69,7.906 -79.27,-28.594 -137.51,13.098 -91.53,65.5 -161.78,155.66 -235.28,240.89 -73.51,85.22 -154.38,168.74 -257.46,213.93 -7.29,3.19 -15.75,6.18 -22.94,2.79 -9.04,-4.26 -27.33,-24.33 -28.27,-34.27 -12.33,-129.77 61.93,-231.71 49.6,-361.46 l -414.42,14.53 c -45.32,166.68 -180.72,485.13 -214.59,654.52 -46.5,232.47 32.19,278.97 128.4,354.94 z"
         transform="translate(0,2.5e-5)"
         id="path73" />
    </clipPath>
    <clipPath
       clipPathUnits="userSpaceOnUse"
       id="clipPath94">
      <path
         d="m 2515.48,2688.36 c -13.53,20.85 -29.23,40.13 -49.14,54.78 -56.94,41.89 -121.57,-4.18 -179.49,-42.02 -63.71,-41.63 -99.9,-75.3 -83.83,-145.82 13.62,-59.75 42.13,-116.05 82.25,-162.36 8.22,-9.5 17.17,-18.77 28.45,-24.28 17.64,-8.61 38.92,-6.83 57.21,0.32 18.28,7.14 34.19,19.14 49.84,30.99 4.72,3.58 56.74,-106.86 60.62,-116.97 12.56,-32.75 32.62,-62.92 -3.27,-91.26 88.74,21.44 174.37,55.69 253.43,101.35 -27.25,6.96 -43.98,33.72 -56.87,58.72 -51.64,100.15 -87.06,208.21 -141.56,306.83 -5.55,10.04 -11.36,20.05 -17.64,29.72 z"
         transform="translate(0,2.5e-5)"
         id="path94" />
    </clipPath>
    <clipPath
       clipPathUnits="userSpaceOnUse"
       id="clipPath126">
      <path
         d="m 5662.91,3378.29 c 2.88,-3.53 6.1,-6.78 9.66,-9.65 8.23,-6.64 27.98,-9.5 28.53,-22.48 0.53,-12.65 1.05,-25.33 1.33,-38 0.43,-19.03 -2.95,-30.91 -21.47,-39.42 -8.61,-3.96 -17.98,-5.9 -27.26,-7.8 1.03,-5.59 4.51,-10.42 8.31,-14.64 40.03,-44.48 103.84,-46.09 158.96,-37.36 22.61,3.58 46.73,7.68 67.45,17.84 4.63,2.27 9.2,4.8 13.63,7.55 -6.57,4.17 -12.81,8.81 -17.97,14.61 -10.54,11.86 -14.27,30.48 -15.44,45.93 -2.35,31.03 -4.77,62.09 -2.12,93.2 3.37,39.37 14.48,77.76 17.4,117.18 2.91,39.4 -7.06,81.37 -28.09,114.87 -23.53,37.47 -60.29,50.11 -103.68,47.85 -20.26,-1.06 -41.13,-5.16 -57.47,-17.17 -20.8,-15.28 -31.13,-40.83 -38.56,-65.55 -17.34,-57.73 -24.1,-119.19 -8.02,-177.8 2.88,-10.5 7.86,-20.66 14.81,-29.16 z"
         transform="translate(0,2.5e-5)"
         id="path126" />
    </clipPath>
  </defs>
  <sodipodi:namedview
     id="namedview1"
     pagecolor="#ffffff"
     bordercolor="#000000"
     borderopacity="0.25"
     inkscape:showpageshadow="2"
     inkscape:pageopacity="0.0"
     inkscape:pagecheckerboard="0"
     inkscape:deskcolor="#d1d1d1"
     inkscape:zoom="0.837"
     inkscape:cx="500"
     inkscape:cy="333.9307"
     inkscape:window-width="1920"
     inkscape:window-height="1011"
     inkscape:window-x="0"
     inkscape:window-y="32"
     inkscape:window-maximized="1"
     inkscape:current-layer="g1">
    <inkscape:page
       x="0"
       y="0"
       inkscape:label="1"
       id="page1"
       width="1000"
       height="666.66669"
       margin="0"
       bleed="0" />
  </sodipodi:namedview>
  <g
     id="g1"
     inkscape:groupmode="layer"
     inkscape:label="1">
    <g
       id="group-R5">
      <path
         id="path2"
         d="M 7500,0 H 0 V 5000 H 7500 V 0"
         style="fill:#ffffff;fill-opacity:1;fill-rule:nonzero;stroke:none"
         transform="matrix(0.13333333,0,0,-0.13333333,0,666.66667)" />
      <path
         id="path3"
         d="m 3536.84,838.391 c 224.29,-0.25 448.59,-0.68 672.88,-1.25"
         style="fill:none;stroke:#caaddb;stroke-width:20;stroke-linecap:round;stroke-linejoin:round;stroke-miterlimit:10;stroke-dasharray:none;stroke-opacity:1"
         transform="matrix(0.13333333,0,0,-0.13333333,0,666.66667)" />
      <path
         id="path4"
         d="m 4947.87,938.859 c 160.85,-0.05 321.71,-0.187 482.57,-0.359"
         style="fill:none;stroke:#caaddb;stroke-width:20;stroke-linecap:round;stroke-linejoin:round;stroke-miterlimit:10;stroke-dasharray:none;stroke-opacity:1"
         transform="matrix(0.13333333,0,0,-0.13333333,0,666.66667)" />
      <path
         id="path5"
         d="M 674.383,852.082 C 1526.33,855 2367.57,855 3234.18,853.602"
         style="fill:none;stroke:#caaddb;stroke-width:20;stroke-linecap:round;stroke-linejoin:round;stroke-miterlimit:10;stroke-dasharray:none;stroke-opacity:1"
         transform="matrix(0.13333333,0,0,-0.13333333,0,666.66667)" />
      <path
         id="path6"
         d="m 3867.76,782.871 c 615.72,4.379 1235.72,4.379 1856.89,3.809"
         style="fill:none;stroke:#caaddb;stroke-width:20;stroke-linecap:round;stroke-linejoin:round;stroke-miterlimit:10;stroke-dasharray:none;stroke-opacity:1"
         transform="matrix(0.13333333,0,0,-0.13333333,0,666.66667)" />
      <path
         id="path7"
         d="m 2294.04,693.422 c 482.56,1.367 976.99,1.367 1462.04,-1.613"
         style="fill:none;stroke:#caaddb;stroke-width:20;stroke-linecap:round;stroke-linejoin:round;stroke-miterlimit:10;stroke-dasharray:none;stroke-opacity:1"
         transform="matrix(0.13333333,0,0,-0.13333333,0,666.66667)" />
      <path
         id="path8"
         d="m 1377.21,777.801 c 188.2,0.281 376.4,0.531 564.6,0.719"
         style="fill:none;stroke:#caaddb;stroke-width:20;stroke-linecap:round;stroke-linejoin:round;stroke-miterlimit:10;stroke-dasharray:none;stroke-opacity:1"
         transform="matrix(0.13333333,0,0,-0.13333333,0,666.66667)" />
      <path
         id="path9"
         d="m 3371.45,624.762 c 70.48,0.367 140.96,0.699 211.43,0.957"
         style="fill:none;stroke:#caaddb;stroke-width:20;stroke-linecap:round;stroke-linejoin:round;stroke-miterlimit:10;stroke-dasharray:none;stroke-opacity:1"
         transform="matrix(0.13333333,0,0,-0.13333333,0,666.66667)" />
      <path
         id="path10"
         d="m 5821.15,786.59 c 224.3,-0.25 748.58,-0.68 972.88,-1.25"
         style="fill:none;stroke:#caaddb;stroke-width:20;stroke-linecap:round;stroke-linejoin:round;stroke-miterlimit:10;stroke-dasharray:none;stroke-opacity:1"
         transform="matrix(0.13333333,0,0,-0.13333333,0,666.66667)" />
      <path
         id="path11"
         d="m 2970.01,982.75 c 413.47,4.5 823.47,4.5 1231.65,5.711"
         style="fill:none;stroke:#caaddb;stroke-width:20;stroke-linecap:round;stroke-linejoin:round;stroke-miterlimit:10;stroke-dasharray:none;stroke-opacity:1"
         transform="matrix(0.13333333,0,0,-0.13333333,0,666.66667)" />
      <path
         id="path12"
         d="m 4906.29,1373.49 c 263.7,-81.18 581.59,-136.67 858.36,-118.06 277.53,18.65 522.68,82.68 719.04,297.2 230.01,251.3 253.55,570.73 238.1,894.22 -7.5,156.98 -31.86,398.4 -130.61,528.04 -187.33,245.95 -564.83,388.28 -857.25,440.16 -287.44,50.99 -611.02,11.32 -855.9,190.52 -114.44,83.74 -202.97,197.11 -300,300.5 -185.68,197.84 -412.65,365.29 -674.11,437.79 -208.82,57.91 -442.23,49.76 -639.57,-44.14 -214.01,-101.82 -343.1,-303.63 -519.89,-453.23 -124.77,-105.58 -273.19,-183.06 -431.15,-225.06 -144.15,-38.33 -295.63,-47.49 -436.65,-96.07 -352.29,-121.34 -645.08,-398.2 -741.57,-763.49 -96.31,-364.65 1.67,-748.71 282.42,-1002.08 76.06,-68.63 161.48,-126.05 248.46,-180.18 277.85,-172.92 604.97,-318.8 924.04,-246.01 95.65,21.83 185.73,62.52 276.72,99.21 352.11,141.98 741.37,239.22 1122.29,250.27 144.04,4.18 231.96,-60.63 361.34,-110.31 182.9,-70.22 368.65,-141.63 555.93,-199.28"
         style="fill:#f4e3d5;fill-opacity:1;fill-rule:nonzero;stroke:none"
         transform="matrix(0.13333333,0,0,-0.13333333,0,666.66667)" />
      <path
         id="path13"
         d="m 2940.62,983.398 231.07,1199.422 319.57,14.5 231.07,-1203.922"
         style="fill:none;stroke:#040606;stroke-width:20;stroke-linecap:round;stroke-linejoin:round;stroke-miterlimit:10;stroke-dasharray:none;stroke-opacity:1"
         transform="matrix(0.13333333,0,0,-0.13333333,0,666.66667)" />
      <path
         id="path14"
         d="m 2810.34,983.398 231.07,1170.432 319.57,14.5 231.07,-1174.932"
         style="fill:none;stroke:#040606;stroke-width:20;stroke-linecap:round;stroke-linejoin:round;stroke-miterlimit:10;stroke-dasharray:none;stroke-opacity:1"
         transform="matrix(0.13333333,0,0,-0.13333333,0,666.66667)" />
      <path
         id="path15"
         d="m 3224.28,1843.94 c -85.87,16.5 -170.54,39.2 -253.09,68.03 -192.08,67.07 -346.82,268.78 -408.03,457.25 -64.3,197.98 -87.71,448.82 -53.49,653.61 22.05,131.93 97.55,266.3 224.31,308.97 91.21,30.71 191.57,8.93 282.41,-22.83 122.46,-42.83 191.89,-102.94 245.37,-219.51 57.32,-124.94 99.43,-257.19 171.13,-375.2 100.83,-165.95 258.56,-296.6 440.37,-364.79 119.48,-44.81 352.8,-76.75 306.47,-252.88 -50.42,-191.65 -252.46,-257.43 -430.24,-275.77 -174.95,-18.04 -352.5,-10.04 -525.21,23.12"
         style="fill:#97ce74;fill-opacity:1;fill-rule:nonzero;stroke:none"
         transform="matrix(0.13333333,0,0,-0.13333333,0,666.66667)" />
      <path
         id="path16"
         d="m 5128.62,1174.38 c 14.13,16.19 12.44,40.96 -3.89,54.91 -103.64,88.59 -204,190.02 -295.09,289.86 -22.89,25.09 -48.15,52.13 -81.71,57.38 -22.82,3.58 -46.36,-3.76 -66.68,-14 -34.41,-17.34 -62.51,-45.9 -77.41,-81.44 -59.36,-141.55 122.4,-259.74 217.83,-324.05 47.42,-31.96 89.55,-71.13 131.33,-110.52 15.39,-14.51 39.58,-13.99 54.38,1.13 41.29,42.17 82.52,82.36 121.24,126.73"
         style="fill:#f25379;fill-opacity:1;fill-rule:nonzero;stroke:none"
         transform="matrix(0.13333333,0,0,-0.13333333,0,666.66667)" />
      <path
         id="path17"
         d="m 5473.71,1248.97 c 7.5,11.94 14.3,24.51 20.76,37.84 10.35,21.35 12.64,50.74 -5.92,65.53 -17.65,14.09 -43.52,7.25 -64.52,-1.08 -78.9,-31.29 -152.67,-74.56 -232.11,-104.47 -12.48,-4.7 -25.24,-9.21 -38.4,-11.63 -8.31,-1.52 -26.4,1.46 -32.85,-1.37 -17.99,-7.9 -39.15,-47.16 -52.19,-62.48 -38.05,-44.69 -77.5,-88.15 -117.95,-130.64 3.01,-2.79 6.02,-5.62 9.05,-8.4 11.68,-10.71 23.52,-21.65 35.76,-31.78 43.42,-35.92 89.97,-97.201 141.16,-58.388 9.34,7.07 38.62,34.128 47.74,41.457 49.69,39.911 99.48,85.901 147.66,128.531 31.96,28.27 66.3,53.78 97.52,82.89 17.74,16.54 31.96,34.38 44.29,53.99"
         style="fill:#9b5130;fill-opacity:1;fill-rule:nonzero;stroke:none"
         transform="matrix(0.13333333,0,0,-0.13333333,0,666.66667)" />
      <path
         id="path18"
         d="m 4791.41,1177.49 c 17.46,30.71 34.19,61.83 49.89,93.47 26.15,52.74 49.71,106.75 70.25,161.92 -27.83,28.24 -55.18,56.97 -81.91,86.27 -22.89,25.09 -48.15,52.13 -81.71,57.38 -19.34,3.04 -39.19,-1.78 -57.16,-9.54 -48.24,-20.85 -86.72,-65.21 -96.28,-116.89 -21.11,-114.23 106.49,-210.86 196.92,-272.61"
         style="fill:#171717;fill-opacity:1;fill-rule:nonzero;stroke:none"
         transform="matrix(0.13333333,0,0,-0.13333333,0,666.66667)" />
      <path
         id="path19"
         d="m 3910.66,2212.97 -25.42,18.69 c 80.2,109.04 111.19,231.03 87.28,343.52 -25.9,121.85 -117.82,228.94 -245.89,286.5 -200.96,90.31 -453.51,54.02 -696.5,1.33 l -6.69,30.83 c 248.26,53.82 506.85,90.65 716.12,-3.39 137.21,-61.66 235.84,-177.06 263.82,-308.71 25.81,-121.41 -7.12,-252.37 -92.72,-368.77"
         style="fill:#0d0809;fill-opacity:1;fill-rule:nonzero;stroke:none"
         transform="matrix(0.13333333,0,0,-0.13333333,0,666.66667)" />
      <path
         id="path20"
         d="m 4150.05,2586.36 c -1.2,30.71 -7.17,63.06 -25.5,89.34 -29.51,42.31 -86.79,58.94 -131.94,46 -45.16,-12.93 -78.44,-50.54 -97.03,-93.98 -10.52,-24.6 -16.88,-51.03 -21.03,-78.18 -3.18,-20.8 -5.07,-42.02 -6.55,-63.17 -4.99,-71.15 -10.85,-147.28 0.28,-219.71 0.82,-5.33 1.91,-10.39 3.16,-15.31 7.21,-6.87 13.95,-14.22 21.5,-20.65 4.59,-3.26 9.2,-6.49 13.87,-9.64 19.5,-10.62 41.21,-13.87 62.17,-20.33 21.59,-6.66 42.5,-15.65 65.26,-17.5 3.33,-0.27 6.64,-0.52 9.92,-0.81 1.41,3.13 2.99,7.11 4.87,12.2 18.6,50.23 49.98,179.48 68.58,229.72 9.51,25.71 19.05,51.51 25.08,78.62 5.99,26.93 8.47,55.04 7.36,83.4"
         style="fill:#f25379;fill-opacity:1;fill-rule:nonzero;stroke:none"
         transform="matrix(0.13333333,0,0,-0.13333333,0,666.66667)" />
      <path
         id="path21"
         d="m 3878.33,2445.63 c 20.87,-12.61 47.08,-12.48 70.35,-17.22 14.02,-2.88 27.85,-7.09 41.76,-10.54 14.2,-3.53 28.4,-7.1 42.33,-11.57 24.08,-7.72 46.82,-18.78 69.47,-30.03 5.63,19.13 10.87,35.93 15.37,48.07 9.51,25.71 19.05,51.51 25.08,78.62 5.99,26.93 8.47,55.04 7.36,83.4 -1.2,30.71 -7.17,63.06 -25.5,89.34 -29.51,42.31 -86.79,58.94 -131.94,46 -45.16,-12.93 -78.44,-50.54 -97.03,-93.98 -10.52,-24.6 -16.88,-51.03 -21.03,-78.18 -3.18,-20.8 -5.07,-42.02 -6.55,-63.17 -0.66,-9.33 -1.32,-18.76 -1.97,-28.24 2.73,-4.8 6.66,-9.09 12.3,-12.5"
         style="fill:#040606;fill-opacity:1;fill-rule:nonzero;stroke:none"
         transform="matrix(0.13333333,0,0,-0.13333333,0,666.66667)" />
      <path
         id="path22"
         d="m 4574.33,1088.83 c 59.49,61.69 116.91,125.39 172.97,190.19 68.95,79.69 135.9,161.06 202.51,242.71 -2.49,4.54 -5.14,8.98 -7.81,13.31 -122.49,198.85 -288.21,370.7 -481.58,501.54 -200.38,135.58 -419.33,267.98 -659.19,318.96 -67.88,14.43 -132.94,11.86 -197.11,36.48 -74.14,28.45 -146.26,63.25 -219.86,93.2 -89.72,36.52 -173.63,86.22 -263.7,121.88 -76.64,30.35 -174.12,27.88 -238.87,-28.05 -86.53,-74.74 -71.27,-184.48 -30.78,-280.77 63.85,-151.87 165.11,-213.78 316.48,-262.5 287.39,-92.5 595.48,-156.51 817.78,-371.95 197.15,-191.06 376.21,-402.7 589.16,-575"
         style="fill:#f2b227;fill-opacity:1;fill-rule:nonzero;stroke:none"
         transform="matrix(0.13333333,0,0,-0.13333333,0,666.66667)" />
      <path
         id="path23"
         d="m 3551.09,2128.99 c 0.82,-50.13 -7.14,-100.36 -9.07,-150.48 -0.41,-10.46 -0.34,-21.31 3.89,-30.88 7.74,-17.51 26.52,-26.95 33.85,-44.79 -16.87,-0.11 -111.49,31.09 -120.31,38.42 -30.78,25.52 -8.03,65.43 -15.72,104.66 -6.91,35.19 -9.69,71.03 -12.46,106.77 -2.55,33.02 -5.1,66.03 -7.67,99.04 -1.17,15.07 -6.52,66.35 12.3,74.52 13.48,5.85 41.07,-38.67 49.1,-49.46 27.6,-37.03 63.71,-89.06 65.77,-137 0.16,-3.6 0.26,-7.2 0.32,-10.8"
         style="fill:#040606;fill-opacity:1;fill-rule:nonzero;stroke:none"
         transform="matrix(0.13333333,0,0,-0.13333333,0,666.66667)" />
      <path
         id="path24"
         d="m 3551.88,3474.9 c -61.35,91.94 -261.06,77.52 -357.56,86.06 -26.06,2.3 -70.97,-9.35 -96.76,-13.76 -31.8,-5.45 -42.5,-6.86 -70.17,-23.46 -216.13,-129.65 -335.56,-329.74 -331.08,-584.49 3.03,-173.08 55.97,-339.68 111.66,-501.93 3.13,-9.09 5.6,-16.72 7.96,-23.26 7.51,2.09 14.99,4.21 22.39,6.29 67.23,18.93 134.95,40.3 199.63,66.79 62.57,25.63 121.87,58.93 177.66,97.04 57.04,38.97 109.38,83.95 163.12,127.22 43.96,35.4 95.96,34.69 136.33,74.18 -9.61,18.12 -26.63,72.88 -33,92.34 -12.32,37.62 -14.16,77.81 -14.2,117.41 -0.05,47.93 -5.01,107.69 10.89,153.6 3.07,8.86 8.53,16.66 13.93,24.33 33.75,47.98 64.77,82.91 70.63,142.16 4.76,48.11 16.03,118.33 -11.43,159.48"
         style="fill:#5d71c0;fill-opacity:1;fill-rule:nonzero;stroke:none"
         transform="matrix(0.13333333,0,0,-0.13333333,0,666.66667)" />
      <path
         id="path25"
         d="m 3046.13,2850.81 c 15.91,67.11 27.34,135.29 34.15,203.93 1.62,16.38 3.09,33.16 10.04,48.07 -0.77,-1.65 16.5,-36.09 17.74,-41.72 3.23,-14.64 2.45,-27.45 1.53,-41.9 -2.11,-33.07 -16.97,-69.25 -10.95,-102.18 4.1,-22.47 19.41,-42.77 18.31,-65.58 -1.6,-33.48 -36.6,-55.08 -49.05,-86.2 -11.1,-27.78 -1.66,-67.32 -23.35,-90.53 -9.76,-10.45 -26.78,-16.86 -36.58,-2.67 -10.44,15.14 5.38,57.69 9.39,75.46 7.81,34.66 20.53,68.6 28.77,103.32"
         style="fill:#040606;fill-opacity:1;fill-rule:nonzero;stroke:none"
         transform="matrix(0.13333333,0,0,-0.13333333,0,666.66667)" />
      <path
         id="path26"
         d="m 3547.8,2737.26 c -8.28,24.77 -22.45,46.05 -34.74,68.74 -3.52,6.49 -6.88,13.09 -9.91,19.92 -1.05,2.39 -2.19,4.85 -3.62,7.04 -4.91,-3.27 -9.97,-6.35 -15.08,-9.31 -24.58,-14.19 -48.95,-28.78 -73.69,-42.68 -46.46,-26.12 -93.53,-51.55 -140.73,-76.32 -45.19,-23.74 -91.1,-48.18 -137.88,-68.61 -22.39,-9.78 -45.68,-17.08 -69.05,-24.1 -25.14,-7.55 -49.95,-16.2 -75.27,-23.12 -8.08,-2.2 -16.21,-4.35 -24.33,-6.5 -2.15,-0.71 -4.29,-1.46 -6.45,-2.17 -25.2,-8.24 -54.91,-20.83 -58.7,-47.07 -1.49,-10.26 1.6,-20.56 4.83,-30.43 12.49,-38.18 26.98,-112.7 70.94,-114.44 19.15,-0.75 48.27,8.21 69.16,9.66 28.83,1.99 57.56,5.44 85.86,11.38 63.14,13.27 125.94,32.5 186.78,53.87 112.22,39.41 281.98,124.23 231.88,274.14"
         style="fill:#2063b7;fill-opacity:1;fill-rule:nonzero;stroke:none"
         transform="matrix(0.13333333,0,0,-0.13333333,0,666.66667)" />
      <path
         id="path27"
         d="m 4028.73,3165.94 c -4.19,2.33 -8.34,4.6 -12.46,6.72 -23.1,11.82 -47.49,23.96 -73.42,23.03 -25.18,-0.9 -48.09,-14.01 -69.73,-26.91 -108.76,-64.87 -215.55,-134.06 -311.08,-217.21 -95.52,-83.14 -179.85,-180.91 -236.8,-294.02 -16.77,-33.31 -31.29,-68.51 -34.85,-105.63 -2.68,-27.9 0.92,-55.98 4.51,-83.78 7.53,-58.32 5.15,-111.29 66.96,-136.34 26.24,-10.63 54.81,-13.68 82.57,-19.31 54.11,-10.97 113,-44.14 163.56,-10.15 115.54,77.67 224.57,197.53 265.7,315.16 53.97,154.39 183.02,272.43 250.83,421.26 12.12,26.6 30.98,83.31 -4.41,101.18 -12.19,6.15 -28.71,1.52 -41.8,4.21 -17.35,3.56 -33.73,13 -49.58,21.79"
         style="fill:#f2b227;fill-opacity:1;fill-rule:nonzero;stroke:none"
         transform="matrix(0.13333333,0,0,-0.13333333,0,666.66667)" />
      <path
         id="path28"
         d="m 4235.03,3052.64 c -1.33,39.42 -1.86,87.56 -18.93,123.82 -16.89,35.89 -63.04,64.62 -100.09,73.82 -44.63,11.09 -95.63,-0.98 -126.85,-34.76 -16.62,-17.97 -26.99,-40.66 -38.37,-62.34 -36.11,-72.24 -79.14,-140.35 -115.51,-212.69 -7.03,-13.97 -14.09,-28.03 -18.6,-43.01 -5.04,-16.73 40.09,-50.79 38.36,-68.18 -5.99,-59.96 -22.9,-130.04 -28.89,-190.01 l -38.76,-142.12 c 49.16,1.93 78.45,-25.29 124.42,-39.51 31.07,-9.62 63.8,-12.28 96.22,-14.9 18.85,-1.52 217.34,-22.77 215.27,-3.24 -13.12,123.52 6.92,247.83 12.79,371.9 3.8,80.34 1.65,160.84 -1.06,241.22"
         style="fill:#f2b227;fill-opacity:1;fill-rule:nonzero;stroke:none"
         transform="matrix(0.13333333,0,0,-0.13333333,0,666.66667)" />
      <path
         id="path29"
         d="m 3375.77,3165.48 c 2.06,-28.29 30.89,-51.66 58.99,-47.82 14.61,2 27.56,10 40.92,16.21 35.41,16.45 76.37,20.65 114.37,11.72 72.54,-17.03 134.57,-0.81 204.94,9.29 80.29,11.53 158.75,29.72 234.83,58.22 37.34,13.99 74.54,30.57 106.24,54.36 37.44,28.09 68.19,60.15 82.25,106.37 9.03,29.73 6.94,64.65 -13.01,88.48 -13.33,15.92 -8.68,30.2 -28.39,36.76 -59.91,19.95 -148.74,13.88 -211.88,13.8 -187.62,-0.25 -375.24,10.08 -561.71,30.91 -49.55,5.53 -39.21,-68.43 -31.41,-100.87 8.51,-35.35 29.73,-69.45 31.35,-105.44 1.46,-32.63 -2.41,-65.32 -10.94,-96.84 -6.14,-22.66 -18.25,-51.68 -16.55,-75.15"
         style="fill:#5d71c0;fill-opacity:1;fill-rule:nonzero;stroke:none"
         transform="matrix(0.13333333,0,0,-0.13333333,0,666.66667)" />
      <path
         id="path30"
         d="m 3606.87,3209.32 c -39.58,19.24 -74.39,48.18 -100.52,83.58"
         style="fill:none;stroke:#040606;stroke-width:10;stroke-linecap:round;stroke-linejoin:round;stroke-miterlimit:10;stroke-dasharray:none;stroke-opacity:1"
         transform="matrix(0.13333333,0,0,-0.13333333,0,666.66667)" />
      <path
         id="path31"
         d="m 2841.55,3421.52 c -142.35,-162.7 -231.46,-811.84 -140.78,-821.27 73.59,-7.66 229.31,26.56 281.65,89.78 23.38,28.25 30.89,66 37.63,102.04 9.26,49.56 18.52,99.12 27.79,148.69 37.85,202.49 84.92,410.54 42.09,612.04 -134.16,-17.93 -188.8,-63.18 -248.38,-131.28"
         style="fill:#5d71c0;fill-opacity:1;fill-rule:nonzero;stroke:none"
         transform="matrix(0.13333333,0,0,-0.13333333,0,666.66667)" />
      <path
         id="path32"
         d="m 3243.43,2528.17 c 137.13,-64.52 235.67,-185.17 263.6,-322.71 13.71,-67.5 13.73,-137.21 -4.21,-203.94 -13.6,-50.58 -44.57,-150.64 -103.29,-164.67 -22.25,-5.31 -45.53,-1.6 -68.1,2.13 -24.88,4.11 -49.76,8.22 -74.64,12.34 -39.52,6.53 -82.72,13.76 -113.57,41.35 -29.12,26.05 -48.69,38.52 -86.86,53.6 -115.8,45.75 -238.49,96.82 -308.89,199.53 -32.55,47.48 -51.52,103.02 -82.04,151.84 -24.54,39.28 -56.4,73.96 -77.39,115.25 -13.43,26.41 -22.28,57.19 -19.74,87.06 3.6,42.19 17.5,45.01 55.33,52.5 70.99,14.07 142.55,25.78 214.71,31.85 136.74,11.5 279.22,3.07 405.09,-56.13"
         style="fill:#97ce74;fill-opacity:1;fill-rule:nonzero;stroke:none"
         transform="matrix(0.13333333,0,0,-0.13333333,0,666.66667)" />
      <path
         id="path33"
         d="m 3802.82,2489.85 c -7.2,53.84 64.39,300.24 65.76,354.49 1.39,54.25 -14.32,77.84 11.85,126.34"
         style="fill:none;stroke:#040606;stroke-width:10;stroke-linecap:round;stroke-linejoin:round;stroke-miterlimit:10;stroke-dasharray:none;stroke-opacity:1"
         transform="matrix(0.13333333,0,0,-0.13333333,0,666.66667)" />
      <path
         id="path34"
         d="m 3089.93,3156.46 c -13.4,-126.14 -33.12,-251.61 -59.07,-375.79 -5.88,-28.13 -12.23,-56.63 -25.9,-81.9 -11.89,-21.99 -29.19,-41.01 -49.95,-54.93"
         style="fill:none;stroke:#040606;stroke-width:10;stroke-linecap:round;stroke-linejoin:round;stroke-miterlimit:10;stroke-dasharray:none;stroke-opacity:1"
         transform="matrix(0.13333333,0,0,-0.13333333,0,666.66667)" />
      <path
         id="path35"
         d="m 3493.17,1949.86 c -15.53,-45.32 -37.55,-62.16 -75.11,-89.35"
         style="fill:none;stroke:#040606;stroke-width:10;stroke-linecap:round;stroke-linejoin:round;stroke-miterlimit:10;stroke-dasharray:none;stroke-opacity:1"
         transform="matrix(0.13333333,0,0,-0.13333333,0,666.66667)" />
      <path
         id="path36"
         d="m 3213,3066.41 c -4.37,7.59 -8.07,15.64 -10.52,24.05 -2.01,6.94 -5.25,15.74 -4.77,22.97 0.13,1.93 0.85,4.25 2.74,4.61 -2.19,2.76 -2.56,6.83 -0.91,9.94 1.64,3.11 5.23,5.08 8.74,4.81 -1.01,3.25 -0.4,6.95 1.61,9.69 4.05,5.53 14.37,6.9 20.62,8.01 28.04,5 56.61,6.25 85.07,7.5 57.88,2.51 115.79,5.03 173.72,4.92 3.52,-0.01 7.18,0 10.33,1.56 2.2,1.09 3.99,2.86 5.73,4.6 19.56,19.5 39.12,38.99 58.68,58.5 25.39,25.32 50.79,50.64 76.19,75.96 6.35,6.34 12.7,12.66 19.05,19 5.17,5.15 10.07,8.44 15.82,12.56 11.9,8.52 22.24,17.93 37.32,20.24 2.68,0.41 5.49,0.61 8.44,0.57 3.16,-0.04 7.18,-1.12 7.49,-4.26 3.6,0.88 7.3,1.77 10.96,1.18 3.65,-0.58 7.27,-3 8.08,-6.62 0.14,-0.62 0.23,-1.33 0.72,-1.73 0.5,-0.4 1.21,-0.34 1.84,-0.23 3.68,0.59 7.37,1.83 11.05,1.24 3.68,-0.6 7.3,-3.98 6.4,-7.6 4.38,2.43 10.12,0.64 13.7,-2.85 9.72,-9.46 11.28,-27.06 14.27,-39.54 3.62,-15.08 6.79,-30.27 10.54,-45.31 2.29,-9.19 4.6,-18.49 4.58,-27.95 -0.02,-10.62 -2.97,-21.02 -6.66,-30.97 -23.78,-64.05 -77.53,-112.17 -133.82,-150.89 -80.24,-55.2 -170.28,-97.11 -265.58,-117.24 -20.19,-4.27 -41.18,-7.55 -61.36,-3.23 -16.25,3.49 -32.72,10.9 -47.87,17.61 -14.86,6.58 -17.99,17.17 -26.29,31.61 -18.64,32.43 -37.25,64.88 -55.91,97.29"
         style="fill:#ffffff;fill-opacity:1;fill-rule:nonzero;stroke:none"
         transform="matrix(0.13333333,0,0,-0.13333333,0,666.66667)" />
      <path
         id="path37"
         d="m 3518.86,3151.19 c 0,0 234.06,-472.11 240.22,-482.62 l 271.07,203.74 -231.63,462.98 c -3.24,6.49 -11.51,8.53 -17.4,4.3 l -262.26,-188.4"
         style="fill:#89319c;fill-opacity:1;fill-rule:nonzero;stroke:none"
         transform="matrix(0.13333333,0,0,-0.13333333,0,666.66667)" />
      <path
         id="path38"
         d="m 3508.71,3143.39 c 0,0 235.54,-469.06 241.73,-480 l -334.96,-37.99 -226.15,462.27 c -4.23,8.66 1.37,18.89 10.94,20 l 308.44,35.72"
         style="fill:#89319c;fill-opacity:1;fill-rule:nonzero;stroke:none"
         transform="matrix(0.13333333,0,0,-0.13333333,0,666.66667)" />
      <path
         id="path39"
         d="m 3782.16,2675.31 c 0.57,2.99 -1.37,5.44 -2.47,8.25 -1.57,3.95 -3.3,7.82 -5.13,11.66 -3.54,7.38 -7.4,14.6 -11.02,21.95 -12.34,25.07 -25.43,49.76 -38.48,74.47 -24.72,46.81 -49.7,93.5 -74.32,140.37 -20.84,39.64 -40.58,79.85 -60.32,120.04 -9.99,20.33 -19.98,40.66 -30.11,60.92 -4.96,9.89 -9.95,19.77 -14.98,29.62 -1.74,3.39 -3.61,6.67 -5.69,9.86 -2.32,3.55 -5.17,9.04 -9.87,9.65 -1.86,0.24 -3.72,-0.37 -5.49,-0.98 -8.49,-2.92 -16.95,-6.04 -24.91,-10.2 -4.04,-2.1 -7.87,-4.51 -11.56,-7.17 -1.67,-1.21 -2.48,-1.56 -2.52,-3.72 -0.05,-2.34 1,-4.74 1.93,-6.83 6.58,-14.75 13.97,-29.23 21.16,-43.68 7.28,-14.63 14.98,-29.04 22.46,-43.56 3.44,-6.68 6.83,-13.37 10.1,-20.13 48.6,-100.63 99.06,-194.24 149.51,-293.98 0.64,-1.26 1.27,-2.53 1.91,-3.8 7.93,-15.83 15.5,-31.84 23.06,-47.85 1.89,-4.01 3.78,-8.01 5.67,-12.01 1.49,-3.15 2.64,-6.93 4.43,-9.88 3.23,-5.34 14.56,-3.53 19.69,-2.84 6.94,0.93 13.87,2.27 20.42,4.74 4.04,1.53 7.96,3.51 11.13,6.44 2.37,2.19 4.45,5.08 5.3,8.23 0.04,0.15 0.07,0.29 0.1,0.43"
         style="fill:#040606;fill-opacity:1;fill-rule:nonzero;stroke:none"
         transform="matrix(0.13333333,0,0,-0.13333333,0,666.66667)" />
      <path
         id="path40"
         d="m 2572.36,3032.61 c -17.75,-69.56 -25.17,-141.73 -21.96,-213.45"
         style="fill:none;stroke:#040606;stroke-width:10;stroke-linecap:round;stroke-linejoin:round;stroke-miterlimit:10;stroke-dasharray:none;stroke-opacity:1"
         transform="matrix(0.13333333,0,0,-0.13333333,0,666.66667)" />
      <path
         id="path41"
         d="m 2608.99,2635.55 c -17.77,-3.95 -35.53,-7.89 -53.3,-11.84"
         style="fill:none;stroke:#040606;stroke-width:10;stroke-linecap:round;stroke-linejoin:round;stroke-miterlimit:10;stroke-dasharray:none;stroke-opacity:1"
         transform="matrix(0.13333333,0,0,-0.13333333,0,666.66667)" />
      <path
         id="path42"
         d="m 3391.25,2191.75 c 32.51,-50.21 44.87,-113.08 33.78,-171.87"
         style="fill:none;stroke:#040606;stroke-width:10;stroke-linecap:round;stroke-linejoin:round;stroke-miterlimit:10;stroke-dasharray:none;stroke-opacity:1"
         transform="matrix(0.13333333,0,0,-0.13333333,0,666.66667)" />
      <path
         id="path43"
         d="m 2739.52,2179.72 c 45.69,-67.67 106.91,-124.79 177.58,-165.7"
         style="fill:none;stroke:#040606;stroke-width:10;stroke-linecap:round;stroke-linejoin:round;stroke-miterlimit:10;stroke-dasharray:none;stroke-opacity:1"
         transform="matrix(0.13333333,0,0,-0.13333333,0,666.66667)" />
      <path
         id="path44"
         d="m 3541.92,2837.02 c -36.33,-21.75 -74.03,-41.35 -113.48,-56.7 -16.38,-6.37 -33.47,-11.33 -51.21,-9.27 -16.56,1.94 -26.63,7.16 -39.2,17.57 -9.79,-14.81 -19.58,-29.63 -29.38,-44.44 -10.39,-15.73 -24.97,-32.18 -44.45,-35.73 -65.45,-11.92 -138.57,17.76 -202.5,28.25 -102.18,16.74 -206.42,16.79 -309.27,11.62 -17.47,-0.88 -35.25,-1.82 -51.66,-7.89 -16.4,-6.08 -31.5,-18.2 -36.72,-34.9 -2.91,-9.31 -2.58,-19.29 -1.93,-29.03 2.71,-40.71 11.08,-82.47 34.72,-115.73 38.35,-53.91 109.35,-74.83 175.5,-75.87 77.05,-1.23 159.17,9.42 235.46,19.66 81.92,10.99 163.74,23.88 243.98,43.97 45.81,11.47 91.08,25.28 135.12,42.39 59.37,23.07 121.17,51.18 156.24,107.62 3.72,5.98 6.79,14.49 1.74,19.4 -4.92,4.77 -13.1,1.79 -18.91,-1.84 -24.76,-15.51 -44.48,-37.69 -69.54,-53.16 -5.43,-3.34 -12.55,-6.44 -17.79,-2.81 4.55,7.59 12.77,12.03 20.27,16.75 22.94,14.42 43.11,35.42 62.72,54 10.28,9.74 20.41,20.48 24.76,33.96 1.3,4.05 1.86,9.02 -1.07,12.11 -3.44,3.61 -9.43,2.46 -14.03,0.53 -18.17,-7.59 -34.11,-23.91 -49.74,-35.73 -18.75,-14.17 -38.29,-27.27 -58.39,-39.44 -5.46,-3.31 -11.42,-6.67 -17.78,-6.19 1.02,7.23 7.82,11.98 13.93,15.97 34.16,22.29 65.82,48.39 94.2,77.67 5.21,5.37 10.49,11.17 12.37,18.41 1.89,7.24 -0.86,16.25 -7.85,18.91 -5.88,2.25 -12.41,-0.56 -17.92,-3.62 -42,-23.32 -72.77,-63.87 -115.81,-85.2 -3.02,-1.49 -10.44,-4.43 -13.53,-1.55 -4.66,4.36 3.16,7.27 6.83,10 9.74,7.25 19.37,14.64 28.88,22.19 19.03,15.09 37.59,30.77 55.63,47.02 4.19,3.77 8.48,7.76 10.62,12.97 2.13,5.22 1.45,12.04 -3.07,15.4 -6.17,4.6 -14.81,0.57 -21.38,-3.43 -2.11,-1.29 -4.23,-2.57 -6.36,-3.84"
         style="fill:#f25379;fill-opacity:1;fill-rule:nonzero;stroke:none"
         transform="matrix(0.13333333,0,0,-0.13333333,0,666.66667)" />
      <path
         id="path45"
         d="m 3693.98,2370.91 c -48.79,9 -96.38,23.58 -144.97,33.59 -30.14,6.21 -60.62,10.65 -91.09,15.09"
         style="fill:none;stroke:#040606;stroke-width:10;stroke-linecap:round;stroke-linejoin:round;stroke-miterlimit:10;stroke-dasharray:none;stroke-opacity:1"
         transform="matrix(0.13333333,0,0,-0.13333333,0,666.66667)" />
      <path
         id="path46"
         d="m 4275.39,3424.77 c -6.01,12.4 -13.59,24.04 -22.6,34.47 -27.02,31.38 -68.84,51.93 -109.82,45.99 -47.45,-6.89 -84.39,-47.31 -101.92,-91.95 -17.53,-44.63 -19.42,-93.59 -22.81,-141.42 -2.34,-33.01 -5.54,-66.45 -15.39,-98.2 -5.87,-18.86 -13.15,-32.34 -31.81,-39.92 -10.38,-4.23 -21.02,-7.8 -31.85,-10.68 -7.26,-1.93 -16.22,-7.01 -24.39,-7.98 -2.73,-0.33 -4.48,-3.06 -3.27,-5.53 3.51,-7.19 5.37,-13.85 7.03,-22.41 4.13,-21.24 -4.99,-30.41 -20.85,-41.74 -33.62,-23.99 -69.84,-44.07 -107.87,-59.76 -6.6,-2.73 -13.52,-5.53 -18.07,-11.19 -4.56,-5.67 -5.74,-15.21 -0.52,-20.76 5.4,-5.77 14.21,-4.49 21.26,-2.2 38.04,12.34 75.27,28.71 112.67,42.94 2.37,0.9 5.06,1.8 7.35,0.7 -3.62,-6.99 -6.01,-9.03 -12.94,-13.17 -30.93,-18.42 -63.6,-33.79 -97.44,-45.86 -8.82,-3.15 -71.85,-21.59 -42.08,-41.2 5.84,-3.84 13.1,-3.42 19.71,-2.46 25.6,3.74 49.72,13.69 72.63,25.37 23.08,11.76 45.74,22.42 69.74,32.32 -13.26,-14.48 -26.45,-24.04 -44.17,-32.78 -19.11,-9.41 -39.26,-16.76 -57.66,-27.5 -10.72,-6.26 -25.78,-26.69 -3.77,-29.16 5.73,-0.65 11.45,1.1 16.93,2.92 43.94,14.6 85.85,35.32 124.14,61.36 -16.32,-20.52 -39.07,-38.2 -61.7,-51.35 -9.33,-5.42 -46.25,-26.77 -21.22,-37.01 5.55,-2.28 11.88,-1.54 17.68,0.01 13.45,3.61 25.39,11.29 36.85,19.19 50.13,34.56 93.97,76.44 140.48,115.55 37.7,31.7 67.86,74.25 97.21,113.79 34.57,46.59 65.18,96.03 90.28,148.33 19,39.61 35.72,82.17 34.35,126.18 -0.7,22.52 -6.33,44.84 -16.16,65.11"
         style="fill:#f25379;fill-opacity:1;fill-rule:nonzero;stroke:none"
         transform="matrix(0.13333333,0,0,-0.13333333,0,666.66667)" />
      <path
         id="path47"
         d="m 4609.83,1493.1 c 37.94,6.64 74.94,18.66 109.55,35.58"
         style="fill:none;stroke:#040606;stroke-width:10;stroke-linecap:round;stroke-linejoin:round;stroke-miterlimit:10;stroke-dasharray:none;stroke-opacity:1"
         transform="matrix(0.13333333,0,0,-0.13333333,0,666.66667)" />
      <path
         id="path48"
         d="m 3949.52,2177.1 c 16.2,-1.03 32.65,2.07 47.37,8.92"
         style="fill:none;stroke:#040606;stroke-width:10;stroke-linecap:round;stroke-linejoin:round;stroke-miterlimit:10;stroke-dasharray:none;stroke-opacity:1"
         transform="matrix(0.13333333,0,0,-0.13333333,0,666.66667)" />
      <path
         id="path49"
         d="m 4168.9,2773.44 c -26.19,-69.09 -54.8,-137.26 -85.76,-204.36"
         style="fill:none;stroke:#040606;stroke-width:10;stroke-linecap:round;stroke-linejoin:round;stroke-miterlimit:10;stroke-dasharray:none;stroke-opacity:1"
         transform="matrix(0.13333333,0,0,-0.13333333,0,666.66667)" />
      <path
         id="path50"
         d="m 4133.1,2556.13 c -23.63,-15.88 -47.25,-31.76 -70.88,-47.64"
         style="fill:none;stroke:#040606;stroke-width:10;stroke-linecap:round;stroke-linejoin:round;stroke-miterlimit:10;stroke-dasharray:none;stroke-opacity:1"
         transform="matrix(0.13333333,0,0,-0.13333333,0,666.66667)" />
      <path
         id="path51"
         d="m 2948.71,3450.33 c -27.88,-22.29 -52.85,-48.22 -74.09,-76.92"
         style="fill:none;stroke:#040606;stroke-width:10;stroke-linecap:round;stroke-linejoin:round;stroke-miterlimit:10;stroke-dasharray:none;stroke-opacity:1"
         transform="matrix(0.13333333,0,0,-0.13333333,0,666.66667)" />
      <path
         id="path52"
         d="m 3201.7,3719.07 c -0.94,-14.75 30.41,-47.93 40,-58.39 15.22,-16.61 32.83,-29.35 53.97,-37.3 55.07,-20.74 112.48,-21.83 154.68,23.97 20.03,21.74 33.46,48.71 44.63,76.08 17.03,41.7 39.9,156.32 28.03,199.77 -10.77,39.43 -52.68,4.26 -91.55,16.94 -33.81,11.04 -59.56,21 -95.44,14.18 -31.89,-6.05 -62.47,-22.43 -82.16,-48.69 -5.31,-7.08 -10.1,-14.24 -14.48,-21.4 -10.28,-22.75 -19.72,-45.92 -26.42,-70 -5.59,-20.09 -7.27,-40.4 -10.15,-60.69 -0.05,-11.52 -0.37,-23.02 -1.11,-34.47"
         style="fill:#f25379;fill-opacity:1;fill-rule:nonzero;stroke:none"
         transform="matrix(0.13333333,0,0,-0.13333333,0,666.66667)" />
      <path
         id="path53"
         d="m 3183.03,3455.45 c 29.09,-19.72 95.13,-54.34 128.88,-37.51 27.61,13.77 53.48,29.01 53.69,60.34 0.27,38.87 4.44,70.7 19.78,107.34 3.3,7.86 32.31,56.34 29.15,61.71 -0.9,1.52 -2,2.94 -3.39,4.23 -7.23,6.7 -18.27,6.35 -28.13,6.31 -36.89,-0.15 -71.59,10.94 -101.89,31.84 -14.41,9.95 -27.44,21.73 -39.89,34.02 -7.12,7.04 -20.37,31.73 -31.09,32.44 -1.01,0.07 -1.78,-0.47 -2.62,-0.85 -11.79,-50.64 -12.09,-97.82 -41.77,-143.48 -11.23,-17.28 -40.35,-54.28 -72.32,-60.83 22.23,-38.02 52.81,-70.64 89.6,-95.56"
         style="fill:#f25379;fill-opacity:1;fill-rule:nonzero;stroke:none"
         transform="matrix(0.13333333,0,0,-0.13333333,0,666.66667)" />
      <path
         id="path54"
         d="m 3572.42,3994.31 c -1.64,1.39 -3.39,2.63 -5.27,3.7 -16.73,9.56 -38.29,4 -56.39,10.6 -17.59,6.41 -28.97,22.99 -40.38,37.84 -11.4,14.85 -26.05,29.93 -44.74,30.83 -19.76,0.97 -37.03,-14.33 -56.75,-15.76 -14.03,-1.02 -27.48,5.06 -41.32,7.57 -25.22,4.57 -52.43,-3.54 -71.03,-21.18 -8.85,-8.39 -15.72,-18.65 -24.29,-27.32 -12.13,-12.27 -27.28,-21.01 -41.17,-31.25 -13.89,-10.23 -27.1,-22.78 -32.62,-39.12 -6.04,-17.88 -2.03,-37.5 -4.41,-56.22 -1.91,-15.02 -7.93,-29.36 -9.13,-44.45 -1.64,-20.55 5.74,-40.21 11.96,-59.41 6.36,-19.61 7.37,-39.39 18.08,-57.05 8.36,-13.79 22.32,-27.2 38.25,-24.68 10.9,1.72 19.38,10.7 24.41,20.54 8.95,17.52 9.38,37.95 12.91,57.31 2.14,11.78 5.69,27.43 15.48,35.28 8.8,7.05 19.78,13.66 29.42,19.71 24.12,15.13 51.41,25.21 79.61,29.19 28.35,4 57.17,1.95 85.8,2.54 28.64,0.58 58.1,4.08 83.11,18.03 25.02,13.94 44.75,40.32 43.77,68.94 -0.44,12.89 -5.62,26.13 -15.3,34.36"
         style="fill:#040606;fill-opacity:1;fill-rule:nonzero;stroke:none"
         transform="matrix(0.13333333,0,0,-0.13333333,0,666.66667)" />
      <path
         id="path55"
         d="m 3310.76,3844.57 c -0.99,9.69 -4.87,18.63 -10.76,25.3 -7.04,11.88 -23.31,17.21 -36.53,16.21 -18.57,-1.4 -35.53,-15.8 -41.49,-34.46 -13.12,-41.05 29,-76.61 64.54,-56.31 16.75,9.58 26.22,29.67 24.24,49.26"
         style="fill:#f25379;fill-opacity:1;fill-rule:nonzero;stroke:none"
         transform="matrix(0.13333333,0,0,-0.13333333,0,666.66667)" />
      <path
         id="path56"
         d="m 3258.37,3859.77 c 8.84,3.74 22.02,-2.16 27.74,-12.4 5.72,-10.24 2.99,-23.02 -5.77,-26.91"
         style="fill:none;stroke:#040606;stroke-width:10;stroke-linecap:round;stroke-linejoin:round;stroke-miterlimit:10;stroke-dasharray:none;stroke-opacity:1"
         transform="matrix(0.13333333,0,0,-0.13333333,0,666.66667)" />
      <path
         id="path57"
         d="m 3384.69,3904.67 c 24.78,-9.99 56.43,3.67 66.16,28.55 14.68,-15.38 36.94,-23.89 57.83,-19.93 20.88,3.96 39.16,21.32 42.09,42.37"
         style="fill:none;stroke:#663fa2;stroke-width:10;stroke-linecap:round;stroke-linejoin:round;stroke-miterlimit:10;stroke-dasharray:none;stroke-opacity:1"
         transform="matrix(0.13333333,0,0,-0.13333333,0,666.66667)" />
      <path
         id="path58"
         d="m 3465.47,3626.74 c -35.64,-14.14 -77.22,-12.51 -111.65,4.36 -5.67,2.78 -11.32,6.01 -17.59,6.78 -6.28,0.76 -13.48,-1.67 -16.05,-7.44 -2.64,-5.93 0.63,-13.1 5.69,-17.16 5.06,-4.06 11.53,-5.81 17.69,-7.84 12.15,-4 23.82,-9.44 34.69,-16.18 12.75,-7.9 24.9,-17.78 39.6,-20.75 18.27,-3.68 38.4,5.2 47.99,21.17"
         style="fill:#040606;fill-opacity:1;fill-rule:nonzero;stroke:none"
         transform="matrix(0.13333333,0,0,-0.13333333,0,666.66667)"
         clip-path="url(#clipPath59)" />
      <path
         id="path60"
         d="m 3090.87,3550.2 c 38.5,-59.79 94.04,-111.5 162.37,-131.22 23.33,-6.74 49.64,-9.31 70.94,2.37 21.31,11.69 33.12,34.96 43.67,56.87"
         style="fill:none;stroke:#040606;stroke-width:10;stroke-linecap:round;stroke-linejoin:round;stroke-miterlimit:10;stroke-dasharray:none;stroke-opacity:1"
         transform="matrix(0.13333333,0,0,-0.13333333,0,666.66667)" />
      <path
         id="path61"
         d="m 3370.05,3700.82 c 12.45,-13.75 29.78,-23.01 48.14,-25.71"
         style="fill:none;stroke:#040606;stroke-width:10;stroke-linecap:round;stroke-linejoin:round;stroke-miterlimit:10;stroke-dasharray:none;stroke-opacity:1"
         transform="matrix(0.13333333,0,0,-0.13333333,0,666.66667)" />
      <path
         id="path62"
         d="m 3451.05,2709.72 c -8.55,-5.3 -17.59,-9.8 -26.98,-13.42"
         style="fill:none;stroke:#040606;stroke-width:10;stroke-linecap:round;stroke-linejoin:round;stroke-miterlimit:10;stroke-dasharray:none;stroke-opacity:1"
         transform="matrix(0.13333333,0,0,-0.13333333,0,666.66667)" />
      <path
         id="path63"
         d="m 3468.14,2667.71 c -6.35,-4.2 -12.99,-7.95 -19.86,-11.23"
         style="fill:none;stroke:#040606;stroke-width:10;stroke-linecap:round;stroke-linejoin:round;stroke-miterlimit:10;stroke-dasharray:none;stroke-opacity:1"
         transform="matrix(0.13333333,0,0,-0.13333333,0,666.66667)" />
      <path
         id="path64"
         d="m 3489.71,2628.98 c -4.84,-0.5 -9.57,-2.04 -13.77,-4.5"
         style="fill:none;stroke:#040606;stroke-width:10;stroke-linecap:round;stroke-linejoin:round;stroke-miterlimit:10;stroke-dasharray:none;stroke-opacity:1"
         transform="matrix(0.13333333,0,0,-0.13333333,0,666.66667)" />
      <path
         id="path65"
         d="m 3946.26,3018.55 c 6.98,3 13.95,6.01 20.94,9.01"
         style="fill:none;stroke:#040606;stroke-width:10;stroke-linecap:round;stroke-linejoin:round;stroke-miterlimit:10;stroke-dasharray:none;stroke-opacity:1"
         transform="matrix(0.13333333,0,0,-0.13333333,0,666.66667)" />
      <path
         id="path66"
         d="m 3971.4,2980.28 c 3.74,2.59 7.49,5.18 11.24,7.76"
         style="fill:none;stroke:#040606;stroke-width:10;stroke-linecap:round;stroke-linejoin:round;stroke-miterlimit:10;stroke-dasharray:none;stroke-opacity:1"
         transform="matrix(0.13333333,0,0,-0.13333333,0,666.66667)" />
      <path
         id="path67"
         d="m 3997.36,2950.85 c 5.44,4.01 10.14,9.02 13.78,14.7"
         style="fill:none;stroke:#040606;stroke-width:10;stroke-linecap:round;stroke-linejoin:round;stroke-miterlimit:10;stroke-dasharray:none;stroke-opacity:1"
         transform="matrix(0.13333333,0,0,-0.13333333,0,666.66667)" />
      <path
         id="path68"
         d="m 4256.19,3421.3 c 9.87,-20.22 14.19,-43.12 12.37,-65.55"
         style="fill:none;stroke:#040606;stroke-width:10;stroke-linecap:round;stroke-linejoin:round;stroke-miterlimit:10;stroke-dasharray:none;stroke-opacity:1"
         transform="matrix(0.13333333,0,0,-0.13333333,0,666.66667)" />
      <path
         id="path69"
         d="m 692.953,995.859 c -30.07,21.091 -157.746,99.421 -89.105,134.471 60.129,30.7 115.789,31.16 171.879,-6.53 22.75,-15.29 52.929,-40.65 79.668,-47.54 46.753,-12.07 73.382,55.94 96.253,86.43 33.34,44.44 75.842,82.02 124.202,109.4 19.74,11.18 41.68,20.92 64.29,18.91 45.36,-4.03 74.18,-55.67 69.86,-101 -4.33,-45.34 -32.13,-84.6 -59.92,-120.69 -52.94,-68.73 -108.86,-135.771 -161.928,-203.369 -8.281,-10.543 -21.968,-15.25 -35.004,-12.121 -86.847,20.821 -163.062,75.36 -236.839,125.7 -5.586,3.82 -17.821,12.449 -23.356,16.339"
         style="fill:#040606;fill-opacity:1;fill-rule:nonzero;stroke:none"
         transform="matrix(0.13333333,0,0,-0.13333333,0,666.66667)" />
      <path
         id="path70"
         d="m 1238.75,974.52 c 23.02,5.46 47.31,7.652 70.82,10.628 28.49,3.622 56.79,8.692 84.76,15.222 8.8,2.05 17.91,4.41 24.85,10.21 33.72,28.23 0.94,114.36 -1.12,150 -3.33,57.56 -0.28,115.49 9.09,172.39 5.87,35.69 17.02,79.17 48.11,101.69 33.35,24.17 70.45,7.39 106.26,-8.45 21.63,-9.57 42.88,-22.07 56.68,-41.29 20.35,-28.32 21.11,-65.76 21.1,-100.65 -0.04,-70.03 1.07,-137.64 -3.98,-208.64 -4.84,-58.06 -2.67,-115.732 -0.6,-173.982 0.27,-7.539 0.49,-15.316 -2.25,-22.339 -7.71,-19.75 -33.37,-23.899 -54.56,-24.797 -148.3,-6.301 -296.64,0.929 -444.82,2.07 -3.71,0.027 -7.63,0.129 -10.8,2.066 -6.7,4.102 -6.6,13.801 -4.92,21.461 6.51,29.692 24.92,56.602 50.23,73.411 15.59,10.351 32.97,16.691 51.15,21"
         style="fill:#040606;fill-opacity:1;fill-rule:nonzero;stroke:none"
         transform="matrix(0.13333333,0,0,-0.13333333,0,666.66667)" />
      <path
         id="path71"
         d="m 1251.94,2087.9 c 42.61,47.11 106.44,72.52 169.97,80.23 80.32,9.76 162.02,-0.62 237.5,-26.23 113.93,-38.66 236.64,-147.72 318.32,-236.05 227.93,-246.51 477.43,-472.83 681.49,-739.44 13.64,-17.82 27.55,-36.33 33.19,-58.05 15.26,-58.78 -23.01,-110.309 -76.57,-145.399 -51.81,-33.949 -117.92,-52.539 -163.74,-47.492 -71.69,7.91 -140.42,38.929 -198.66,80.621 -91.53,65.5 -161.78,155.66 -235.28,240.89 -73.51,85.22 -154.38,168.74 -257.46,213.93 -7.29,3.19 -15.75,6.18 -22.94,2.79 -9.04,-4.26 -27.33,-24.33 -28.27,-34.27 -12.33,-129.77 61.93,-231.71 49.6,-361.46 l -414.42,14.53 c -29.02,106.73 -66.56,203.56 -76.42,314.79 -10.37,116.79 -26.97,233.03 -49.72,348.05 -11.36,57.46 -24.32,115.11 -24.95,173.68 -0.64,58.57 12.14,119.2 47.56,165.86 3.42,4.51 7.03,8.85 10.8,13.02"
         style="fill:#9c81c8;fill-opacity:1;fill-rule:nonzero;stroke:none"
         transform="matrix(0.13333333,0,0,-0.13333333,0,666.66667)" />
      <path
         id="path72"
         d="m 1471.56,1320.28 c -3.4,-4.07 -6.66,-8.2 -9.78,-12.4 -29.94,-40.32 -45.02,-89.47 -67.84,-134.21 -10.85,-21.28 -25.28,-43.13 -47.89,-50.83 -71.41,-24.32 -56.66,98.81 -11.67,118.25 21.97,9.47 39.7,9.63 55.84,27.78 15.95,17.93 24.91,46.76 38.79,66.95 19.28,28.03 41.38,52.86 56.89,83.47 20.7,40.86 34.28,85.16 48.29,128.65 11.98,37.17 9.04,77.03 39.71,105.49 5.31,4.93 11.66,9.48 18.91,9.71 12.27,0.39 21.2,-11.29 26.89,-22.17 24.11,-46.13 30.08,-99.44 48.15,-148.27 28.73,-77.67 77.58,-158.96 64.3,-245.35 -15.02,47 -66.07,71.78 -94.49,112.1 -13.39,19.01 -21.59,41.33 -35.38,60.05 -2.13,2.89 -4.64,5.86 -8.13,6.73 -5.08,1.27 -9.97,-2.33 -13.96,-5.72 -36.13,-30.71 -77.69,-63.04 -108.63,-100.23"
         style="fill:#040606;fill-opacity:1;fill-rule:nonzero;stroke:none"
         transform="matrix(0.13333333,0,0,-0.13333333,0,666.66667)"
         clip-path="url(#clipPath73)" />
      <path
         id="path74"
         d="m 2744.49,1930.59 c -64.7,13.33 -130.27,23.96 -196.42,25.6 -25.07,0.61 -49.61,5.7 -66.32,-14.61 -17.87,-21.71 -32.69,-46.72 -49.9,-69.11 -5.08,-6.61 -10.46,-13.4 -17.92,-17.13 -6.66,-3.33 -14.35,-3.89 -21.8,-3.72 -29.86,0.65 -59.35,12.35 -81.54,32.35 3.38,45.67 7.46,91.29 12.24,136.83 2.92,27.8 6.14,55.79 14.59,82.43 16.05,50.62 34.75,87.49 63.45,132.18 8.33,12.95 31.54,32.2 43.3,42.15 13.49,11.4 27.96,10.86 43.78,15.24 16.83,4.65 32.19,12.52 49.74,15.76 69.36,12.83 146.68,-18.4 186.69,-76.91 25.75,-37.66 37.22,-83.49 41.1,-128.93 4.97,-58.16 -11.68,-115.25 -20.99,-172.13"
         style="fill:#9b5130;fill-opacity:1;fill-rule:nonzero;stroke:none"
         transform="matrix(0.13333333,0,0,-0.13333333,0,666.66667)" />
      <path
         id="path75"
         d="m 2353.69,1894.54 c -1.08,92.05 -13.17,186.6 14.49,274.41 27.66,87.81 111.75,167.41 202.39,151.27 32.45,-5.78 61.72,-22.96 88.64,-41.99 94.06,-66.48 168.88,-159.85 213.27,-266.14 56.86,-136.19 63.08,-287.59 63.72,-435.18 0.68,-158.03 -2.65,-325.38 -105.46,-445.4 -34.75,-40.56 -86.99,-78.16 -139.38,-88.53 -63.59,-12.59 -128.82,9.21 -187.75,36.22 -82.69,37.87 -160.32,86.72 -230.4,144.69 -78.67,65.09 -71.3,84.52 -30.4,170.25 74.24,155.62 112.93,327.9 110.88,500.4"
         style="fill:#9b5130;fill-opacity:1;fill-rule:nonzero;stroke:none"
         transform="matrix(0.13333333,0,0,-0.13333333,0,666.66667)" />
      <path
         id="path76"
         d="m 2739.55,1842.21 c 51.8,10.39 98.74,36.81 144.73,62.82 45.98,25.99 92.99,52.33 144.82,62.53 16.85,3.31 38.53,14.67 49.11,28.19 16.62,21.24 -16,46.65 -38.77,61.1 -35,22.23 -66.47,19.74 -107.69,15.23 -49.6,-5.43 -98.68,-15.69 -146.31,-30.58 -71.44,-22.32 -133.46,-58.36 -165.56,-128.71 -34.94,-76.6 64.82,-81.57 119.67,-70.58"
         style="fill:#040606;fill-opacity:1;fill-rule:nonzero;stroke:none"
         transform="matrix(0.13333333,0,0,-0.13333333,0,666.66667)" />
      <path
         id="path77"
         d="m 1690.82,2062.79 c 17.32,-7.15 34.27,-15.86 51.35,-22.56 29.14,-11.44 175.9,-102.64 189.81,-108.5 l 481.9,-461.52 -38.93,-66.72 c -128.81,159.4 -387.17,344.01 -391.25,346.01 l -259.19,126.69 c -7.1,3.47 -12.25,9.98 -13.98,17.69 l -31.64,140.93 c -2.53,11.31 2.71,22.37 11.93,27.98"
         style="fill:#0a0c0d;fill-opacity:1;fill-rule:nonzero;stroke:none"
         transform="matrix(0.13333333,0,0,-0.13333333,0,666.66667)" />
      <path
         id="path78"
         d="m 2726.85,1604.18 c -7.48,29.74 -15.57,59.34 -24.24,88.77 -12.65,42.87 -30.11,84.75 -41.84,127.76 -8.65,31.68 -8.35,68.78 -27.83,96.89 -19.76,28.52 -55.93,49.65 -77.8,78.68 -24.99,33.14 -45.18,70.03 -57.06,109.91 -21.88,73.4 -13.11,158.13 34.01,218.51 24.66,31.61 55.17,32.23 88.43,47.8 33.29,15.58 51.96,17.38 90.05,6.28 73.23,-21.34 135.52,-72.59 180.33,-133.23 30.28,-80.74 85.02,-149.96 109.96,-236.14 25.53,-88.19 36.91,-182.54 53.89,-272.96 12.22,-65.06 24.49,-130.88 20.89,-196.98 -4.63,-85.01 -49.99,-193.7 -117.64,-248.56 -27.19,-22.05 -64.01,-34.72 -97.81,-25.64 -32.8,8.81 -57.78,36.59 -71.97,67.45 -14.19,30.86 -19.28,64.98 -24.97,98.47 -9.88,58.1 -22.03,115.83 -36.4,172.99"
         style="fill:#f25379;fill-opacity:1;fill-rule:nonzero;stroke:none"
         transform="matrix(0.13333333,0,0,-0.13333333,0,666.66667)" />
      <path
         id="path79"
         d="m 1733.87,1981.04 c 1.18,11.01 3.69,20.35 7.86,26.41 10.01,14.54 27.99,20.93 44.86,26.12 50.34,15.49 101.58,28.07 153.38,37.66 10.76,1.98 21.8,3.85 32.58,1.95 14.52,-2.56 26.97,-11.65 38.27,-21.13 36.94,-31 59.17,-74.57 95.44,-104.94 47.15,-39.48 105.56,-68.17 160.45,-95.04 67.38,-32.98 128.26,-67.44 199.11,-94.91 91.5,-37.53 187.89,-62.5 281.24,-95.34 55.28,-19.44 111.2,-39.21 160.01,-71.62 48.82,-32.41 90.58,-79.33 104.58,-136.23 14,-56.9 -5.06,-123.76 -54.3,-155.53 -53.97,-34.82 -49.05,-51.67 -109.47,-29.86 -71.85,25.94 -216.43,91.81 -284,127.44 -117.79,62.12 -233.99,127.25 -348.45,195.31 -104.6,62.19 -209.22,150.83 -320.11,198.17 -44.78,19.11 -120.49,48.36 -145.95,93.12 -10.98,19.31 -18.99,66.04 -15.5,98.42"
         style="fill:#f25379;fill-opacity:1;fill-rule:nonzero;stroke:none"
         transform="matrix(0.13333333,0,0,-0.13333333,0,666.66667)" />
      <path
         id="path80"
         d="m 1643,2618.7 -126.99,-121.62 c -1.06,-1.02 -1.58,-2.49 -1.39,-3.96 l 16.85,-129.71 c 0.29,-2.15 2.03,-3.83 4.2,-4.03 l 120.51,-10.84 c 2.8,-0.25 5.17,2.01 5.06,4.81 l -10.39,262.18 c -0.15,4 -4.96,5.94 -7.85,3.17"
         style="fill:#89319c;fill-opacity:1;fill-rule:nonzero;stroke:none"
         transform="matrix(0.13333333,0,0,-0.13333333,0,666.66667)" />
      <path
         id="path81"
         d="m 1834.86,2470.36 c -1,3.5 -3.85,6.14 -6.71,8.41 -15.72,12.46 -35.24,19.1 -54.72,23.93 -16.45,4.07 -33.19,6.94 -50.06,8.64 -9.44,0.96 -18.94,1 -28.43,1.05 -4.55,0.03 -9.11,0.04 -13.66,0.17 -3.47,0.1 -10.19,-2 -12.79,0.9 -3.01,3.36 -2.01,16.35 -2.37,20.84 -1.19,14.5 -1.86,29.04 -2.01,43.58 -0.12,13.22 0.05,27.05 -5.95,38.83 -7.19,-7.29 -14.17,-14.8 -20.92,-22.5 -5.64,-6.46 -11.95,-11.42 -18.15,-17.33 -9.74,-9.27 -19.75,-18.25 -29.48,-27.52 -18.31,-17.46 -44.9,-39.73 -62.18,-58.2 -4.99,-5.32 -2.53,-7.43 -0.87,-14.25 0.77,-3.17 5.79,-4.31 6.21,-7.55 1.09,-8.43 2.18,-16.85 3.28,-25.28 2.61,-20.05 5.21,-40.11 7.82,-60.17 1.49,-11.51 2.99,-23.03 4.49,-34.55 47.28,18.86 94.57,37.73 141.85,56.59 30.53,12.18 61.05,24.36 91.58,36.54 8.04,3.2 56.2,16.95 53.07,27.87"
         style="fill:#ffffff;fill-opacity:1;fill-rule:nonzero;stroke:none"
         transform="matrix(0.13333333,0,0,-0.13333333,0,666.66667)" />
      <path
         id="path82"
         d="m 1545.55,2478.64 296.98,-5.18 82.88,-612.95 -293.53,1.73 -86.33,616.4"
         style="fill:#89319c;fill-opacity:1;fill-rule:nonzero;stroke:none"
         transform="matrix(0.13333333,0,0,-0.13333333,0,666.66667)" />
      <path
         id="path83"
         d="m 1520.19,2498.01 c 12.34,-13.39 27.34,-20.45 45.53,-19.96 1.75,0.05 3.29,-1.18 3.49,-2.94 l 68.97,-610.88 c 0.28,-2.5 -2.17,-4.44 -4.54,-3.58 l -54.99,19.85 c -1.23,0.45 -2.1,1.56 -2.24,2.87 l -62.09,612.08 c -0.33,3.27 3.65,4.98 5.87,2.56"
         style="fill:#040606;fill-opacity:1;fill-rule:nonzero;stroke:none"
         transform="matrix(0.13333333,0,0,-0.13333333,0,666.66667)" />
      <path
         id="path84"
         d="m 1675.91,2515.28 c -39.71,0.37 -79.47,-6.87 -116.5,-21.21"
         style="fill:none;stroke:#040606;stroke-width:10;stroke-linecap:round;stroke-linejoin:round;stroke-miterlimit:10;stroke-dasharray:none;stroke-opacity:1"
         transform="matrix(0.13333333,0,0,-0.13333333,0,666.66667)" />
      <path
         id="path85"
         d="m 1514.99,2110.65 c -37.12,-7.1 -72.81,-22.24 -103.55,-43.96 -31.5,-22.27 -50.61,-52.81 -77.03,-79.45 -29,-29.25 -65.31,-51.37 -92.02,-83.38 -30.15,-36.12 -50.68,-86.59 -73.41,-127.68 l -320.933,-580.3 c -5.399,-9.76 -1.086,-22.04 9.258,-26.21 45.781,-18.44 155.745,-67.49 174.195,-71.95 61.54,-14.86 119.9,-27.12 176.64,-52.02 24.55,-10.77 53.37,-4.74 70.99,15.46 27.06,30.99 49.74,62.96 67.22,102.15 23.75,53.23 52.4,104.23 88.74,149.79 53.51,67.09 93.88,136.12 135.55,210.68 28.83,51.61 54.85,-60.46 67.8,-81.69 36.46,-59.75 87.46,-114.91 133.28,-167.57 192.49,-221.3 554.66,-495.25 869.05,-386.071 98.88,34.34 214.94,133.251 224.79,245.471 8.49,96.81 -166.62,144.83 -247.95,201.02 -41.35,28.56 -81.93,58.2 -122.93,87.26 -20.63,14.62 -41.36,29.13 -62.32,43.27 -6.09,4.1 -57.98,32.87 -57.51,37.37 -1.42,-13.84 -15.38,-25.12 -29.23,-23.6 -21.19,2.34 -19.76,23.18 -29.69,36.28 -16.89,22.27 -39.8,41.95 -59.53,61.7 -153.05,153.26 -304.39,305.15 -476.78,439.43 -45.13,35.14 -91.79,70.51 -146.3,87.85 -38.25,12.18 -79.09,13.65 -118.33,6.15"
         style="fill:#9c81c8;fill-opacity:1;fill-rule:nonzero;stroke:none"
         transform="matrix(0.13333333,0,0,-0.13333333,0,666.66667)" />
      <path
         id="path86"
         d="m 1720.04,1484.75 c -1.65,0.2 0.85,3.04 1.26,1.42 31.32,-125.33 126.14,-224.4 225.18,-307.34"
         style="fill:none;stroke:#040606;stroke-width:10;stroke-linecap:round;stroke-linejoin:round;stroke-miterlimit:10;stroke-dasharray:none;stroke-opacity:1"
         transform="matrix(0.13333333,0,0,-0.13333333,0,666.66667)" />
      <path
         id="path87"
         d="m 2515.48,2688.36 c -13.53,20.85 -12.27,-10.9 -32.18,3.75 -82.25,60.51 -202.01,101.36 -270.86,2.55 -25.48,-36.57 -32.99,-83.69 -26.81,-127.82 6.18,-44.14 25.1,-85.64 48.55,-123.53 15.83,-25.58 34.43,-50.41 59.9,-66.39 49.5,-31.05 86.06,-7.71 126.69,23.05 4.72,3.58 56.74,-106.86 60.62,-116.97 12.56,-32.75 32.62,-62.92 -3.27,-91.26 88.74,21.44 174.37,55.69 253.43,101.35 -27.25,6.96 -43.98,33.72 -56.87,58.72 -51.64,100.15 -87.06,208.21 -141.56,306.83 -5.55,10.04 -11.36,20.05 -17.64,29.72"
         style="fill:#f25379;fill-opacity:1;fill-rule:nonzero;stroke:none"
         transform="matrix(0.13333333,0,0,-0.13333333,0,666.66667)" />
      <path
         id="path88"
         d="m 2671.71,2393.58 c 43.88,-0.59 86.56,-15.75 124.96,-36.98 19.35,-10.7 37.84,-22.95 55.36,-36.44 51.78,-39.85 94.62,-90.05 132.03,-143.32 19.08,-27.18 36.84,-55.27 53.91,-83.75 8.53,-14.24 16.88,-28.57 25.15,-42.96 4.11,-7.16 8.2,-14.33 12.28,-21.51 1.66,-2.93 3.42,-5.76 4.98,-8.71 0.85,-1.6 1.69,-3.07 2.13,-4.85 0.2,-0.82 0.01,-3.84 0.43,-4.32 -3.5,4.04 -7.18,7.92 -11.05,11.61 -3.2,3.07 -6.54,6.03 -10.28,8.4 -5.26,3.35 -10.45,5.61 -16.61,6.37 -21.13,2.57 -42.72,4.39 -63.6,0.24 -14.76,-2.92 -28.76,-8.75 -43.08,-13.36 -13.26,-4.27 -27.01,-6.57 -40.29,-10.59 -11.21,-3.38 -22.62,-8.14 -33.72,-12.24 -25.49,-9.43 -50.29,-20.62 -74.51,-32.91 -90.68,-46.03 -177.09,-104.98 -276.55,-126.15 -43.11,92.65 -73.22,191.34 -89.15,292.29 -9.94,62.97 -4.64,115.89 41.7,160.47 55.42,53.3 126.23,99.78 205.91,98.71"
         style="fill:#9b5130;fill-opacity:1;fill-rule:nonzero;stroke:none"
         transform="matrix(0.13333333,0,0,-0.13333333,0,666.66667)" />
      <path
         id="path89"
         d="m 1344.91,1986.51 c -17.13,-71.47 -34.25,-142.95 -51.37,-214.42"
         style="fill:none;stroke:#040606;stroke-width:10;stroke-linecap:round;stroke-linejoin:round;stroke-miterlimit:10;stroke-dasharray:none;stroke-opacity:1"
         transform="matrix(0.13333333,0,0,-0.13333333,0,666.66667)" />
      <path
         id="path90"
         d="m 2452.22,1334.08 c -0.8,10.58 -4.64,22.99 -7.19,28.12 -7.42,14.98 -19.21,27.26 -29.26,40.63 -18.18,24.15 -28.41,50.62 -36.41,79.45 -5.03,18.11 -6.96,17.36 -24.02,26.94 -15.94,8.95 -31.76,18.06 -47.89,26.67 4.75,-26.43 9.59,-53.07 18.94,-78.33 10.11,-27.31 25.92,-40.37 46.22,-60.56 8.55,-8.51 17.16,-17.08 23.91,-27.08 11.28,-16.72 17.88,-37.91 34.98,-48.62 17.79,-11.14 21.72,-0.66 20.72,12.78"
         style="fill:#040606;fill-opacity:1;fill-rule:nonzero;stroke:none"
         transform="matrix(0.13333333,0,0,-0.13333333,0,666.66667)" />
      <path
         id="path91"
         d="m 2621.23,1869.15 c -44.77,86.11 -18.99,138.12 -65.61,222.73"
         style="fill:none;stroke:#040606;stroke-width:10;stroke-linecap:round;stroke-linejoin:round;stroke-miterlimit:10;stroke-dasharray:none;stroke-opacity:1"
         transform="matrix(0.13333333,0,0,-0.13333333,0,666.66667)" />
      <path
         id="path92"
         d="m 2609.69,2532.79 c -6.15,47.7 -17.86,94.63 -34.19,139.85 -4.74,13.13 -10.14,26.53 -20.02,36.39 -9.88,9.86 -25.41,15.35 -38.18,9.7 -4,14.12 -2.44,29.14 -3.62,43.77 -1.17,14.64 -6.15,30.44 -18.73,37.99 -8.92,5.36 -20.79,5.37 -29.72,0.03 -8.93,-5.34 -14.54,-15.81 -14.04,-26.2 0.24,22.38 -5.1,44.74 -29.1,48.79 -21.16,3.57 -45.14,-3.87 -52.75,-26.21 -12.69,16.71 -34.99,22.66 -55.83,25.13 -33.3,3.93 -68.72,1.23 -97.46,-16.05 -8.93,-5.36 -17.21,-12.22 -22.52,-21.18 -8.41,-14.21 -8.29,-31.42 -6.69,-48.12 -6.89,-0.24 -13.78,-1.65 -20,-3.79 -14.22,-4.89 -24.88,-13.99 -30.89,-27.85 -3.34,-7.71 -7.34,-15.93 -7.3,-24.54 0.03,-7.94 3.29,-15.56 7.95,-21.86 3.39,-4.57 7.33,-8.73 12.09,-11.84 -3.34,-21.68 -2.01,-42.56 18.21,-56.87 22.03,-15.6 50.9,-22.39 77.7,-22.25 40.5,0.21 80.06,9.9 117.46,24.95 15.31,-13.39 33.27,-16.57 51.19,-24.97 36.11,-16.94 54.11,-60.1 95.69,-76.84 9.42,-3.79 19.35,-6.55 29.44,-8.08 22.27,-3.39 63.53,-3.85 71.04,23.79 2.32,8.5 1.39,17.52 0.27,26.26"
         style="fill:#040606;fill-opacity:1;fill-rule:nonzero;stroke:none"
         transform="matrix(0.13333333,0,0,-0.13333333,0,666.66667)" />
      <path
         id="path93"
         d="m 2449.76,2383.34 c -0.46,-2.55 -0.91,-5.1 -1.55,-7.59 -2.04,-7.99 -6.08,-15.45 -11.65,-21.53 -3.17,-3.46 -7.12,-6.61 -11.78,-7.13 -4.71,-0.55 -9.42,1.74 -12.77,5.09 -10.51,10.48 -7.09,25.52 0.76,36.77 6.96,9.98 13.95,19.99 22.13,29 5.91,6.51 12.6,12.74 15.73,20.96 0.5,1.29 1.14,2.83 2.5,3.05 0.94,0.15 1.82,-0.43 2.53,-1.05 9.18,-7.99 10.45,-24.21 4.48,-34.3 -1.88,-3.19 -4.4,-5.97 -6.18,-9.21 -2.37,-4.32 -3.31,-9.18 -4.2,-14.06"
         style="fill:#040606;fill-opacity:1;fill-rule:nonzero;stroke:none"
         transform="matrix(0.13333333,0,0,-0.13333333,0,666.66667)"
         clip-path="url(#clipPath94)" />
      <path
         id="path95"
         d="m 2420.97,2591.95 c 23.15,2.31 47.2,-12.56 54.59,-34.62 7.38,-22.06 -3.49,-48.99 -24.54,-58.92 -20.34,-9.59 -47.02,-1.87 -59.73,16.69 -18.52,27.06 -5.64,73.31 29.68,76.85"
         style="fill:#f25379;fill-opacity:1;fill-rule:nonzero;stroke:none"
         transform="matrix(0.13333333,0,0,-0.13333333,0,666.66667)" />
      <path
         id="path96"
         d="m 2430.58,2572.46 c -21.76,-2.41 -35.06,-41.11 -19.35,-55.61"
         style="fill:none;stroke:#040606;stroke-width:10;stroke-linecap:round;stroke-linejoin:round;stroke-miterlimit:10;stroke-dasharray:none;stroke-opacity:1"
         transform="matrix(0.13333333,0,0,-0.13333333,0,666.66667)" />
      <path
         id="path97"
         d="m 2700.13,1668.31 c 13.34,0.01 25.46,-8.29 33.99,-18.55 8.53,-10.24 14.26,-22.48 21.12,-33.9 15.91,-26.47 38.34,-48.98 64.75,-64.97"
         style="fill:none;stroke:#040606;stroke-width:10;stroke-linecap:round;stroke-linejoin:round;stroke-miterlimit:10;stroke-dasharray:none;stroke-opacity:1"
         transform="matrix(0.13333333,0,0,-0.13333333,0,666.66667)" />
      <path
         id="path98"
         d="m 2942.95,1358.89 c -14.6,-24.72 -47.16,-37.17 -74.54,-28.51"
         style="fill:none;stroke:#040606;stroke-width:10;stroke-linecap:round;stroke-linejoin:round;stroke-miterlimit:10;stroke-dasharray:none;stroke-opacity:1"
         transform="matrix(0.13333333,0,0,-0.13333333,0,666.66667)" />
      <path
         id="path99"
         d="m 1135.19,1715.79 c 30.17,88.8 84.86,141.81 118.89,254.37 9.07,29.98 33.81,53.22 56.9,74.39 54.11,49.61 131.61,64.04 204.96,66.94 25.32,1 52.05,1.25 73.83,14.21"
         style="fill:none;stroke:#040606;stroke-width:10;stroke-linecap:round;stroke-linejoin:round;stroke-miterlimit:10;stroke-dasharray:none;stroke-opacity:1"
         transform="matrix(0.13333333,0,0,-0.13333333,0,666.66667)" />
      <path
         id="path100"
         d="m 2159.61,2648.36 c 7.22,-8.52 16.33,-15.82 27.03,-18.99 10.72,-3.16 23.17,-1.64 31.64,5.64 8.98,7.73 12.07,20.22 13.48,31.99 10.35,-14.97 31.04,-22.96 47.88,-16.07 16.84,6.89 25.8,29.84 15.87,45.09"
         style="fill:none;stroke:#663fa2;stroke-width:10;stroke-linecap:round;stroke-linejoin:round;stroke-miterlimit:10;stroke-dasharray:none;stroke-opacity:1"
         transform="matrix(0.13333333,0,0,-0.13333333,0,666.66667)" />
      <path
         id="path101"
         d="m 2414.51,2693.54 c 6.69,9.39 18.94,13.36 30.47,13.48 5.53,0.06 11.31,-0.72 15.86,-3.86 6.54,-4.51 9.22,-13.13 8.69,-21.06 -0.54,-7.93 -3.77,-15.4 -6.96,-22.68 8.14,8.44 24,5.81 30.29,-4.08 6.29,-9.89 3.12,-24.08 -5.77,-31.73"
         style="fill:none;stroke:#663fa2;stroke-width:10;stroke-linecap:round;stroke-linejoin:round;stroke-miterlimit:10;stroke-dasharray:none;stroke-opacity:1"
         transform="matrix(0.13333333,0,0,-0.13333333,0,666.66667)" />
      <path
         id="path102"
         d="m 2286.62,2414.65 c 23.63,-2.9 48.45,8.7 61.39,28.68"
         style="fill:none;stroke:#040606;stroke-width:10;stroke-linecap:round;stroke-linejoin:round;stroke-miterlimit:10;stroke-dasharray:none;stroke-opacity:1"
         transform="matrix(0.13333333,0,0,-0.13333333,0,666.66667)" />
      <path
         id="path103"
         d="m 1583.11,1483.68 c 0.42,70.74 -6.48,168.35 -12.96,275.83"
         style="fill:none;stroke:#040606;stroke-width:10;stroke-linecap:butt;stroke-linejoin:miter;stroke-miterlimit:10;stroke-dasharray:none;stroke-opacity:1"
         transform="matrix(0.13333333,0,0,-0.13333333,0,666.66667)" />
      <path
         id="path104"
         d="m 2355.34,1846.7 c -1.2,55.36 3.23,131.56 10,186.52"
         style="fill:none;stroke:#040606;stroke-width:10;stroke-linecap:butt;stroke-linejoin:miter;stroke-miterlimit:10;stroke-dasharray:none;stroke-opacity:1"
         transform="matrix(0.13333333,0,0,-0.13333333,0,666.66667)" />
      <path
         id="path105"
         d="M 5952.93,793.102 5721.86,1804.19 5402.29,1839.29 5171.22,793.102"
         style="fill:none;stroke:#040606;stroke-width:20;stroke-linecap:round;stroke-linejoin:round;stroke-miterlimit:10;stroke-dasharray:none;stroke-opacity:1"
         transform="matrix(0.13333333,0,0,-0.13333333,0,666.66667)" />
      <path
         id="path106"
         d="m 6083.22,793.102 -231.07,940.878 -319.57,35.1 -231.07,-975.978"
         style="fill:none;stroke:#040606;stroke-width:20;stroke-linecap:round;stroke-linejoin:round;stroke-miterlimit:10;stroke-dasharray:none;stroke-opacity:1"
         transform="matrix(0.13333333,0,0,-0.13333333,0,666.66667)" />
      <path
         id="path107"
         d="m 5669.28,1485.91 c 85.86,16.5 170.53,39.21 253.08,68.04 192.08,67.07 346.83,268.77 408.04,457.24 64.31,198 87.71,448.83 53.48,653.62 -22.04,131.92 -97.54,266.3 -224.31,308.97 -91.2,30.7 -191.56,8.93 -282.4,-22.84 -122.46,-42.82 -191.89,-102.94 -245.37,-219.51 -57.32,-124.93 -99.44,-257.18 -171.14,-375.19 -100.83,-165.95 -258.55,-296.6 -440.37,-364.79 -119.48,-44.8 -352.8,-76.76 -306.46,-252.89 50.42,-191.65 252.46,-257.43 430.24,-275.77 174.94,-18.04 352.5,-10.04 525.21,23.12"
         style="fill:#97ce74;fill-opacity:1;fill-rule:nonzero;stroke:none"
         transform="matrix(0.13333333,0,0,-0.13333333,0,666.66667)" />
      <path
         id="path108"
         d="m 4248.48,1519.19 c -5.94,-33.69 -12.37,-67.16 -20.25,-100.04 -31.02,-129.59 -69.03,-311.39 -97.17,-442.119 39.16,-24.562 51.59,-36.422 90.75,-60.98 17.14,-10.75 36.41,-22.09 54.37,-20.481 14.52,1.309 24.62,10.891 33.28,20.461 50.29,55.571 83.36,127.449 121.71,191.559 42.45,70.96 83.33,143.15 115.05,220.38 20.23,49.25 34.87,101.13 47.29,153.94 l -345.03,37.28"
         style="fill:#f25379;fill-opacity:1;fill-rule:nonzero;stroke:none"
         transform="matrix(0.13333333,0,0,-0.13333333,0,666.66667)" />
      <path
         id="path109"
         d="m 4327.34,850.922 c 0.57,1.519 1.1,3.058 1.59,4.578 15.7,47.66 42.85,90.191 55.16,138.391 -84.39,7.429 -167.75,26.589 -246.93,56.749 -12.82,-18.66 -38.21,-22.55 -60.64,-25.57 -69.48,-9.4 -137.96,-26.25 -203.87,-50.199 -40.39,-14.672 -89.07,-37.84 -109,-78.582 -24.36,-49.777 2.69,-55.457 41.42,-54.918 62.19,0.891 124.47,0 186.67,0 110.3,0 225.3,9.551 335.6,9.551"
         style="fill:#171717;fill-opacity:1;fill-rule:nonzero;stroke:none"
         transform="matrix(0.13333333,0,0,-0.13333333,0,666.66667)" />
      <path
         id="path110"
         d="m 5000.68,1928.61 c 1.55,0.74 3.12,1.47 4.68,2.2 112.93,52.38 240.89,57.87 364.27,74.43 123.38,16.57 252.97,49.33 338.01,140.24 32.68,34.93 57.87,79.29 59.83,127.09 2.8,68.26 -43.22,131.6 -102.1,166.26 -58.89,34.66 -128.73,45.22 -196.92,49.46 -172.92,10.76 -345.79,-14.68 -517.51,-37.58 -163.59,-21.82 -341.62,-48.31 -454.48,-168.7 -51.14,-54.55 -83.66,-123.72 -111.36,-193.17 -89.71,-224.85 -137.68,-465.34 -237.36,-685.96 80.54,-21.17 162.01,-38.82 244.09,-52.88 41.05,-7.03 82.24,-13.17 123.55,-18.4 35.47,-4.49 89.37,-20.4 124.32,-13.11 53.33,11.14 55.22,105.28 67.01,151.92 19.16,75.89 34.73,153.62 67.16,225.32 45.54,100.73 126.96,185.16 226.81,232.88"
         style="fill:#5d71c0;fill-opacity:1;fill-rule:nonzero;stroke:none"
         transform="matrix(0.13333333,0,0,-0.13333333,0,666.66667)" />
      <path
         id="path111"
         d="m 4628.76,1463.78 c -39.04,-116.81 -68.92,-236.67 -89.31,-358.14 -5.39,-32.12 -10.12,-64.35 -14.18,-96.68 -2.39,-19.038 -15.53,-53.378 -13.36,-71.249 4.15,-34.219 52.7,-55.961 81.98,-74.32 17.15,-10.762 36.41,-22.09 54.38,-20.481 14.52,1.309 24.62,10.891 33.28,20.461 121.5,134.25 227.11,441.999 269.75,613.829 11.7,47.11 -41.37,2.35 -48.55,50.35 -7.19,48 -37.44,95.79 -84.14,109.03 -44.86,12.72 -93.9,-9.61 -125.18,-44.21 -31.27,-34.59 -48.16,-79.54 -63.04,-123.74 -0.55,-1.62 -1.08,-3.23 -1.63,-4.85"
         style="fill:#f25379;fill-opacity:1;fill-rule:nonzero;stroke:none"
         transform="matrix(0.13333333,0,0,-0.13333333,0,666.66667)" />
      <path
         id="path112"
         d="m 4687.13,785.691 c 0.86,2.079 8.01,12.45 8.71,14.559 15.05,45.699 30.1,91.41 45.14,137.109 -20.77,-0.738 -41.53,-1.488 -62.29,-2.23 -19.68,-0.699 -37.4,4.48 -56.56,9.121 -20.04,4.871 -39.97,10.148 -59.79,15.859 -6.86,1.981 -52.13,20.692 -56.17,17.403 -2.36,-1.922 -4.96,-3.68 -7.94,-5.153 -9.02,-4.48 -19.08,-6.347 -28.98,-8.168 -34.87,-6.41 -69.72,-12.82 -104.58,-19.222 -44.43,-8.168 -89.37,-16.5 -130.54,-35.071 -30.06,-13.558 -124.07,-85.718 -87,-124.207 h 540"
         style="fill:#171717;fill-opacity:1;fill-rule:nonzero;stroke:none"
         transform="matrix(0.13333333,0,0,-0.13333333,0,666.66667)" />
      <path
         id="path113"
         d="m 5034.04,1441.09 c 38.05,173.22 76.1,346.44 114.13,519.65 7.5,34.12 149.77,-20.35 171.36,-28.98 38.58,-15.42 71.82,-36.57 113.64,-46.66 119.4,-28.78 236.83,34.55 310.74,129.46 63.79,81.89 94.98,186.17 99.49,289.88 1.18,27.2 0.48,55.22 -9.86,80.4 -25.73,62.74 -100.2,87.76 -166.7,101.02 -91.16,18.16 -183.78,27.97 -276.42,35.48 -176.76,14.31 -368.66,16.3 -513.88,-85.48 -103.65,-72.66 -140.39,-171.17 -174.05,-286.34 -39.43,-134.88 -87.04,-264.01 -115.82,-402.42 -12.75,-61.28 -12.64,-126.77 -18.88,-188.93 -9.07,-90.26 -31.45,-172.8 -49.17,-261.46 155.83,-30.01 314.29,-46.4 472.96,-48.92 14.15,64.43 28.3,128.87 42.46,193.3"
         style="fill:#5d71c0;fill-opacity:1;fill-rule:nonzero;stroke:none"
         transform="matrix(0.13333333,0,0,-0.13333333,0,666.66667)" />
      <path
         id="path114"
         d="m 5694.9,3605.25 c -0.79,8.19 -3.8,14.43 -10.6,21.26 -8.11,8.15 -23.91,12.76 -25.52,25.85 -3.49,28.2 45.49,49.4 65.41,56.68 62.88,22.97 131.86,36.74 196.76,20.32 44.23,-11.2 85.82,-38.83 110.36,-77.69 11.65,-18.46 15.35,-39.32 24.63,-58.4 12.09,-24.86 26.21,-49.32 38.77,-74.1 32.79,-64.67 65.65,-129.45 104.52,-190.65 14.34,-22.6 29.61,-44.89 39.66,-69.69 10.06,-24.81 14.61,-52.88 6.72,-78.47 -8.78,-28.47 -31.68,-50.39 -56.1,-67.47 -91.08,-63.7 -216.51,-74.57 -317.2,-27.5 -23.78,11.11 -38.97,24.85 -54.96,44.84 -16.36,20.45 -39.74,33.79 -59.02,51.43 -3.77,3.44 -7.6,6.97 -10.02,11.47 -2.99,5.54 -3.56,12.04 -3.87,18.33 -0.89,18.02 -0.14,36.12 2.21,54.01 2.77,21.05 7.78,42.05 6.5,63.24 -2.16,35.93 11.96,65.36 -8.1,98.01 -16.45,26.74 -43,47.17 -52.99,77.81 -10.49,32.13 2.45,62.43 3.05,94.57 0.03,2.18 -0.03,4.22 -0.21,6.15"
         style="fill:#040606;fill-opacity:1;fill-rule:nonzero;stroke:none"
         transform="matrix(0.13333333,0,0,-0.13333333,0,666.66667)" />
      <path
         id="path115"
         d="m 4890.47,2597.54 c 76.36,0.24 152.68,4.91 228.62,12.88 64.13,6.73 144.2,4.72 198.94,41.09 102.38,68 172.93,183.85 186.34,305.98 4.09,37.22 2.95,76.13 -12.35,110.31 -22.31,49.78 -72.59,83.04 -125.62,95.85 -53.01,12.81 -108.77,7.62 -162.39,-2.38 -110.55,-20.59 -217.32,-61.4 -313.44,-119.8 -102.07,-62.02 -149.74,-131.77 -184.26,-245.06 -16.64,-54.62 -24.71,-105.99 18.6,-147.37 46.65,-44.57 102.93,-51.69 165.56,-51.5"
         style="fill:#f25379;fill-opacity:1;fill-rule:nonzero;stroke:none"
         transform="matrix(0.13333333,0,0,-0.13333333,0,666.66667)" />
      <path
         id="path116"
         d="m 5606.59,3221.45 c 0.46,-1.93 0.49,-3.95 0.24,-5.92 -1.14,0.41 -2.31,0.74 -3.5,1.05 l 3.26,4.87"
         style="fill:#4f369a;fill-opacity:1;fill-rule:nonzero;stroke:none"
         transform="matrix(0.13333333,0,0,-0.13333333,0,666.66667)" />
      <path
         id="path117"
         d="m 5598.61,2932.52 c 27.18,42.82 46.02,89.66 55.73,139.37 8.32,42.59 62.84,78.45 93.27,108.6 1.52,1.5 3.16,3.33 2.93,5.45 -0.23,2.04 -2.08,3.44 -3.75,4.6 -19.51,13.43 -39.01,26.86 -58.51,40.29 -11.5,7.92 -23.16,15.92 -36.28,20.73 -21.47,7.87 -45.08,6.59 -67.89,5.06 -169.29,-11.38 -340.75,-31.62 -497.13,-97.44 -4.8,-2.02 -9.85,-4.31 -12.7,-8.66 -3.35,-5.13 -2.81,-11.79 -2.03,-17.87 14.33,-110.38 66.82,-211.83 122.46,-308.23 10.53,-18.25 21.34,-36.59 35.76,-51.97 20.69,-22.08 37.88,-39.16 68.85,-39.51 63.92,-0.71 123.21,38.81 175.08,72.87 50.48,33.14 91.87,75.73 124.21,126.71"
         style="fill:#e9a872;fill-opacity:1;fill-rule:nonzero;stroke:none"
         transform="matrix(0.13333333,0,0,-0.13333333,0,666.66667)" />
      <path
         id="path118"
         d="m 5382.4,2504.45 c 12.02,-28.42 34.91,-53.85 57.6,-72.46 69.57,-57.11 159.38,-81.93 246.31,-105.31 90.82,-24.43 182.49,-48.99 276.42,-53.62 168.71,-8.33 130.07,312.36 130.94,429.79 0.79,108.68 -5.95,220.74 -52.71,318.85 -64.19,134.66 -220.74,241.47 -372.25,228.31 -62.2,-5.41 -128.38,-66.26 -173.68,-109.39 -33.44,-31.84 -53.85,-75.04 -68.27,-118.91 -15.28,-46.48 -24.66,-94.89 -27.85,-143.72 -2.17,-33.23 -1.48,-66.57 -1.91,-99.87 -0.63,-49.57 -3.76,-99.09 -9.33,-148.35 -4.7,-41.56 -22.32,-85.02 -5.27,-125.32"
         style="fill:#e9a872;fill-opacity:1;fill-rule:nonzero;stroke:none"
         transform="matrix(0.13333333,0,0,-0.13333333,0,666.66667)" />
      <path
         id="path119"
         d="m 5554.92,2324.31 c -158.38,-74.51 -272.2,-213.84 -304.45,-372.72 -15.83,-77.96 -15.86,-158.48 4.86,-235.54 15.7,-58.42 51.47,-173.99 119.3,-190.19 25.69,-6.14 52.58,-1.85 78.64,2.46 28.74,4.74 57.48,9.5 86.22,14.25 45.64,7.53 95.55,15.89 131.17,47.76 33.63,30.09 56.23,44.49 100.32,61.9 133.75,52.85 275.45,111.83 356.77,230.45 37.6,54.85 59.5,119 94.75,175.38 28.35,45.36 65.14,85.42 89.38,133.11 15.51,30.51 25.75,66.06 22.8,100.56 -4.15,48.73 -20.21,51.99 -63.9,60.64 -81.99,16.24 -164.65,29.77 -247.99,36.78 -157.93,13.29 -322.49,3.55 -467.87,-64.84"
         style="fill:#97ce74;fill-opacity:1;fill-rule:nonzero;stroke:none"
         transform="matrix(0.13333333,0,0,-0.13333333,0,666.66667)" />
      <path
         id="path120"
         d="m 6299.67,2460.32 c -52.84,-110.61 -163.47,-266.79 -284.72,-193.81 -53.33,32.1 -64.45,104.24 -62.39,166.45 3.66,110.57 31.04,218.82 58.28,326.06 15.54,61.22 32.63,157.67 86.81,197.19 61.6,44.94 190.56,49.72 236.44,-20.7 22.04,-33.83 27,-75.78 28.98,-116.1 5.15,-104.35 -5.95,-210.41 -41.9,-308.51 -5.39,-14.71 -12.63,-32 -21.5,-50.58"
         style="fill:#f25379;fill-opacity:1;fill-rule:nonzero;stroke:none"
         transform="matrix(0.13333333,0,0,-0.13333333,0,666.66667)" />
      <path
         id="path121"
         d="m 5695.83,3207.26 c -0.81,18.16 -1.02,36.46 -0.08,55.01 103.24,4.49 207.16,-9.09 306,-39.14 87.62,-26.64 172.85,-41.31 242.4,-106 133.09,-123.81 186.48,-326.52 131.64,-499.83 -144.31,31.13 -291.21,50.23 -438.68,57.03 31.34,-1.44 -17.45,125.08 -23.52,134.59 -27.48,43.13 -71.27,63.69 -117.31,84.34 -20.56,9.22 -77.47,17.81 -91.29,32.99 -19.01,20.89 -6.27,46.84 -2.76,76.27 8.34,69.97 -3.35,136.35 -6.4,204.74"
         style="fill:#e9a872;fill-opacity:1;fill-rule:nonzero;stroke:none"
         transform="matrix(0.13333333,0,0,-0.13333333,0,666.66667)" />
      <path
         id="path122"
         d="m 5662.91,3378.29 c 2.88,-3.53 6.1,-6.78 9.66,-9.65 8.23,-6.64 27.98,-9.5 28.53,-22.48 0.53,-12.65 1.05,-25.33 1.33,-38 0.59,-26.16 -16.13,-46.78 -42.47,-51.4 -4.99,-0.87 -10.09,-1.06 -15.14,-1.5 4.71,0.69 17.81,-10.34 21.31,-13.3 6.1,-5.17 11.66,-10.54 18.42,-14.94 12.98,-8.44 27.56,-14.13 42.61,-17.6 30.69,-7.08 62.94,-5.37 93.81,-0.48 22.04,3.49 45.88,7.08 66.88,14.92 10.57,3.95 20.7,8.39 22.55,17.97 2.03,10.56 -4.85,28.82 -6.01,39.88 -5.46,52.47 -2.35,105.34 1.04,157.83 2.24,34.77 4.72,69.56 5.08,104.42 0.25,25.71 7.26,66.81 -15.71,83.83 -20.46,15.16 -45.85,27.8 -71.26,31.51 -23.76,3.47 -46.93,9.94 -71.39,8.67 -20.26,-1.06 -41.13,-5.16 -57.47,-17.17 -20.8,-15.28 -26.96,14.64 -34.38,-10.08 -17.35,-57.73 -28.28,-174.66 -12.2,-233.27 2.88,-10.5 7.86,-20.66 14.81,-29.16"
         style="fill:#f25379;fill-opacity:1;fill-rule:nonzero;stroke:none"
         transform="matrix(0.13333333,0,0,-0.13333333,0,666.66667)" />
      <path
         id="path123"
         d="m 5882.56,3727.47 c 79.37,-33.13 55.64,-143.68 40.37,-204.35 -2.04,-8.09 -4.46,-16.78 -10.97,-21.99 -10.51,-8.38 -27.15,-3.2 -35.54,7.3 -8.38,10.51 -10.68,24.48 -12.68,37.77 -2.55,16.83 -7.77,34.85 -5.78,51.81 -10,-6.25 -20.75,-12.12 -32.06,-15.89 -25.33,-8.44 -31.67,23.94 -13.42,36.11 -44.79,-29.86 -96.75,-48.88 -150.24,-55 -20.87,-2.38 -47.01,0.13 -55.37,19.41 -5.22,12.04 -0.95,26.06 4.96,37.79 18.43,36.56 52.05,63.89 89.26,81 1.36,0.63 2.72,1.24 4.08,1.83 36.1,15.85 75.41,23.2 114.57,28.03 21.07,2.59 43.23,4.35 62.82,-3.82"
         style="fill:#040606;fill-opacity:1;fill-rule:nonzero;stroke:none"
         transform="matrix(0.13333333,0,0,-0.13333333,0,666.66667)" />
      <path
         id="path124"
         d="m 5917.14,3463.65 c -43.84,-14.35 -64.16,35.66 -43.71,60.27 8.57,10.32 24.81,16 39.88,13.97 15.08,-2.03 28.17,-11.67 32.18,-23.67 1.84,-5.55 1.87,-11.41 0.98,-17.1 -2.1,-13.46 -13.25,-28.2 -29.33,-33.47"
         style="fill:#f25379;fill-opacity:1;fill-rule:nonzero;stroke:none"
         transform="matrix(0.13333333,0,0,-0.13333333,0,666.66667)" />
      <path
         id="path125"
         d="m 5751.34,3353.75 c -0.82,0.45 -1.97,0.43 -2.95,0.33 -21.1,-1.97 -44.67,-3.65 -64.17,6.55 -10.83,5.67 -10.35,-11.19 -9.5,-17.81 0.85,-6.53 3.16,-13.28 8.29,-17.42 7.33,-5.91 19.16,-5.42 27.07,-0.37 5.46,3.47 8.44,10.67 14.69,12.31 4.12,1.08 8.42,-0.64 12.68,-0.7 7.9,-0.1 15.55,6.93 15.04,14.81 -0.04,0.58 -0.12,1.18 -0.45,1.66 -0.19,0.28 -0.42,0.49 -0.7,0.64"
         style="fill:#171717;fill-opacity:1;fill-rule:nonzero;stroke:none"
         transform="matrix(0.13333333,0,0,-0.13333333,0,666.66667)"
         clip-path="url(#clipPath126)" />
      <path
         id="path127"
         d="m 5636.52,3268.71 c 38.95,-51.63 110.29,-69.68 174.56,-62.38 38,4.33 75.12,16.26 108.51,34.91"
         style="fill:none;stroke:#0d101f;stroke-width:10;stroke-linecap:round;stroke-linejoin:round;stroke-miterlimit:10;stroke-dasharray:none;stroke-opacity:1"
         transform="matrix(0.13333333,0,0,-0.13333333,0,666.66667)" />
      <path
         id="path128"
         d="m 5979.37,3462.12 c 1.43,-44.16 22.17,-87.35 55.76,-116.06"
         style="fill:none;stroke:#663fa2;stroke-width:10;stroke-linecap:round;stroke-linejoin:round;stroke-miterlimit:10;stroke-dasharray:none;stroke-opacity:1"
         transform="matrix(0.13333333,0,0,-0.13333333,0,666.66667)" />
      <path
         id="path129"
         d="m 6153.88,3249.7 c 7.5,-9.33 15.39,-19.77 15.03,-31.73"
         style="fill:none;stroke:#663fa2;stroke-width:10;stroke-linecap:round;stroke-linejoin:round;stroke-miterlimit:10;stroke-dasharray:none;stroke-opacity:1"
         transform="matrix(0.13333333,0,0,-0.13333333,0,666.66667)" />
      <path
         id="path130"
         d="m 4543.65,1462.34 c -7.95,-47.87 -15.17,-95.86 -21.42,-143.98"
         style="fill:none;stroke:#0d101f;stroke-width:10;stroke-linecap:round;stroke-linejoin:round;stroke-miterlimit:10;stroke-dasharray:none;stroke-opacity:1"
         transform="matrix(0.13333333,0,0,-0.13333333,0,666.66667)" />
      <path
         id="path131"
         d="m 5460.76,2409.19 c -147.28,48.06 -307.28,98.06 -467.28,78.06 -150,-20 -240,-140 -280,-280 -40,-160 -70,-310 -120,-470 -20,-80 -40,-160 -44.89,-245.73"
         style="fill:none;stroke:#0d101f;stroke-width:10;stroke-linecap:round;stroke-linejoin:round;stroke-miterlimit:10;stroke-dasharray:none;stroke-opacity:1"
         transform="matrix(0.13333333,0,0,-0.13333333,0,666.66667)" />
      <path
         id="path132"
         d="m 5151.32,1958.99 c 0.1,21.12 -3.5,42.26 -10.6,62.14"
         style="fill:none;stroke:#0d101f;stroke-width:10;stroke-linecap:round;stroke-linejoin:round;stroke-miterlimit:10;stroke-dasharray:none;stroke-opacity:1"
         transform="matrix(0.13333333,0,0,-0.13333333,0,666.66667)" />
      <path
         id="path133"
         d="m 6005.83,3490.31 c -1.06,-16.35 1.99,-32.95 8.79,-47.87"
         style="fill:none;stroke:#663fa2;stroke-width:10;stroke-linecap:round;stroke-linejoin:round;stroke-miterlimit:10;stroke-dasharray:none;stroke-opacity:1"
         transform="matrix(0.13333333,0,0,-0.13333333,0,666.66667)" />
      <path
         id="path134"
         d="m 5907.79,3625.61 c 5.99,-10.83 8.7,-23.44 7.71,-35.77"
         style="fill:none;stroke:#663fa2;stroke-width:10;stroke-linecap:round;stroke-linejoin:round;stroke-miterlimit:10;stroke-dasharray:none;stroke-opacity:1"
         transform="matrix(0.13333333,0,0,-0.13333333,0,666.66667)" />
      <path
         id="path135"
         d="m 5395,2757.52 c 16.15,24.15 32.3,48.29 48.46,72.44"
         style="fill:none;stroke:#0d101f;stroke-width:10;stroke-linecap:round;stroke-linejoin:round;stroke-miterlimit:10;stroke-dasharray:none;stroke-opacity:1"
         transform="matrix(0.13333333,0,0,-0.13333333,0,666.66667)" />
      <path
         id="path136"
         d="m 5973.87,2656.17 c 9.64,53.34 19.29,106.68 28.94,160.02"
         style="fill:none;stroke:#0d101f;stroke-width:10;stroke-linecap:round;stroke-linejoin:round;stroke-miterlimit:10;stroke-dasharray:none;stroke-opacity:1"
         transform="matrix(0.13333333,0,0,-0.13333333,0,666.66667)" />
      <path
         id="path137"
         d="m 5367.41,3064.83 c -75.97,-89.79 -156.38,-185.18 -186.46,-310.79"
         style="fill:none;stroke:#0d101f;stroke-width:10;stroke-linecap:round;stroke-linejoin:round;stroke-miterlimit:10;stroke-dasharray:none;stroke-opacity:1"
         transform="matrix(0.13333333,0,0,-0.13333333,0,666.66667)" />
      <path
         id="path138"
         d="m 5483.8,2990.58 c 9.76,0.11 27.75,2.94 36.02,-3.64 4.8,-3.82 8.82,-16.78 0.99,-19.13 4.74,1.43 10.42,0.03 13.38,-3.94 2.96,-3.97 2.37,-10.37 -1.68,-13.21 5.21,-0.54 10.52,-3.4 12.5,-8.27 3.28,-8.09 -6.86,-14.16 -11.13,-19.74 -8.2,-10.67 -15.98,-21.68 -23.55,-32.79 -14.78,-21.69 -28.52,-44.1 -41.13,-67.11 -19.28,-35.14 -32.03,-73.71 -46.69,-111.02 -15.34,-39.05 -35.4,-38.38 -76.8,-38.11 -44.19,0.28 -88.35,6.14 -131.08,17.38 -14.3,3.76 -29.38,7.47 -42.99,13.3 -10.32,4.41 -14.1,10.71 -22.99,16.86 -19.39,13.41 -47.51,14.84 -70.21,15.07 -28.64,0.28 -58.16,-1.92 -85.07,7.85 -26.36,9.58 -48.01,30.41 -60.42,55.56 -16.45,33.3 -15.66,66.86 -14.97,102.28 0.81,41.51 -4.42,84.16 -10.45,125.16 -2.73,18.47 -2.57,37.04 -4.15,55.5 -1.6,18.76 -5.2,37.58 -7.78,56.24 -0.64,4.68 -1.24,9.7 0.91,13.9 2.16,4.2 8.24,6.66 11.75,3.5 0.04,4.02 3.05,7.82 6.94,8.77 3.91,0.96 8.33,-1.01 10.23,-4.55 -1.14,4.12 2.14,8.43 6.14,9.9 4,1.47 8.45,0.81 12.63,-0.05 51.67,-10.59 93.27,-47.28 135.82,-78.44 21.49,-15.74 43.89,-30.42 63.4,-48.56 16.65,-15.48 31.35,-33.84 39.62,-55.21 2.38,-6.15 1.72,-7.82 7.94,-8.46 5.56,-0.58 13.1,2.14 18.67,2.99 13.01,1.97 26.07,3.71 39.16,5.21 26.16,3.01 52.43,5.08 78.75,6.21 31.23,1.34 62.52,1.35 93.75,0.04 16.32,-0.68 32.62,-1.8 48.91,-3.14 4.57,-0.38 9.08,-0.4 13.58,-0.35"
         style="fill:#ffffff;fill-opacity:1;fill-rule:nonzero;stroke:none"
         transform="matrix(0.13333333,0,0,-0.13333333,0,666.66667)" />
      <path
         id="path139"
         d="m 5198.68,2962.84 c 0,0 -150.33,-515.45 -152.85,-527.36 l 345.76,-37.56 155.39,536.12 -348.3,28.8"
         style="fill:#89319c;fill-opacity:1;fill-rule:nonzero;stroke:none"
         transform="matrix(0.13333333,0,0,-0.13333333,0,666.66667)" />
      <path
         id="path140"
         d="m 5190.22,2967.71 c 0,0 -151.33,-518.68 -154.1,-530.94 l -312.73,195.54 161.48,523.13 305.35,-187.73"
         style="fill:#89319c;fill-opacity:1;fill-rule:nonzero;stroke:none"
         transform="matrix(0.13333333,0,0,-0.13333333,0,666.66667)" />
      <path
         id="path141"
         d="m 5070.07,2442.05 c 14.24,40.98 23.36,83.57 34.14,125.53 13.18,51.27 26.08,102.63 39.36,153.88 11.34,41.55 22.72,83.06 34.65,124.45 5.87,20.37 11.66,40.75 17.19,61.2 2.35,8.74 5.62,16.88 7.84,25.64 2.48,9.79 4.97,19.59 7.45,29.38 0.22,0.86 0.44,1.76 0.28,2.64 -0.09,0.62 -0.39,1.2 -0.72,1.73 -1.61,2.57 -4.27,4.27 -6.88,5.81 -10.71,6.27 -22.2,11.2 -34.11,14.64 -4.81,1.4 -6.89,-0.4 -8.36,-4.67 -1.79,-5.19 -3.59,-10.4 -5.43,-15.58 -4.17,-11.69 -8.05,-23.49 -11.46,-35.43 -6.33,-22.15 -12.1,-44.45 -18.63,-66.54 -31.68,-107.17 -57.28,-210.39 -87,-318.13 -8.26,-29.94 -16.02,-60.73 -26.27,-89.83 -0.82,-2.31 -1.64,-4.66 -1.79,-7.11 -0.8,-13.18 12.58,-20.1 23.63,-22.47 8.04,-1.7 24.67,-3.62 30.7,3.41 2.22,2.6 3.45,5.9 4.6,9.13 0.27,0.77 0.53,1.55 0.81,2.32"
         style="fill:#040606;fill-opacity:1;fill-rule:nonzero;stroke:none"
         transform="matrix(0.13333333,0,0,-0.13333333,0,666.66667)" />
      <path
         id="path142"
         d="m 5920.32,2238.56 c 46.74,-0.63 93.99,1.07 142.64,5.52 29.71,2.71 60.19,6.5 86.43,20.71 51.73,28.03 75.7,98.15 51.96,151.96 -19.13,43.34 -63.19,71.69 -109.16,83.1 -45.97,11.4 -94.18,8.19 -141.33,3.72 -76.04,-7.2 -152,-17.13 -227.15,-30.83 -63.66,-11.6 -116.07,-30.45 -182.98,-18.25 -27.9,5.09 -68.18,55.86 -89.52,82.02 -5.4,6.63 -11.56,12.67 -18.39,17.79 -6.91,5.2 -14.81,9.37 -20.94,15.57 -11.27,11.43 -9.55,28.62 -28.27,32.19 -5.9,1.13 -14.42,-3.61 -16.43,-9.72 -13.13,-39.94 35.21,-54.9 50.83,-82.38 -16.53,-1.95 -33.38,5.68 -47.71,12.22 -37.56,17.19 -73.02,38.58 -105.59,63.71 -5.65,4.37 -11.52,8.98 -18.71,10.1 -7.17,1.13 -16.03,-2.61 -18.25,-9.9 -2.31,-7.56 3.2,-14.55 8.69,-19.53 33.15,-29.97 80.46,-44.23 105.23,-81.78 -10.39,-5.87 -16.88,-0.65 -25.42,4.15 -31.4,17.63 -61,38.28 -88.34,61.6 -7.13,6.07 -54.54,51.53 -56.69,15.94 -0.42,-6.98 3.56,-13.06 7.69,-18.31 24.18,-30.71 58.45,-51.14 92.03,-70.99 11.94,-7.05 32.87,-13.58 37.14,-28.09 -13.77,1.12 -26.36,12.93 -37.4,20.33 -16.1,10.81 -32.52,21.16 -49.04,31.35 -1.62,1.3 -3.3,2.53 -4.9,3.85 -11.49,9.37 -30.92,33.19 -45.27,12.71 -9.26,-13.23 11.14,-42.66 19.02,-34.85 -2.71,-2.69 -4.32,-6.5 -3.63,-11.35 5.34,-37.52 34.98,-57.39 66.1,-72.12 1.01,-0.48 2.07,-0.87 3.08,-1.35 5.73,-3.01 11.2,-5.8 16.01,-8.3 61.19,-31.9 125.37,-58.03 192.01,-76.11 63.79,-17.31 123.97,-38 189.99,-48.92 90.85,-15.02 177.64,-24.57 266.27,-25.76"
         style="fill:#f25379;fill-opacity:1;fill-rule:nonzero;stroke:none"
         transform="matrix(0.13333333,0,0,-0.13333333,0,666.66667)" />
      <path
         id="path143"
         d="m 5957.92,2501.7 c 34.06,0.39 68.18,-5.24 100.31,-16.53"
         style="fill:none;stroke:#0d101f;stroke-width:10;stroke-linecap:round;stroke-linejoin:round;stroke-miterlimit:10;stroke-dasharray:none;stroke-opacity:1"
         transform="matrix(0.13333333,0,0,-0.13333333,0,666.66667)" />
      <path
         id="path144"
         d="m 5381.81,2204.58 c -33.36,-38.95 -65.37,-79.49 -89.86,-124.55 -77.11,-141.91 -62.57,-331.94 0.08,-476.42"
         style="fill:none;stroke:#0d101f;stroke-width:10;stroke-linecap:round;stroke-linejoin:round;stroke-miterlimit:10;stroke-dasharray:none;stroke-opacity:1"
         transform="matrix(0.13333333,0,0,-0.13333333,0,666.66667)" />
      <path
         id="path145"
         d="m 5327.81,2046.09 c -5.72,-16.62 -12.67,-32.23 -19.1,-48.31"
         style="fill:none;stroke:#0d101f;stroke-width:10;stroke-linecap:round;stroke-linejoin:round;stroke-miterlimit:10;stroke-dasharray:none;stroke-opacity:1"
         transform="matrix(0.13333333,0,0,-0.13333333,0,666.66667)" />
      <path
         id="path146"
         d="m 5301.73,1894.4 c -5.43,-43.71 0.94,-88.83 18.25,-129.32"
         style="fill:none;stroke:#0d101f;stroke-width:10;stroke-linecap:round;stroke-linejoin:round;stroke-miterlimit:10;stroke-dasharray:none;stroke-opacity:1"
         transform="matrix(0.13333333,0,0,-0.13333333,0,666.66667)" />
      <path
         id="path147"
         d="m 6023.53,1702.53 c 31.08,29.35 62.16,58.71 93.24,88.05"
         style="fill:none;stroke:#0d101f;stroke-width:10;stroke-linecap:round;stroke-linejoin:round;stroke-miterlimit:10;stroke-dasharray:none;stroke-opacity:1"
         transform="matrix(0.13333333,0,0,-0.13333333,0,666.66667)" />
      <path
         id="path148"
         d="m 5662.15,3430.17 c -0.08,-0.48 -0.13,-0.95 -0.16,-1.44 -0.83,-13.1 17.12,-23.56 27.28,-28 13.51,-5.9 29.09,-7.42 43.27,-3.01 15.38,4.77 29.99,22.67 20.65,35.79 -5.56,7.82 -16.48,9.07 -26.06,9.62 -12.16,0.7 -24.31,1.39 -36.47,2.09 -10.67,0.62 -22.09,4.23 -26.47,-7.93 -0.84,-2.33 -1.68,-4.69 -2.04,-7.12"
         style="fill:#040606;fill-opacity:1;fill-rule:nonzero;stroke:none"
         transform="matrix(0.13333333,0,0,-0.13333333,0,666.66667)" />
      <path
         id="path149"
         d="m 5413.94,2230.96 c 12.28,12.04 25.63,22.99 39.85,32.66"
         style="fill:none;stroke:#0d101f;stroke-width:10;stroke-linecap:round;stroke-linejoin:round;stroke-miterlimit:10;stroke-dasharray:none;stroke-opacity:1"
         transform="matrix(0.13333333,0,0,-0.13333333,0,666.66667)" />
      <path
         id="path150"
         d="m 6096.05,2277.55 c 18.39,-3 38.03,2.93 51.68,15.6"
         style="fill:none;stroke:#0d101f;stroke-width:10;stroke-linecap:round;stroke-linejoin:round;stroke-miterlimit:10;stroke-dasharray:none;stroke-opacity:1"
         transform="matrix(0.13333333,0,0,-0.13333333,0,666.66667)" />
      <path
         id="path151"
         d="m 4374.03,947.32 c -85.46,-16 -166.57,-54.718 -232.77,-111.09"
         style="fill:none;stroke:#663fa2;stroke-width:10;stroke-linecap:round;stroke-linejoin:round;stroke-miterlimit:10;stroke-dasharray:none;stroke-opacity:1"
         transform="matrix(0.13333333,0,0,-0.13333333,0,666.66667)" />
      <path
         id="path152"
         d="m 5381.8,3610.23 c 44.8,51.78 66.15,99.91 69.8,144.02 16.39,197.62 -322.22,314.23 -495.35,314.23 -149.9,0 -328,-40.12 -432.89,-156.01 -101.47,-112.09 -66.25,-290.99 62.6,-371.72 72.4,-45.36 162.88,-48.31 248.28,-45.7 76.64,2.33 182.12,-1.01 283.09,9.97 16.02,-30.96 37.24,-58.2 66.32,-78.69 63.86,-44.98 148.81,-44.74 226.12,-33.61 -64.53,19.17 -133.95,41.72 -172.71,96.75 -7.3,10.37 -13.09,21.42 -17.78,32.92 65.98,16.41 124.03,43.36 162.52,87.84"
         style="fill:#9c81c8;fill-opacity:1;fill-rule:nonzero;stroke:none"
         transform="matrix(0.13333333,0,0,-0.13333333,0,666.66667)" />
      <path
         id="path153"
         d="m 4601.7,3772.37 c 40.82,-32.38 109.28,-19.37 135.38,25.73 4.62,7.98 7.63,19.06 1.19,25.67 -7.37,7.56 -21.78,1.34 -24.7,-8.82 -2.91,-10.15 2.46,-20.97 9.6,-28.76 15.72,-17.15 41.09,-24.79 63.66,-19.19 22.58,5.6 41.43,24.22 47.31,46.72 0.9,3.42 1.49,7.11 0.24,10.41 -5.02,13.22 -26.11,1.31 -28.56,-12.62 -4.7,-26.67 16.49,-53.78 42.88,-59.89 26.39,-6.11 54.86,6.21 72.46,26.8 11.46,13.39 14.45,40.2 -2.88,43.32 -22.34,-18.6 -10.79,-59.62 15.97,-71.01 26.76,-11.38 58.81,1.17 78.93,22.18 7.6,7.92 14.32,18.15 13.05,29.05 -1.28,10.91 -14.47,20.16 -23.6,14.06 -4.83,-3.22 -6.84,-9.34 -7.42,-15.12 -3.12,-31.33 29.27,-58.43 60.73,-56.97 31.45,1.46 58.57,24.97 72.92,53.01 4.49,8.78 7.33,21.04 -0.32,27.28 -6.23,5.08 -15.88,2.55 -22.13,-2.52 -19.54,-15.87 -14.44,-50.3 5.88,-65.16 20.33,-14.85 49.26,-12.78 71.76,-1.48 22.49,11.3 39.99,30.31 56.96,48.91"
         style="fill:none;stroke:#040606;stroke-width:10;stroke-linecap:round;stroke-linejoin:round;stroke-miterlimit:10;stroke-dasharray:none;stroke-opacity:1"
         transform="matrix(0.13333333,0,0,-0.13333333,0,666.66667)" />
      <path
         id="path154"
         d="m 4757.35,975.891 c 48.46,86.589 89.6,177.279 122.83,270.779"
         style="fill:none;stroke:#0d101f;stroke-width:10;stroke-linecap:round;stroke-linejoin:round;stroke-miterlimit:10;stroke-dasharray:none;stroke-opacity:1"
         transform="matrix(0.13333333,0,0,-0.13333333,0,666.66667)" />
      <path
         id="path155"
         d="m 3427.63,698.02 h -712.79 v 243.89 h 712.79 c 67.35,0 121.95,-54.601 121.95,-121.941 v 0 c 0,-67.36 -54.6,-121.949 -121.95,-121.949"
         style="fill:#f25376;fill-opacity:1;fill-rule:nonzero;stroke:none"
         transform="matrix(0.13333333,0,0,-0.13333333,0,666.66667)" />
      <path
         id="path156"
         d="m 3402.53,723.531 h -688.96 l -1.7,199.828 h 688.96 c 58.19,0 105.37,-47.168 105.37,-105.367 v 0 c 0,-58.191 -45.48,-94.461 -103.67,-94.461"
         style="fill:#f4e3d5;fill-opacity:1;fill-rule:nonzero;stroke:none"
         transform="matrix(0.13333333,0,0,-0.13333333,0,666.66667)" />
      <path
         id="path157"
         d="M 2712.86,888.469 3479.62,886.5"
         style="fill:none;stroke:#ffffff;stroke-width:10;stroke-linecap:butt;stroke-linejoin:miter;stroke-miterlimit:10;stroke-dasharray:none;stroke-opacity:1"
         transform="matrix(0.13333333,0,0,-0.13333333,0,666.66667)" />
      <path
         id="path158"
         d="m 2712.86,844.07 785.51,-1.23"
         style="fill:none;stroke:#ffffff;stroke-width:10;stroke-linecap:butt;stroke-linejoin:miter;stroke-miterlimit:10;stroke-dasharray:none;stroke-opacity:1"
         transform="matrix(0.13333333,0,0,-0.13333333,0,666.66667)" />
      <path
         id="path159"
         d="m 2712.86,799.66 789.45,-1.969"
         style="fill:none;stroke:#ffffff;stroke-width:10;stroke-linecap:butt;stroke-linejoin:miter;stroke-miterlimit:10;stroke-dasharray:none;stroke-opacity:1"
         transform="matrix(0.13333333,0,0,-0.13333333,0,666.66667)" />
      <path
         id="path160"
         d="m 2712.86,755.25 766.76,-1.969"
         style="fill:none;stroke:#ffffff;stroke-width:10;stroke-linecap:butt;stroke-linejoin:miter;stroke-miterlimit:10;stroke-dasharray:none;stroke-opacity:1"
         transform="matrix(0.13333333,0,0,-0.13333333,0,666.66667)" />
      <path
         id="path161"
         d="m 3472.71,899.84 -1.12,-156.442 c 20.48,17.692 34.61,36.551 34.61,65.743 v 17.699 c 0,29.191 -13.01,55.301 -33.49,73"
         style="fill:#040606;fill-opacity:1;fill-rule:nonzero;stroke:none"
         transform="matrix(0.13333333,0,0,-0.13333333,0,666.66667)" />
      <path
         id="path162"
         d="m 3436.19,961.809 v 65.611 h 42.44 v 9.24 c 0,6.64 -5.38,12.02 -12.03,12.02 h -848.79 c -29.8,0 -53.96,-24.15 -53.96,-53.95 0,-29.8 24.16,-53.949 53.96,-53.949 h 848.79 c 6.65,0 12.03,5.379 12.03,12.028 v 9 h -42.44"
         style="fill:#3072c2;fill-opacity:1;fill-rule:nonzero;stroke:none"
         transform="matrix(0.13333333,0,0,-0.13333333,0,666.66667)" />
      <path
         id="path163"
         d="m 3476,962.02 h -832.07 c -18.06,0 -32.71,14.64 -32.71,32.71 v 0 c 0,18.07 14.65,32.72 32.71,32.72 H 3476 v -65.43"
         style="fill:#f4e3d5;fill-opacity:1;fill-rule:nonzero;stroke:none"
         transform="matrix(0.13333333,0,0,-0.13333333,0,666.66667)" />
      <path
         id="path164"
         d="m 3413.25,1047.87 h -633.73 c -14.86,0 -26.9,12.05 -26.9,26.9 v 99.81 c 0,14.85 12.04,26.9 26.9,26.9 h 633.73 c 14.85,0 26.9,-12.05 26.9,-26.9 v -99.81 c 0,-14.85 -12.05,-26.9 -26.9,-26.9"
         style="fill:#3dbb86;fill-opacity:1;fill-rule:nonzero;stroke:none"
         transform="matrix(0.13333333,0,0,-0.13333333,0,666.66667)" />
      <path
         id="path165"
         d="m 3349.83,1202.03 h -658.39 c -13.59,0 -24.6,11.01 -24.6,24.6 v 23.96 c 0,13.59 11.01,24.6 24.6,24.6 h 658.39 c 13.59,0 24.6,-11.01 24.6,-24.6 v -23.96 c 0,-13.59 -11.01,-24.6 -24.6,-24.6"
         style="fill:#040606;fill-opacity:1;fill-rule:nonzero;stroke:none"
         transform="matrix(0.13333333,0,0,-0.13333333,0,666.66667)" />
      <path
         id="path166"
         d="m 3348.79,1115.73 h -490.35 c -8.07,0 -14.6,6.53 -14.6,14.59 v 0 c 0,8.06 6.53,14.59 14.6,14.59 h 490.35 c 8.06,0 14.59,-6.53 14.59,-14.59 v 0 c 0,-8.06 -6.53,-14.59 -14.59,-14.59"
         style="fill:#040606;fill-opacity:1;fill-rule:nonzero;stroke:none"
         transform="matrix(0.13333333,0,0,-0.13333333,0,666.66667)" />
      <path
         id="path167"
         d="m 2618.13,1010.84 853.92,-1.98"
         style="fill:none;stroke:#ffffff;stroke-width:10;stroke-linecap:butt;stroke-linejoin:miter;stroke-miterlimit:10;stroke-dasharray:none;stroke-opacity:1"
         transform="matrix(0.13333333,0,0,-0.13333333,0,666.66667)" />
      <path
         id="path168"
         d="m 2618.13,981.238 853.92,-1.976"
         style="fill:none;stroke:#ffffff;stroke-width:10;stroke-linecap:butt;stroke-linejoin:miter;stroke-miterlimit:10;stroke-dasharray:none;stroke-opacity:1"
         transform="matrix(0.13333333,0,0,-0.13333333,0,666.66667)" />
      <path
         id="path169"
         d="m 3450.01,939.359 -736.82,4.743 -1.04,-99.551 z"
         style="fill:#040606;fill-opacity:1;fill-rule:nonzero;stroke:none"
         transform="matrix(0.13333333,0,0,-0.13333333,0,666.66667)" />
      <path
         id="path170"
         d="m 3408.31,1048.33 -10.36,-22.83 -635.13,2.79 6.7,22.11 638.79,-2.07"
         style="fill:#040606;fill-opacity:1;fill-rule:nonzero;stroke:none"
         transform="matrix(0.13333333,0,0,-0.13333333,0,666.66667)" />
      <path
         id="path171"
         d="m 6230.86,2169.12 c 0.95,0.5 1.96,0.88 3.02,1.11 5.39,1.19 10.92,-1.81 14.64,-5.86 15.02,-16.32 10.7,-53.42 7.6,-73.45 -1.33,-8.56 -3.36,-17.2 -7.94,-24.56 -3.74,-5.99 -9.02,-10.89 -12.91,-16.8 -5.85,-8.91 -8.22,-19.59 -10.49,-30 -6.57,-30.24 -13.14,-60.47 -19.71,-90.71 -7.47,4.99 -11.14,14.24 -11.82,23.21 -0.67,8.95 1.17,17.88 2.49,26.77 3.14,21.16 4.62,45.02 0.04,66.1 -4.25,19.52 -8.65,38.06 -4.79,58.56 4.51,23.86 17.59,43.79 33,60 2.04,2.15 4.27,4.29 6.87,5.63"
         style="fill:#040606;fill-opacity:1;fill-rule:nonzero;stroke:none"
         transform="matrix(0.13333333,0,0,-0.13333333,0,666.66667)" />
      <path
         id="path172"
         d="m 6264.17,1158.55 h 460.9 L 6681.7,812.691 c -1.82,-16.429 -15.74,-28.851 -32.28,-28.769 l -306.96,1.488 c -13.9,0.07 -25.65,10.289 -27.65,24.039 l -50.64,349.101"
         style="fill:#5d71c0;fill-opacity:1;fill-rule:nonzero;stroke:none"
         transform="matrix(0.13333333,0,0,-0.13333333,0,666.66667)" />
      <path
         id="path173"
         d="m 6725.07,1158.55 c 0,-26.99 -103.18,-48.88 -230.45,-48.88 -127.28,0 -230.45,21.89 -230.45,48.88 0,27 103.17,48.89 230.45,48.89 127.27,0 230.45,-21.89 230.45,-48.89"
         style="fill:#040606;fill-opacity:1;fill-rule:nonzero;stroke:none"
         transform="matrix(0.13333333,0,0,-0.13333333,0,666.66667)" />
      <path
         id="path174"
         d="m 6396.82,1793.77 c -10.2,59.3 -31.1,116.41 -40.41,175.86 -13.38,85.47 -1.99,174.69 32.47,254.06 15.15,-8.84 22.91,-26.82 24.73,-44.26 1.83,-17.45 -1.26,-34.99 -2.62,-52.48 -6.15,-79.01 22.68,-155.89 41.47,-232.87 21.25,-87.11 29.89,-177.06 28.92,-266.72 -0.41,-37.14 -3.08,-76.3 -23.54,-107.33 -4.84,-7.34 -8.47,-15.22 -10.72,-23.67 -54.49,79.14 -34.67,206.6 -50.3,297.41"
         style="fill:#040606;fill-opacity:1;fill-rule:nonzero;stroke:none"
         transform="matrix(0.13333333,0,0,-0.13333333,0,666.66667)" />
      <path
         id="path175"
         d="m 6559.05,1976.31 c 16.97,88.85 15.58,183.81 58.2,263.6 3.38,6.35 8,13.22 15.13,14.16 11.6,1.52 18.13,-13 19.42,-24.63 6.88,-62.05 -23.1,-121.34 -40.61,-181.26 -33.7,-115.31 -24.08,-238.06 -57.31,-353.66 -36.67,26.01 -17.87,62.81 -15.88,99.55 3.42,63.32 9.07,119.46 21.05,182.24"
         style="fill:#040606;fill-opacity:1;fill-rule:nonzero;stroke:none"
         transform="matrix(0.13333333,0,0,-0.13333333,0,666.66667)" />
      <path
         id="path176"
         d="m 6701.59,1886.02 c 23.69,68.21 47.77,136.27 71.85,204.34 3.78,10.71 10.08,23.36 21.44,23.68 8.02,0.22 14.8,-6.42 17.97,-13.79 5.13,-11.94 3.26,-25.59 1.14,-38.42 -24.66,-149.1 -71.04,-293.41 -119.73,-436.11 -9.13,-26.72 -15.6,-70.62 -36.73,-91.09 -11.78,-11.41 -40.36,-19.88 -52.4,-3.13 -18.19,25.29 29.8,95.53 37.21,120.51 10.63,35.85 11.97,74.05 20.9,110.49 10.27,41.89 24.2,82.8 38.35,123.52"
         style="fill:#040606;fill-opacity:1;fill-rule:nonzero;stroke:none"
         transform="matrix(0.13333333,0,0,-0.13333333,0,666.66667)" />
      <path
         id="path177"
         d="m 6456.31,1158.18 c -2.05,-12.13 -2.73,-23.28 0.67,-29.79 10.04,-19.18 49.05,-10.97 71.7,-9.98 25.12,81.56 35.22,182.64 46.42,247.64 22.19,128.95 32.8,259.89 31.47,390.73 -0.65,64.28 -16.65,122.86 -36.92,183.49 -14.57,43.57 -29.15,87.16 -43.72,130.73 -1.84,5.5 -3.76,11.16 -7.6,15.5 -8.75,9.93 -25.22,9.65 -36.35,2.49 -11.13,-7.16 -17.89,-19.4 -22.95,-31.64 -40.19,-97.35 2.12,-206.68 12.66,-311.47 7.16,-71.22 -0.93,-143.92 -23.57,-211.82 -9.36,-28.1 -21.34,-56.22 -21.01,-85.83 0.3,-27.25 11,-53.11 19.2,-79.08 16.62,-52.75 23.12,-108.63 19.34,-163.79 -0.73,-10.67 -6.43,-29.91 -9.34,-47.18"
         style="fill:#3dbb86;fill-opacity:1;fill-rule:nonzero;stroke:none"
         transform="matrix(0.13333333,0,0,-0.13333333,0,666.66667)" />
      <path
         id="path178"
         d="m 6560.8,1120.27 c 9.45,0.7 18.91,1.57 28.36,2.57 26.44,62.04 50.27,125.24 56.62,192.35 6.04,63.9 -18.07,133.19 -1.35,195.43 6.17,23 18.95,44.4 20.79,68.14 1.58,20.17 -4.9,39.97 -9.06,59.76 -22.77,108.54 23.76,218.03 40.93,327.59 4.71,30.07 6.42,63.58 -11.62,88.11 -57.21,-78.02 -108.88,-182.56 -109.19,-280.6 -0.34,-107.58 -34.54,-212.4 -55.29,-317.81 -11.99,-60.93 -20.34,-123.19 -18.04,-185.41 2.05,-55.58 19.97,-99.74 33.38,-151.58 8.17,0.42 16.33,0.85 24.47,1.45"
         style="fill:#3dbb86;fill-opacity:1;fill-rule:nonzero;stroke:none"
         transform="matrix(0.13333333,0,0,-0.13333333,0,666.66667)" />
      <path
         id="path179"
         d="m 6253.61,1938.03 c -8.17,20.46 -15.2,41.35 -23.39,61.81 -2.99,7.48 -9.42,15.88 -10.91,23.55 -0.75,3.88 -0.64,7.89 -1.36,11.78 -2.04,11.01 -10.4,19.97 -12.9,30.89 -1.11,4.84 -1.01,9.85 -1.2,14.8 -0.56,13.91 -5.76,28.09 -4.22,41.78 0.09,0.81 -0.58,5.19 -0.5,5.29 -6.59,-8.55 -10.61,-30.35 -10.98,-33.64 -1.07,-9.56 -0.81,-19.2 -0.92,-28.8 -0.22,-18.78 1,-37.79 -2.77,-56.33 -5.04,-24.79 -7.71,-41.92 -4.07,-66.88 4,-27.41 9.25,-54.11 19.15,-80.1 32.84,-86.24 105.3,-156.77 119.94,-247.9 4.61,-28.7 3.13,-58 5.32,-86.99 4.67,-61.67 21.54,-127.03 34.51,-187.24 4.07,-18.86 35.93,-213.78 39.73,-214.26 11.09,-1.41 30.4,-7.39 40.56,0.87 9.94,8.07 7.71,28.93 7.19,40.2 -2.56,54.69 -19.12,107.46 -23.91,161.89 -2.31,26.18 1.57,51.46 1.62,77.66 0.06,29.48 -2.55,58.93 -6.73,88.09 -2.88,20.05 -8.98,37.67 -10.48,57.88 -1.12,15.31 -6.77,29.93 -9.1,45.11 -1.99,12.98 -1.51,26.28 -4.09,39.16 -2.79,13.97 -9.07,26.95 -14.36,40.19 -7.67,19.2 -13.34,39.17 -21.46,58.19 -14.12,33.05 -32.22,63.3 -50.43,94.39 -20.63,35.21 -39.1,70.71 -54.24,108.61"
         style="fill:#3dbb86;fill-opacity:1;fill-rule:nonzero;stroke:none"
         transform="matrix(0.13333333,0,0,-0.13333333,0,666.66667)" />
      <path
         id="path180"
         d="m 6525.41,1119.99 c 27.22,68.63 54.9,139.98 50.8,213.69 -3.41,61.12 -28.66,121.49 -18.58,181.86 5.17,30.93 19.34,59.5 29.46,89.17 33.47,98.12 11.68,234.07 -9.33,333.29"
         style="fill:none;stroke:#040606;stroke-width:10;stroke-linecap:round;stroke-linejoin:round;stroke-miterlimit:10;stroke-dasharray:none;stroke-opacity:1"
         transform="matrix(0.13333333,0,0,-0.13333333,0,666.66667)" />
    </g>
    <text
       xml:space="preserve"
       style="font-size:22.5886px;font-family:Cantarell;-inkscape-font-specification:'Cantarell, Normal';text-align:center;text-anchor:middle;opacity:0.99;fill:#000000;stroke-width:1.51181"
       x="480.48654"
       y="624.15643"
       id="text180"><tspan
         sodipodi:role="line"
         id="tspan180"
         x="480.48654"
         y="624.15643"
         style="fill:#000000;stroke-width:1.51181">Designed by Freepik</tspan></text>
  </g>
</svg>
