<?xml version="1.0" encoding="UTF-8" standalone="no"?>
<!-- Created with Inkscape (http://www.inkscape.org/) -->

<svg
   version="1.1"
   id="svg1"
   width="607.66669"
   height="590.35999"
   viewBox="0 0 607.66669 590.35999"
   sodipodi:docname="grupo-3.svg"
   inkscape:version="1.3.2 (091e20ef0f, 2023-11-25)"
   xmlns:inkscape="http://www.inkscape.org/namespaces/inkscape"
   xmlns:sodipodi="http://sodipodi.sourceforge.net/DTD/sodipodi-0.dtd"
   xmlns="http://www.w3.org/2000/svg"
   xmlns:svg="http://www.w3.org/2000/svg">
  <defs
     id="defs1" />
  <sodipodi:namedview
     id="namedview1"
     pagecolor="#ffffff"
     bordercolor="#000000"
     borderopacity="0.25"
     inkscape:showpageshadow="2"
     inkscape:pageopacity="0.0"
     inkscape:pagecheckerboard="0"
     inkscape:deskcolor="#d1d1d1"
     inkscape:zoom="0.97377504"
     inkscape:cx="377.39723"
     inkscape:cy="342.48157"
     inkscape:window-width="1920"
     inkscape:window-height="1011"
     inkscape:window-x="0"
     inkscape:window-y="32"
     inkscape:window-maximized="1"
     inkscape:current-layer="g1">
    <inkscape:page
       x="0"
       y="0"
       inkscape:label="1"
       id="page1"
       width="607.66669"
       height="590.35999"
       margin="0"
       bleed="0" />
  </sodipodi:namedview>
  <g
     id="g1"
     inkscape:groupmode="layer"
     inkscape:label="1">
    <g
       id="group-R5">
      <path
         id="path2"
         d="m 1786.35,1285 c -269.09,-114.51 -523.54,-201.59 -755.3,-90.94 -259.335,123.81 -405.202,454.62 -415.132,725.2 -7.66,208.7 71.613,216.03 65.617,419.94 -10.531,358.07 -258.734,463.08 -330.601,790.19 -61.336,279.17 33.968,591.79 175.964,771.41 420.418,531.77 1590.192,327.71 2324.642,-140.11 258.73,-164.81 864.78,-550.85 856.07,-1068.21 C 3697.6,2098.27 2883.73,1751.96 1786.35,1285"
         style="fill:#fcdcef;fill-opacity:1;fill-rule:nonzero;stroke:none"
         transform="matrix(0.13333333,0,0,-0.13333333,0,590.36)" />
      <path
         id="path3"
         d="m 2643.78,2138.27 c 0,0 -170.05,9.05 -44.89,141.29 125.15,132.25 454.12,115.72 454.12,115.72 0,0 -473.05,-713.24 -409.23,-257.01"
         style="fill:#5250ab;fill-opacity:1;fill-rule:nonzero;stroke:none"
         transform="matrix(0.13333333,0,0,-0.13333333,0,590.36)" />
      <path
         id="path4"
         d="m 2434.02,1153.87 c 0,0 -180.9,663.28 301.48,1077.83"
         style="fill:none;stroke:#342c76;stroke-width:10;stroke-linecap:butt;stroke-linejoin:miter;stroke-miterlimit:10;stroke-dasharray:none;stroke-opacity:1"
         transform="matrix(0.13333333,0,0,-0.13333333,0,590.36)" />
      <path
         id="path5"
         d="m 2223.75,2162.1 c 0,0 143.69,10.24 35.81,120.18 -107.86,109.94 -385.84,90.94 -385.84,90.94 0,0 410.98,-596.01 350.03,-211.12"
         style="fill:#5250ab;fill-opacity:1;fill-rule:nonzero;stroke:none"
         transform="matrix(0.13333333,0,0,-0.13333333,0,590.36)" />
      <path
         id="path6"
         d="m 2416.2,1332.74 c 0,0 142.86,563.73 -271.45,906.97"
         style="fill:none;stroke:#342c76;stroke-width:10;stroke-linecap:butt;stroke-linejoin:miter;stroke-miterlimit:10;stroke-dasharray:none;stroke-opacity:1"
         transform="matrix(0.13333333,0,0,-0.13333333,0,590.36)" />
      <path
         id="path7"
         d="m 2400.15,2385.43 c 0,0 -195.8,-0.2 -38.56,157.04 175.92,175.92 474.59,24.54 474.59,24.54 0,0 -429.58,-462.31 -436.03,-181.58"
         style="fill:#5250ab;fill-opacity:1;fill-rule:nonzero;stroke:none"
         transform="matrix(0.13333333,0,0,-0.13333333,0,590.36)" />
      <path
         id="path8"
         d="m 2501.15,1160.33 c 0,0 -364.54,1199.29 24.09,1349.41"
         style="fill:none;stroke:#342c76;stroke-width:10;stroke-linecap:butt;stroke-linejoin:miter;stroke-miterlimit:10;stroke-dasharray:none;stroke-opacity:1"
         transform="matrix(0.13333333,0,0,-0.13333333,0,590.36)" />
      <path
         id="path9"
         d="m 2523.82,394.23 h -220.93 l -123.74,1173.14 h 468.41 L 2523.82,394.23"
         style="fill:#040606;fill-opacity:1;fill-rule:nonzero;stroke:none"
         transform="matrix(0.13333333,0,0,-0.13333333,0,590.36)" />
      <path
         id="path10"
         d="m 3240.99,4375.2 c 0,-29 -53.36,-52.51 -119.19,-52.51 -65.83,0 -119.19,23.51 -119.19,52.51 0,29.01 53.36,52.52 119.19,52.52 65.83,0 119.19,-23.51 119.19,-52.52"
         style="fill:#bfe0d7;fill-opacity:1;fill-rule:nonzero;stroke:none"
         transform="matrix(0.13333333,0,0,-0.13333333,0,590.36)" />
      <path
         id="path11"
         d="M 3123.89,4379.43 V 3448.32"
         style="fill:none;stroke:#040606;stroke-width:10;stroke-linecap:round;stroke-linejoin:miter;stroke-miterlimit:10;stroke-dasharray:none;stroke-opacity:1"
         transform="matrix(0.13333333,0,0,-0.13333333,0,590.36)" />
      <path
         id="path12"
         d="m 2868.48,3088.66 h 524.77 L 3126,3382.79 Z"
         style="fill:#d4259a;fill-opacity:1;fill-rule:nonzero;stroke:none"
         transform="matrix(0.13333333,0,0,-0.13333333,0,590.36)" />
      <path
         id="path13"
         d="m 3193.06,3301.16 h -129.58 v 191.77 h 129.58 v -191.77"
         style="fill:#d4259a;fill-opacity:1;fill-rule:nonzero;stroke:none"
         transform="matrix(0.13333333,0,0,-0.13333333,0,590.36)" />
      <path
         id="path14"
         d="m 3063.48,3311.2 129.41,-0.97 -149.33,-21.87 z"
         style="fill:#040606;fill-opacity:1;fill-rule:nonzero;stroke:none"
         transform="matrix(0.13333333,0,0,-0.13333333,0,590.36)" />
      <path
         id="path15"
         d="m 4389.1,455.242 c 0,-22.953 -319.03,-41.551 -712.56,-41.551 -393.55,0 -712.57,18.598 -712.57,41.551 0,22.938 319.02,41.528 712.57,41.528 393.53,0 712.56,-18.59 712.56,-41.528"
         style="fill:#bfe0d7;fill-opacity:1;fill-rule:nonzero;stroke:none"
         transform="matrix(0.13333333,0,0,-0.13333333,0,590.36)" />
      <path
         id="path16"
         d="M 3049.88,1585.04 4240.66,455.859"
         style="fill:none;stroke:#040606;stroke-width:10;stroke-linecap:round;stroke-linejoin:miter;stroke-miterlimit:10;stroke-dasharray:none;stroke-opacity:1"
         transform="matrix(0.13333333,0,0,-0.13333333,0,590.36)" />
      <path
         id="path17"
         d="M 4240.66,1585.04 3049.88,455.859"
         style="fill:none;stroke:#040606;stroke-width:10;stroke-linecap:round;stroke-linejoin:miter;stroke-miterlimit:10;stroke-dasharray:none;stroke-opacity:1"
         transform="matrix(0.13333333,0,0,-0.13333333,0,590.36)" />
      <path
         id="path18"
         d="M 4324.31,1535.95 H 2949.65 V 1628 h 1374.66 v -92.05"
         style="fill:#040606;fill-opacity:1;fill-rule:nonzero;stroke:none"
         transform="matrix(0.13333333,0,0,-0.13333333,0,590.36)" />
      <path
         id="path19"
         d="m 3859.02,1635.21 h -158.53 v 213.77 h 158.53 v -213.77"
         style="fill:#bfe0d7;fill-opacity:1;fill-rule:nonzero;stroke:none"
         transform="matrix(0.13333333,0,0,-0.13333333,0,590.36)" />
      <path
         id="path20"
         d="m 3859.02,1755.3 h -158.53 v 93.68 h 158.53 v -93.68"
         style="fill:#040606;fill-opacity:1;fill-rule:nonzero;stroke:none"
         transform="matrix(0.13333333,0,0,-0.13333333,0,590.36)" />
      <path
         id="path21"
         d="m 4204.33,1800.94 h -843.54 c -21.76,0 -39.4,17.64 -39.4,39.39 v 548.1 c 0,21.77 17.64,39.41 39.4,39.41 h 843.54 c 21.76,0 39.39,-17.64 39.39,-39.41 v -548.1 c 0,-21.75 -17.63,-39.39 -39.39,-39.39"
         style="fill:#040606;fill-opacity:1;fill-rule:nonzero;stroke:none"
         transform="matrix(0.13333333,0,0,-0.13333333,0,590.36)" />
      <path
         id="path22"
         d="m 3321.39,1885.61 v -56.02 c 0,-15.82 12.83,-28.65 28.66,-28.65 h 865.01 c 15.83,0 28.66,12.83 28.66,28.65 v 56.02 h -922.33"
         style="fill:#bfe0d7;fill-opacity:1;fill-rule:nonzero;stroke:none"
         transform="matrix(0.13333333,0,0,-0.13333333,0,590.36)" />
      <path
         id="path23"
         d="m 3910.06,1628 h -260.61 v 50.44 h 260.61 V 1628"
         style="fill:#bfe0d7;fill-opacity:1;fill-rule:nonzero;stroke:none"
         transform="matrix(0.13333333,0,0,-0.13333333,0,590.36)" />
      <path
         id="path24"
         d="m 3799.57,1843.87 c 0,-9.4 -7.61,-17.01 -17.01,-17.01 -9.4,0 -17.02,7.61 -17.02,17.01 0,9.39 7.62,17.01 17.02,17.01 9.4,0 17.01,-7.62 17.01,-17.01"
         style="fill:#040606;fill-opacity:1;fill-rule:nonzero;stroke:none"
         transform="matrix(0.13333333,0,0,-0.13333333,0,590.36)" />
      <path
         id="path25"
         d="M 4212.86,1918.54 H 3351.5 v 468.28 h 861.36 v -468.28"
         style="fill:#ffffff;fill-opacity:1;fill-rule:nonzero;stroke:none"
         transform="matrix(0.13333333,0,0,-0.13333333,0,590.36)" />
      <path
         id="path26"
         d="m 3162.04,1768.19 -54.16,2.23 14.98,361.77 54.16,-2.25 -14.98,-361.75"
         style="fill:#d4259a;fill-opacity:1;fill-rule:nonzero;stroke:none"
         transform="matrix(0.13333333,0,0,-0.13333333,0,590.36)" />
      <path
         id="path27"
         d="m 3150.9,2105.09 -29.12,1.21 0.18,4.26 29.12,-1.21 -0.18,-4.26"
         style="fill:#040606;fill-opacity:1;fill-rule:nonzero;stroke:none"
         transform="matrix(0.13333333,0,0,-0.13333333,0,590.36)" />
      <path
         id="path28"
         d="m 3149.98,2082.87 -29.12,1.2 0.18,4.26 29.12,-1.2 -0.18,-4.26"
         style="fill:#040606;fill-opacity:1;fill-rule:nonzero;stroke:none"
         transform="matrix(0.13333333,0,0,-0.13333333,0,590.36)" />
      <path
         id="path29"
         d="m 3149.07,2060.64 -29.12,1.21 0.17,4.26 29.12,-1.22 -0.17,-4.25"
         style="fill:#040606;fill-opacity:1;fill-rule:nonzero;stroke:none"
         transform="matrix(0.13333333,0,0,-0.13333333,0,590.36)" />
      <path
         id="path30"
         d="m 3148.15,2038.41 -29.13,1.21 0.17,4.26 29.13,-1.21 -0.17,-4.26"
         style="fill:#040606;fill-opacity:1;fill-rule:nonzero;stroke:none"
         transform="matrix(0.13333333,0,0,-0.13333333,0,590.36)" />
      <path
         id="path31"
         d="m 3147.23,2016.18 -29.13,1.21 0.18,4.26 29.13,-1.21 -0.18,-4.26"
         style="fill:#040606;fill-opacity:1;fill-rule:nonzero;stroke:none"
         transform="matrix(0.13333333,0,0,-0.13333333,0,590.36)" />
      <path
         id="path32"
         d="m 3146.3,1993.96 -29.12,1.2 0.18,4.26 29.13,-1.21 -0.19,-4.25"
         style="fill:#040606;fill-opacity:1;fill-rule:nonzero;stroke:none"
         transform="matrix(0.13333333,0,0,-0.13333333,0,590.36)" />
      <path
         id="path33"
         d="m 3145.38,1971.73 -29.12,1.2 0.18,4.26 29.12,-1.2 -0.18,-4.26"
         style="fill:#040606;fill-opacity:1;fill-rule:nonzero;stroke:none"
         transform="matrix(0.13333333,0,0,-0.13333333,0,590.36)" />
      <path
         id="path34"
         d="m 3144.47,1949.5 -29.12,1.21 0.17,4.25 29.12,-1.2 -0.17,-4.26"
         style="fill:#040606;fill-opacity:1;fill-rule:nonzero;stroke:none"
         transform="matrix(0.13333333,0,0,-0.13333333,0,590.36)" />
      <path
         id="path35"
         d="m 3143.55,1927.28 -29.12,1.2 0.17,4.27 29.12,-1.21 -0.17,-4.26"
         style="fill:#040606;fill-opacity:1;fill-rule:nonzero;stroke:none"
         transform="matrix(0.13333333,0,0,-0.13333333,0,590.36)" />
      <path
         id="path36"
         d="m 3142.63,1905.05 -29.12,1.2 0.18,4.26 29.12,-1.2 -0.18,-4.26"
         style="fill:#040606;fill-opacity:1;fill-rule:nonzero;stroke:none"
         transform="matrix(0.13333333,0,0,-0.13333333,0,590.36)" />
      <path
         id="path37"
         d="m 3141.71,1882.82 -29.13,1.21 0.18,4.25 29.13,-1.2 -0.18,-4.26"
         style="fill:#040606;fill-opacity:1;fill-rule:nonzero;stroke:none"
         transform="matrix(0.13333333,0,0,-0.13333333,0,590.36)" />
      <path
         id="path38"
         d="m 3140.79,1860.6 -29.13,1.2 0.18,4.26 29.13,-1.2 -0.18,-4.26"
         style="fill:#040606;fill-opacity:1;fill-rule:nonzero;stroke:none"
         transform="matrix(0.13333333,0,0,-0.13333333,0,590.36)" />
      <path
         id="path39"
         d="m 3139.87,1838.37 -29.12,1.2 0.17,4.26 29.12,-1.2 -0.17,-4.26"
         style="fill:#040606;fill-opacity:1;fill-rule:nonzero;stroke:none"
         transform="matrix(0.13333333,0,0,-0.13333333,0,590.36)" />
      <path
         id="path40"
         d="m 3138.95,1816.14 -29.12,1.21 0.17,4.25 29.13,-1.2 -0.18,-4.26"
         style="fill:#040606;fill-opacity:1;fill-rule:nonzero;stroke:none"
         transform="matrix(0.13333333,0,0,-0.13333333,0,590.36)" />
      <path
         id="path41"
         d="m 3138.03,1793.92 -29.12,1.2 0.18,4.26 29.12,-1.2 -0.18,-4.26"
         style="fill:#040606;fill-opacity:1;fill-rule:nonzero;stroke:none"
         transform="matrix(0.13333333,0,0,-0.13333333,0,590.36)" />
      <path
         id="path42"
         d="m 3119.18,1736.87 -39.27,-6.98 -44.65,251.36 39.28,6.97 44.64,-251.35"
         style="fill:#362d7d;fill-opacity:1;fill-rule:nonzero;stroke:none"
         transform="matrix(0.13333333,0,0,-0.13333333,0,590.36)" />
      <path
         id="path43"
         d="m 3035.26,1981.25 39.28,6.97 -25.17,30.48 z"
         style="fill:#f79170;fill-opacity:1;fill-rule:nonzero;stroke:none"
         transform="matrix(0.13333333,0,0,-0.13333333,0,590.36)" />
      <path
         id="path44"
         d="m 3049.37,2018.7 -6.13,-16.29 17.08,3.04 z"
         style="fill:#040606;fill-opacity:1;fill-rule:nonzero;stroke:none"
         transform="matrix(0.13333333,0,0,-0.13333333,0,590.36)" />
      <path
         id="path45"
         d="m 3138.37,1694.18 -38.23,11.39 72.86,244.68 38.23,-11.39 -72.86,-244.68"
         style="fill:#362d7d;fill-opacity:1;fill-rule:nonzero;stroke:none"
         transform="matrix(0.13333333,0,0,-0.13333333,0,590.36)" />
      <path
         id="path46"
         d="m 3173,1950.25 38.23,-11.39 -8.82,38.52 z"
         style="fill:#f79170;fill-opacity:1;fill-rule:nonzero;stroke:none"
         transform="matrix(0.13333333,0,0,-0.13333333,0,590.36)" />
      <path
         id="path47"
         d="m 3202.41,1977.38 -12.79,-11.8 16.62,-4.94 z"
         style="fill:#040606;fill-opacity:1;fill-rule:nonzero;stroke:none"
         transform="matrix(0.13333333,0,0,-0.13333333,0,590.36)" />
      <path
         id="path48"
         d="m 3191.31,1628 h -130.46 l -36.24,210.19 h 202.94 L 3191.31,1628"
         style="fill:#f48c25;fill-opacity:1;fill-rule:nonzero;stroke:none"
         transform="matrix(0.13333333,0,0,-0.13333333,0,590.36)" />
      <path
         id="path49"
         d="M 3776.49,2050.04 H 3425.9 v 207.22 h 350.59 v -207.22"
         style="fill:#f48c25;fill-opacity:1;fill-rule:nonzero;stroke:none"
         transform="matrix(0.13333333,0,0,-0.13333333,0,590.36)" />
      <path
         id="path50"
         d="m 3437.11,2247.59 162.73,-118.73 165.44,118.73"
         style="fill:none;stroke:#040606;stroke-width:5;stroke-linecap:round;stroke-linejoin:miter;stroke-miterlimit:10;stroke-dasharray:none;stroke-opacity:1"
         transform="matrix(0.13333333,0,0,-0.13333333,0,590.36)" />
      <path
         id="path51"
         d="M 3535.97,2173.7 3434.06,2058.88"
         style="fill:none;stroke:#040606;stroke-width:5;stroke-linecap:round;stroke-linejoin:miter;stroke-miterlimit:10;stroke-dasharray:none;stroke-opacity:1"
         transform="matrix(0.13333333,0,0,-0.13333333,0,590.36)" />
      <path
         id="path52"
         d="m 3666.42,2173.7 101.91,-114.82"
         style="fill:none;stroke:#040606;stroke-width:5;stroke-linecap:round;stroke-linejoin:miter;stroke-miterlimit:10;stroke-dasharray:none;stroke-opacity:1"
         transform="matrix(0.13333333,0,0,-0.13333333,0,590.36)" />
      <path
         id="path53"
         d="m 3831.81,2199.88 c 0,-40.61 -32.92,-73.54 -73.53,-73.54 -40.63,0 -73.55,32.93 -73.55,73.54 0,40.62 32.92,73.55 73.55,73.55 40.61,0 73.53,-32.93 73.53,-73.55"
         style="fill:#d4259a;fill-opacity:1;fill-rule:nonzero;stroke:none"
         transform="matrix(0.13333333,0,0,-0.13333333,0,590.36)" />
      <path
         id="path54"
         d="m 1.6063928,-3.5248275 -0.00454,1.5238364 -1.4769708,-0.00548 0.009655,0.4803718 1.4769708,0.00548 -0.00454,1.52383634 0.5743382,1.7769e-4 0.00454,-1.52383633 1.4767354,-0.00624 -0.00965,-0.4803717 -1.4767353,0.00624 0.00454,-1.5238363 z m 2.5301502,-0.080155 c 0.2458086,-0.016662 0.5019206,-0.1038569 0.7451389,-0.2493986 l -0.00454,3.85633862 0.5626219,4.1317e-4 0.0026,-4.53612439 -0.4571744,-0.00253 C 4.7431485,-4.33216 4.4643101,-4.2093446 4.1369579,-4.1676019 Z m 4.8135001,2.86869762 C 8.7663487,-0.5450554 8.5224239,-0.43466279 8.217798,-0.42854022 8.0652495,-0.43719532 7.9241819,-0.45780228 7.8063116,-0.4905966 7.3936479,-0.61123489 7.1892887,-0.86499211 7.1932341,-1.2518683 l -0.5626219,-4.131e-4 c -0.00347,0.41030889 0.1554321,0.73530634 0.4415705,0.9756988 0.2976192,0.22844058 0.6870857,0.36126623 1.1559765,0.36356327 0.4686554,-0.0094193 0.8524703,-0.15778691 1.1514446,-0.4451027 0.287258,-0.2870803 0.4439874,-0.65358497 0.435039,-1.09880757 0.003,-0.4337417 -0.1324703,-0.7592101 -0.4181376,-0.9761698 -0.2741865,-0.2289115 -0.6631821,-0.3383044 -1.1552702,-0.3284141 -0.2228467,-0.00724 -0.4684198,0.021136 -0.7137574,0.06123 l 0.1146934,-1.291628 1.9690589,-0.00441 0.00112,-0.5274727 -2.5082481,0.00353 -0.2020086,2.195909 1.2189749,-0.00106 c 0.7386031,0.0086 1.1076981,0.2942069 1.1190013,0.8565934 -0.00583,0.293145 -0.094615,0.54107296 -0.2900259,0.73253832 z m 0,0"
         style="fill:#ffffff;fill-opacity:1;fill-rule:nonzero;stroke:none"
         aria-label="+15"
         transform="matrix(1.3330641,0.0267928,-0.0267928,1.3330641,493.65867,299.98)" />
      <path
         id="path55"
         d="m 3979.14,2278.83 c -54.65,-5.69 -99.74,-48.19 -109.09,-102.35 -3.64,-21.12 -1.67,-41.32 4.36,-59.7 1.44,-4.4 1.53,-9.14 -0.1,-13.49 l -14.96,-39.91 c -0.87,-2.31 1.01,-4.74 3.47,-4.46 l 37.09,4.08 c 5.43,0.6 10.73,-1.22 14.99,-4.64 25.58,-20.56 59.38,-31.28 95.8,-26.07 54.35,7.78 97.93,51.89 104.99,106.35 10.44,80.56 -56.34,148.55 -136.55,140.19"
         style="fill:#d4259a;fill-opacity:1;fill-rule:nonzero;stroke:none"
         transform="matrix(0.13333333,0,0,-0.13333333,0,590.36)" />
      <path
         id="path56"
         d="m 3928.73,2178.24 h 60.78"
         style="fill:none;stroke:#ffffff;stroke-width:7.5;stroke-linecap:butt;stroke-linejoin:miter;stroke-miterlimit:10;stroke-dasharray:none;stroke-opacity:1"
         transform="matrix(0.13333333,0,0,-0.13333333,0,590.36)" />
      <path
         id="path57"
         d="m 3930,2143.44 h 96.91"
         style="fill:none;stroke:#ffffff;stroke-width:7.5;stroke-linecap:butt;stroke-linejoin:miter;stroke-miterlimit:10;stroke-dasharray:none;stroke-opacity:1"
         transform="matrix(0.13333333,0,0,-0.13333333,0,590.36)" />
      <path
         id="path58"
         d="m 3930,2111.23 h 96.91"
         style="fill:none;stroke:#ffffff;stroke-width:7.5;stroke-linecap:butt;stroke-linejoin:miter;stroke-miterlimit:10;stroke-dasharray:none;stroke-opacity:1"
         transform="matrix(0.13333333,0,0,-0.13333333,0,590.36)" />
      <path
         id="path59"
         d="m 4175.34,2199.88 c 0,-40.61 -32.92,-73.54 -73.54,-73.54 -40.62,0 -73.54,32.93 -73.54,73.54 0,40.62 32.92,73.55 73.54,73.55 40.62,0 73.54,-32.93 73.54,-73.55"
         style="fill:#f48c25;fill-opacity:1;fill-rule:nonzero;stroke:none"
         transform="matrix(0.13333333,0,0,-0.13333333,0,590.36)" />
      <path
         id="path60"
         d="m 1.6039792,-3.524779 -0.00454,1.5238364 -1.47697077,-0.00548 0.009655,0.4803717 1.47697087,0.00548 -0.00454,1.52383635 0.5743383,1.7768e-4 0.00454,-1.52383633 1.4767353,-0.00624 -0.00965,-0.4803717 -1.4767353,0.00624 0.00454,-1.5238364 z m 2.359234,-1.0026884 -6.486e-4,0.5509055 2.414517,-0.00164 L 4.2066584,0.00371181 4.9684588,1.2176184e-4 7.033199,-3.9913931 7.034319,-4.5188658 Z m 4.0998946,0.3131853 c -0.276248,0.2516956 -0.4336839,0.5830512 -0.4252065,1.004841 -0.00347,0.4103089 0.1322348,0.7474937 0.4071278,1.0115544 0.2748929,0.2640607 0.5942966,0.4100156 0.9809372,0.4022447 0.3751598,0.00418 0.6661855,-0.095437 0.9201782,-0.2880801 0.2188435,-0.1919363 0.3535535,-0.4876717 0.4043645,-0.8754898 0.02696,0.1752748 0.0305,0.3510206 0.03426,0.5384827 0.0076,0.960979 -0.21449,1.57494061 -0.6545316,1.84164943 -0.1387128,0.0965569 -0.3486657,0.14766111 -0.5949453,0.14088989 -0.246044,0.004945 -0.4585873,-0.0728308 -0.6261489,-0.24527982 C 8.341822,-0.8442023 8.2670495,-1.0654007 8.249917,-1.334642 l -0.597771,2.932e-4 c 0.00824,0.41007348 0.1556675,0.74702281 0.4422768,1.01084803 0.2866094,0.26382522 0.6763113,0.40836725 1.1686349,0.41019332 C 9.5325346,0.08127643 9.7774012,0.01774935 9.9981286,-0.08045591 10.647653,-0.42170174 10.972592,-1.1666629 10.972477,-2.3387723 10.97077,-3.0068416 10.795438,-3.5659313 10.458902,-3.9811276 10.290634,-4.1887257 10.10011,-4.337271 9.887096,-4.4384797 9.6621298,-4.5511694 9.4385766,-4.5935607 9.1922971,-4.6003319 c -0.4686554,0.00942 -0.8412248,0.1341186 -1.1291893,0.3860498 z m 2.0481282,1.0137359 c 0.0054,0.2694768 -0.07236,0.4820201 -0.2682419,0.6500527 -0.172449,0.1675616 -0.4051282,0.254286 -0.6631242,0.2477502 -0.2811932,0.00565 -0.5052174,-0.060173 -0.6844954,-0.232386 -0.1670907,-0.1490162 -0.2652959,-0.3697436 -0.2709475,-0.6509369 0.0063,-0.2697123 0.083841,-0.4939719 0.2682416,-0.6500527 0.1844008,-0.1560807 0.4053638,-0.2425696 0.6748406,-0.2479857 0.2697123,0.0063 0.5056884,0.083605 0.6849664,0.2558188 0.1790424,0.1604971 0.2652954,0.3697436 0.2587604,0.6277396 z m 0,0"
         style="fill:#ffffff;fill-opacity:1;fill-rule:nonzero;stroke:none"
         aria-label="+&#10;7&#10;9"
         transform="matrix(1.3330641,0.0267928,-0.0267928,1.3330641,539.46267,299.98)" />
      <path
         id="path61"
         d="m 3812.27,2748.63 -68.52,-164.4 h 48.79 l -13.48,-103.2 95.49,156 h -62.28 v 111.6"
         style="fill:#f48c25;fill-opacity:1;fill-rule:nonzero;stroke:none"
         transform="matrix(0.13333333,0,0,-0.13333333,0,590.36)" />
      <path
         id="path62"
         d="m 3805.93,2889.03 v -64.94"
         style="fill:none;stroke:#040606;stroke-width:10;stroke-linecap:butt;stroke-linejoin:miter;stroke-miterlimit:10;stroke-dasharray:none;stroke-opacity:1"
         transform="matrix(0.13333333,0,0,-0.13333333,0,590.36)" />
      <path
         id="path63"
         d="m 3629.74,2818.49 45.92,-45.92"
         style="fill:none;stroke:#040606;stroke-width:10;stroke-linecap:butt;stroke-linejoin:miter;stroke-miterlimit:10;stroke-dasharray:none;stroke-opacity:1"
         transform="matrix(0.13333333,0,0,-0.13333333,0,590.36)" />
      <path
         id="path64"
         d="m 3980.4,2814.32 -45.91,-45.92"
         style="fill:none;stroke:#040606;stroke-width:10;stroke-linecap:butt;stroke-linejoin:miter;stroke-miterlimit:10;stroke-dasharray:none;stroke-opacity:1"
         transform="matrix(0.13333333,0,0,-0.13333333,0,590.36)" />
      <path
         id="path65"
         d="m 2918.92,823.781 c -4.36,97.778 30.83,84.418 -22.44,174.571 -53.27,90.158 -15.41,110.718 -15.03,172.838 0.38,62.12 -13.99,138.05 24.41,146.39 38.4,8.34 42.36,-104.03 76.87,-125.89 34.51,-21.85 105.62,-77.28 86.51,-166.15 -15.37,-71.52 -4.61,-96.56 59.97,-158.251 64.58,-61.68 -90.45,-138.219 -90.45,-138.219 0,0 -115.49,-3.07 -119.84,94.711"
         style="fill:#5250ab;fill-opacity:1;fill-rule:nonzero;stroke:none"
         transform="matrix(0.13333333,0,0,-0.13333333,0,590.36)" />
      <path
         id="path66"
         d="m 3065.38,681.23 c -67.68,72.981 -86.75,135.571 -91.43,179.731 -4.85,45.789 6.05,69.16 3.09,124.059 -3.96,73.46 -31.56,93.81 -48.94,169.78 -8.04,35.12 -27.29,95.85 -22.24,162.78"
         style="fill:none;stroke:#342c76;stroke-width:10;stroke-linecap:butt;stroke-linejoin:miter;stroke-miterlimit:10;stroke-dasharray:none;stroke-opacity:1"
         transform="matrix(0.13333333,0,0,-0.13333333,0,590.36)" />
      <path
         id="path67"
         d="m 2949.18,710.031 c -29.92,49.301 -7.95,52.348 -60.99,83.871 -53.05,31.52 -39.3,52.86 -56.69,85.078 -17.38,32.2 -46.3,67.379 -28.81,82.559 17.48,15.18 51.33,-41.777 75.35,-43.32 24.02,-1.52 76.47,-10.039 91.74,-61.367 12.29,-41.321 24.94,-51.211 75.78,-64.821 50.83,-13.601 -7.63,-97.031 -7.63,-97.031 0,0 -58.82,-34.281 -88.75,15.031"
         style="fill:#5250ab;fill-opacity:1;fill-rule:nonzero;stroke:none"
         transform="matrix(0.13333333,0,0,-0.13333333,0,590.36)" />
      <path
         id="path68"
         d="m 3065.23,677.801 c -55.64,18.57 -83.21,45.508 -98.13,67.019 -15.46,22.289 -16.43,37.45 -33.5,65 -22.84,36.832 -42.86,39.539 -73.35,73.879 -14.09,15.883 -41.23,41.821 -57.56,77.84"
         style="fill:none;stroke:#342c76;stroke-width:10;stroke-linecap:butt;stroke-linejoin:miter;stroke-miterlimit:10;stroke-dasharray:none;stroke-opacity:1"
         transform="matrix(0.13333333,0,0,-0.13333333,0,590.36)" />
      <path
         id="path69"
         d="m 3011.65,839.34 c 33.03,73.699 54.02,50.812 48.15,137.019 -5.86,86.221 29.68,87.341 52.98,133.011 23.31,45.66 40.84,106.97 72.24,98.88 31.41,-8.08 -7.32,-92.4 10.02,-121.3 17.35,-28.91 49.24,-96.13 2.22,-154.571 -37.84,-47.039 -39.19,-69.488 -14.43,-138.899 24.75,-69.421 -117.91,-68.39 -117.91,-68.39 0,0 -86.3,40.539 -53.27,114.25"
         style="fill:#5250ab;fill-opacity:1;fill-rule:nonzero;stroke:none"
         transform="matrix(0.13333333,0,0,-0.13333333,0,590.36)" />
      <path
         id="path70"
         d="m 3066.81,679.949 c -22.86,78.891 -13.73,132.11 -0.81,166.403 13.4,35.558 30.1,48.75 48.26,90.328 24.31,55.629 11.5,80.85 26.84,143.31 7.09,28.88 15.4,80.78 43.92,128.26"
         style="fill:none;stroke:#342c76;stroke-width:10;stroke-linecap:butt;stroke-linejoin:miter;stroke-miterlimit:10;stroke-dasharray:none;stroke-opacity:1"
         transform="matrix(0.13333333,0,0,-0.13333333,0,590.36)" />
      <path
         id="path71"
         d="M 3133.24,446.16 H 2950.8 l -50.67,293.922 h 283.78 L 3133.24,446.16"
         style="fill:#040606;fill-opacity:1;fill-rule:nonzero;stroke:none"
         transform="matrix(0.13333333,0,0,-0.13333333,0,590.36)" />
      <path
         id="path72"
         d="m 4557.47,354.031 h -460.8 v 885.599 h 460.8 V 354.031"
         style="fill:#bfe0d7;fill-opacity:1;fill-rule:nonzero;stroke:none"
         transform="matrix(0.13333333,0,0,-0.13333333,0,590.36)" />
      <path
         id="path73"
         d="m 4096.07,456.629 h 363.6"
         style="fill:none;stroke:#93ada8;stroke-width:10;stroke-linecap:butt;stroke-linejoin:miter;stroke-miterlimit:10;stroke-dasharray:none;stroke-opacity:1"
         transform="matrix(0.13333333,0,0,-0.13333333,0,590.36)" />
      <path
         id="path74"
         d="m 4096.07,511.832 h 432.61"
         style="fill:none;stroke:#93ada8;stroke-width:10;stroke-linecap:butt;stroke-linejoin:miter;stroke-miterlimit:10;stroke-dasharray:none;stroke-opacity:1"
         transform="matrix(0.13333333,0,0,-0.13333333,0,590.36)" />
      <path
         id="path75"
         d="m 4211.87,567.02 h 247.8"
         style="fill:none;stroke:#93ada8;stroke-width:10;stroke-linecap:butt;stroke-linejoin:miter;stroke-miterlimit:10;stroke-dasharray:none;stroke-opacity:1"
         transform="matrix(0.13333333,0,0,-0.13333333,0,590.36)" />
      <path
         id="path76"
         d="m 4192.07,732.629 h 363.6"
         style="fill:none;stroke:#93ada8;stroke-width:10;stroke-linecap:butt;stroke-linejoin:miter;stroke-miterlimit:10;stroke-dasharray:none;stroke-opacity:1"
         transform="matrix(0.13333333,0,0,-0.13333333,0,590.36)" />
      <path
         id="path77"
         d="m 4096.07,787.82 h 363.6"
         style="fill:none;stroke:#93ada8;stroke-width:10;stroke-linecap:butt;stroke-linejoin:miter;stroke-miterlimit:10;stroke-dasharray:none;stroke-opacity:1"
         transform="matrix(0.13333333,0,0,-0.13333333,0,590.36)" />
      <path
         id="path78"
         d="m 4096.07,843.031 h 237.61"
         style="fill:none;stroke:#93ada8;stroke-width:10;stroke-linecap:butt;stroke-linejoin:miter;stroke-miterlimit:10;stroke-dasharray:none;stroke-opacity:1"
         transform="matrix(0.13333333,0,0,-0.13333333,0,590.36)" />
      <path
         id="path79"
         d="m 4146.47,898.219 h 363.6"
         style="fill:none;stroke:#93ada8;stroke-width:10;stroke-linecap:butt;stroke-linejoin:miter;stroke-miterlimit:10;stroke-dasharray:none;stroke-opacity:1"
         transform="matrix(0.13333333,0,0,-0.13333333,0,590.36)" />
      <path
         id="path80"
         d="m 4151.87,953.43 h 261.01"
         style="fill:none;stroke:#93ada8;stroke-width:10;stroke-linecap:butt;stroke-linejoin:miter;stroke-miterlimit:10;stroke-dasharray:none;stroke-opacity:1"
         transform="matrix(0.13333333,0,0,-0.13333333,0,590.36)" />
      <path
         id="path81"
         d="m 4193.83,1063.83 h 363.61"
         style="fill:none;stroke:#93ada8;stroke-width:10;stroke-linecap:butt;stroke-linejoin:miter;stroke-miterlimit:10;stroke-dasharray:none;stroke-opacity:1"
         transform="matrix(0.13333333,0,0,-0.13333333,0,590.36)" />
      <path
         id="path82"
         d="m 4096.07,1119.03 h 363.6"
         style="fill:none;stroke:#93ada8;stroke-width:10;stroke-linecap:butt;stroke-linejoin:miter;stroke-miterlimit:10;stroke-dasharray:none;stroke-opacity:1"
         transform="matrix(0.13333333,0,0,-0.13333333,0,590.36)" />
      <path
         id="path83"
         d="m 4096.07,1174.23 h 363.6"
         style="fill:none;stroke:#93ada8;stroke-width:10;stroke-linecap:butt;stroke-linejoin:miter;stroke-miterlimit:10;stroke-dasharray:none;stroke-opacity:1"
         transform="matrix(0.13333333,0,0,-0.13333333,0,590.36)" />
      <path
         id="path84"
         d="m 4383.77,268.641 h -499.2 v 408 h 499.2 v -408"
         style="fill:#d4259a;fill-opacity:1;fill-rule:nonzero;stroke:none"
         transform="matrix(0.13333333,0,0,-0.13333333,0,590.36)" />
      <path
         id="path85"
         d="m 4192.97,461.852 h -110.4 c -15.24,0 -27.6,12.347 -27.6,27.597 v 0 c 0,15.242 12.36,27.59 27.6,27.59 h 110.4 c 15.25,0 27.6,-12.348 27.6,-27.59 v 0 c 0,-15.25 -12.35,-27.597 -27.6,-27.597"
         style="fill:#040606;fill-opacity:1;fill-rule:nonzero;stroke:none"
         transform="matrix(0.13333333,0,0,-0.13333333,0,590.36)" />
      <path
         id="path86"
         d="m 4419.77,582.441 h -576.89 v 100.801 h 576.89 V 582.441"
         style="fill:#d4259a;fill-opacity:1;fill-rule:nonzero;stroke:none"
         transform="matrix(0.13333333,0,0,-0.13333333,0,590.36)" />
      <path
         id="path87"
         d="m 3884.57,583.039 h 499.2"
         style="fill:none;stroke:#040606;stroke-width:10;stroke-linecap:round;stroke-linejoin:miter;stroke-miterlimit:10;stroke-dasharray:none;stroke-opacity:1"
         transform="matrix(0.13333333,0,0,-0.13333333,0,590.36)" />
      <path
         id="path88"
         d="m 4226.87,347.84 h -174.6 v 34.199 h 174.6 V 347.84"
         style="fill:#bfe0d7;fill-opacity:1;fill-rule:nonzero;stroke:none"
         transform="matrix(0.13333333,0,0,-0.13333333,0,590.36)" />
      <path
         id="path89"
         d="M 3134.79,94.9219 C 3134.79,42.5 2433.04,0 1567.39,0 701.746,0 0,42.5 0,94.9219 0,147.352 701.746,189.84 1567.39,189.84 c 865.65,0 1567.4,-42.488 1567.4,-94.9181"
         style="fill:#aac6bd;fill-opacity:1;fill-rule:nonzero;stroke:none"
         transform="matrix(0.13333333,0,0,-0.13333333,0,590.36)" />
      <path
         id="path90"
         d="m 1512.13,378.031 c 0,-204.992 -305.97,-371.17162 -683.411,-371.17162 -377.442,0 -683.41,166.17962 -683.41,371.17162 0,204.981 305.968,371.16 683.41,371.16 377.441,0 683.411,-166.179 683.411,-371.16"
         style="fill:#362d7d;fill-opacity:1;fill-rule:nonzero;stroke:none"
         transform="matrix(0.13333333,0,0,-0.13333333,0,590.36)" />
      <path
         id="path91"
         d="m 1405.08,504.051 c 0,-154.391 -234.7,-279.551 -524.236,-279.551 -289.531,0 -524.242,125.16 -524.242,279.551 0,154.379 234.711,279.531 524.242,279.531 289.536,0 524.236,-125.152 524.236,-279.531"
         style="fill:#423698;fill-opacity:1;fill-rule:nonzero;stroke:none"
         transform="matrix(0.13333333,0,0,-0.13333333,0,590.36)" />
      <path
         id="path92"
         d="m 1246.7,529.801 c 0,-122.11 -169.16,-221.102 -377.833,-221.102 -208.676,0 -377.844,98.992 -377.844,221.102 0,122.109 169.168,221.09 377.844,221.09 208.673,0 377.833,-98.981 377.833,-221.09"
         style="fill:#362d7d;fill-opacity:1;fill-rule:nonzero;stroke:none"
         transform="matrix(0.13333333,0,0,-0.13333333,0,590.36)" />
      <path
         id="path93"
         d="m 911.219,2418.36 c 0,0 -273.906,-266.82 -345.528,-805.77 0,0 317.911,-172.12 591.739,-125.74 0,0 405.01,1117.22 -246.211,931.51"
         style="fill:#040606;fill-opacity:1;fill-rule:nonzero;stroke:none"
         transform="matrix(0.13333333,0,0,-0.13333333,0,590.36)" />
      <path
         id="path94"
         d="M 976.676,312.582 C 738.914,294.801 534.789,431.68 520.758,618.32 506.719,804.969 688.086,970.699 925.844,988.48 1163.61,1006.27 1367.73,869.391 1381.77,682.742 1395.8,496.102 1214.44,330.371 976.676,312.582"
         style="fill:#f48c25;fill-opacity:1;fill-rule:nonzero;stroke:none"
         transform="matrix(0.13333333,0,0,-0.13333333,0,590.36)" />
      <path
         id="path95"
         d="m 1210.17,2182.37 c 33.43,-2.85 57.69,-38.47 54.19,-79.57 -3.5,-41.09 -33.43,-72.09 -66.86,-69.25"
         style="fill:#f89d6e;fill-opacity:1;fill-rule:nonzero;stroke:none"
         transform="matrix(0.13333333,0,0,-0.13333333,0,590.36)" />
      <path
         id="path96"
         d="m 865.547,2074.6 c -31.305,2.84 -54.024,38.47 -50.746,79.56 3.273,41.1 31.308,72.1 62.605,69.26"
         style="fill:#f89d6e;fill-opacity:1;fill-rule:nonzero;stroke:none"
         transform="matrix(0.13333333,0,0,-0.13333333,0,590.36)" />
      <path
         id="path97"
         d="m 1387.14,1297.16 c 2.2,-298.762 -181.12,-542.32 -409.464,-544.012 -228.34,-1.679 -415.235,239.161 -417.438,537.922 -2.203,298.77 181.125,542.33 409.469,544.01 228.343,1.68 415.233,-239.15 417.433,-537.92"
         style="fill:#d4259a;fill-opacity:1;fill-rule:nonzero;stroke:none"
         transform="matrix(0.13333333,0,0,-0.13333333,0,590.36)" />
      <path
         id="path98"
         d="m 1495.42,818.379 -963.877,-29.32 23.109,475.421 813.538,-16.77 127.23,-429.331"
         style="fill:#d4259a;fill-opacity:1;fill-rule:nonzero;stroke:none"
         transform="matrix(0.13333333,0,0,-0.13333333,0,590.36)" />
      <path
         id="path99"
         d="m 1084.97,1778.17 c 2.97,-48.09 -45.38,-83.56 -89.904,-65.14 -34.89,14.43 -66.234,47.83 -66.777,121.07 l -17.855,287.94 152.626,9.47 21.91,-353.34"
         style="fill:#f89d6e;fill-opacity:1;fill-rule:nonzero;stroke:none"
         transform="matrix(0.13333333,0,0,-0.13333333,0,590.36)" />
      <path
         id="path100"
         d="m 1064.14,2113.12 -152.617,-9.47 10.29,-165.92 c 44.261,-32.34 93.677,-48.26 143.737,-41.7 4.06,0.53 7.93,1.68 11.9,2.49 l -13.31,214.6"
         style="fill:#040606;fill-opacity:1;fill-rule:nonzero;stroke:none"
         transform="matrix(0.13333333,0,0,-0.13333333,0,590.36)" />
      <path
         id="path101"
         d="m 1246.49,2148.28 c -27.76,-158.93 -133.43,-259.89 -236.04,-225.48 -102.602,34.41 -163.278,191.15 -135.524,350.09 27.758,158.94 138.174,231.73 240.784,197.32 102.6,-34.41 158.53,-162.98 130.78,-321.93"
         style="fill:#f89d6e;fill-opacity:1;fill-rule:nonzero;stroke:none"
         transform="matrix(0.13333333,0,0,-0.13333333,0,590.36)" />
      <path
         id="path102"
         d="m 1260.19,2143.93 c 5.16,136.44 24.18,309.98 -145.93,333.86 -197.268,27.7 -323.549,-146.92 -259.166,-288.88 87.644,-54.58 206.326,-42.12 279.786,71.23 27.21,-96.26 94.95,-115.85 125.31,-116.21"
         style="fill:#040606;fill-opacity:1;fill-rule:nonzero;stroke:none"
         transform="matrix(0.13333333,0,0,-0.13333333,0,590.36)" />
      <path
         id="path103"
         d="m 700.609,865.441 c -26.527,-5.601 -54.789,-1.351 -79.082,13.118 -38.836,23.101 -59.586,67.632 -52.312,112.242 l -59.293,464.769 212.941,111.42 22.289,-465.51 449.728,245.51 52.98,-84.63 -502.708,-376.301 c -13.394,-10.368 -28.66,-17.258 -44.543,-20.618"
         style="fill:#f89d6e;fill-opacity:1;fill-rule:nonzero;stroke:none"
         transform="matrix(0.13333333,0,0,-0.13333333,0,590.36)" />
      <path
         id="path104"
         d="m 1420.58,1682.23 2.51,18.27 c 0.71,5.2 -0.67,10.47 -3.84,14.66 v 0 c -7.41,9.76 -19.47,14.85 -31.63,13.34 l -143.63,-17.9 c -15.45,-1.93 -27.68,-14 -29.8,-29.42 l -61.08,-444.13 c -1.24,-9.02 1.16,-18.18 6.66,-25.45 v 0 c 5.16,-6.78 13.54,-10.32 22,-9.26 l 5.11,0.63 153.78,43.58 79.92,435.68"
         style="fill:#040606;fill-opacity:1;fill-rule:nonzero;stroke:none"
         transform="matrix(0.13333333,0,0,-0.13333333,0,590.36)" />
      <path
         id="path105"
         d="m 1341.99,1222.29 -155.11,-19.32 c -9.48,-1.18 -17.51,6.94 -16.2,16.41 l 61.89,450.06 c 1.26,9.19 8.55,16.37 17.75,17.52 l 147.45,18.36 c 13.34,1.67 24.64,-9.77 22.81,-23.09 l -60.85,-442.41 c -1.26,-9.19 -8.54,-16.38 -17.74,-17.53"
         style="fill:#28292a;fill-opacity:1;fill-rule:nonzero;stroke:none"
         transform="matrix(0.13333333,0,0,-0.13333333,0,590.36)" />
      <path
         id="path106"
         d="m 1112.53,1300.75 c 0,0 0.05,62.38 36.84,86.17 29.49,19.06 11.9,68.35 28.82,64.14 11.08,-2.75 15.7,-90.27 15.7,-90.27 0,0 107.65,23.94 124.13,52.92 16.48,28.98 32.69,10.5 18.7,-27.57 -13.98,-38.06 -125.78,-87.67 -125.78,-87.67 l -98.41,2.28"
         style="fill:#f89d6e;fill-opacity:1;fill-rule:nonzero;stroke:none"
         transform="matrix(0.13333333,0,0,-0.13333333,0,590.36)" />
      <path
         id="path107"
         d="m 1123.16,1241.8 65.91,-17.73 c 13.21,-3.55 27.11,-2.99 39.98,1.67 31.99,11.61 91.38,36.04 100.14,60.21 12.08,33.33 4.34,40.64 4.34,40.64 0,0 16.49,50.89 -4.8,46.91 -11.54,-2.17 -167.45,-54.46 -167.45,-54.46 l -38.12,-77.24"
         style="fill:#f89d6e;fill-opacity:1;fill-rule:nonzero;stroke:none"
         transform="matrix(0.13333333,0,0,-0.13333333,0,590.36)" />
      <path
         id="path108"
         d="m 1339.44,1593.62 c -4.38,-26.69 -17.47,-46.77 -29.24,-44.84 -11.76,1.93 -17.75,25.13 -13.38,51.83 4.38,26.69 17.47,46.77 29.23,44.83 11.77,-1.92 17.76,-25.13 13.39,-51.82"
         style="fill:#6f7375;fill-opacity:1;fill-rule:nonzero;stroke:none"
         transform="matrix(0.13333333,0,0,-0.13333333,0,590.36)" />
      <path
         id="path109"
         d="m 3047.48,284.27 -286.4,-5.418 -93.01,224.418 293.5,-21.731 85.91,-197.269"
         style="fill:#f89d6e;fill-opacity:1;fill-rule:nonzero;stroke:none"
         transform="matrix(0.13333333,0,0,-0.13333333,0,590.36)" />
      <path
         id="path110"
         d="M 3046.25,291.902 3268.32,136 c 21.22,-14.891 10.49,-48.168 -15.44,-47.9492 l -498.35,4.2187 0.12,202.0895 291.6,-2.457"
         style="fill:#040606;fill-opacity:1;fill-rule:nonzero;stroke:none"
         transform="matrix(0.13333333,0,0,-0.13333333,0,590.36)" />
      <path
         id="path111"
         d="M 2657.55,316.551 2004.23,1248.79 1276.74,436.09 992.156,689.5 1865.91,1665.6 c 36.8,41.1 89.7,64.27 144.89,63.52 55.24,-0.75 107.44,-25.35 143.1,-67.44 L 3212.21,329.75 2657.55,316.551"
         style="fill:#f48c25;fill-opacity:1;fill-rule:nonzero;stroke:none"
         transform="matrix(0.13333333,0,0,-0.13333333,0,590.36)" />
      <path
         id="path112"
         d="m 2285.62,242.789 -286.41,-5.43 -93,224.422 293.49,-21.73 85.92,-197.262"
         style="fill:#f89d6e;fill-opacity:1;fill-rule:nonzero;stroke:none"
         transform="matrix(0.13333333,0,0,-0.13333333,0,590.36)" />
      <path
         id="path113"
         d="M 2284.38,250.402 2506.46,94.5 c 21.21,-14.8906 10.49,-48.1602 -15.44,-47.9414 l -498.36,4.2109 0.13,202.0895 291.59,-2.457"
         style="fill:#040606;fill-opacity:1;fill-rule:nonzero;stroke:none"
         transform="matrix(0.13333333,0,0,-0.13333333,0,590.36)" />
      <path
         id="path114"
         d="M 1918.02,263.719 1531.66,1188.83 804.168,376.129 609.898,644.621 1393.33,1605.64 c 36.82,41.1 89.7,64.27 144.89,63.52 55.25,-0.75 107.45,-25.35 143.11,-67.44 L 2525.49,283.531 1918.02,263.719"
         style="fill:#f48c25;fill-opacity:1;fill-rule:nonzero;stroke:none"
         transform="matrix(0.13333333,0,0,-0.13333333,0,590.36)" />
      <path
         id="path115"
         d="m 1125.65,640.09 422.76,452.71 115.55,-217.081"
         style="fill:none;stroke:#040606;stroke-width:7.5;stroke-linecap:round;stroke-linejoin:miter;stroke-miterlimit:10;stroke-dasharray:none;stroke-opacity:1"
         transform="matrix(0.13333333,0,0,-0.13333333,0,590.36)" />
      <path
         id="path116"
         d="m 1740.56,1521.18 207.17,-335.09 33.43,37.96 z"
         style="fill:#040606;fill-opacity:1;fill-rule:nonzero;stroke:none"
         transform="matrix(0.13333333,0,0,-0.13333333,0,590.36)" />
      <path
         id="path117"
         d="m 1660.33,2105.7 h -294.1 c -11.17,0 -20.23,-9.07 -20.23,-20.24 v -279.55 c 0,-11.17 9.06,-20.22 20.23,-20.22 h 79.78 c 5.97,0 11.65,-2.65 15.49,-7.23 l 37.94,-45.2 c 8.34,-9.94 23.75,-9.57 31.6,0.78 l 33.15,43.65 c 3.83,5.04 9.79,8 16.11,8 h 80.03 c 11.17,0 20.23,9.05 20.23,20.22 v 279.55 c 0,11.17 -9.06,20.24 -20.23,20.24"
         style="fill:#d4259a;fill-opacity:1;fill-rule:nonzero;stroke:none"
         transform="matrix(0.13333333,0,0,-0.13333333,0,590.36)" />
      <path
         id="path118"
         d="m 1584.84,1986.29 -58,-0.69 32.18,36.12 c 5.98,6.71 5.39,17 -1.32,22.97 -6.7,5.99 -16.99,5.39 -22.98,-1.32 l -59.07,-66.31 c -2.01,-1.84 -3.81,-3.89 -5.27,-6.21 -0.91,-1.29 -1.67,-2.64 -2.16,-4.09 -1.7,-3.88 -2.68,-8.14 -2.63,-12.67 l 0.8,-66.39 c 0.21,-16.99 14.14,-30.6 31.13,-30.39 l 64.45,0.77 c 14.56,0.17 26.63,10.44 29.66,24.07 1.35,6.08 2.55,12.2 4.63,18.08 l 19.71,55.67 c -0.2,16.99 -14.14,30.6 -31.13,30.39"
         style="fill:#ffffff;fill-opacity:1;fill-rule:nonzero;stroke:none"
         transform="matrix(0.13333333,0,0,-0.13333333,0,590.36)" />
      <path
         id="path119"
         d="m 1436.27,1875 c -2.53,-0.03 -4.6,2 -4.64,4.53 -0.02,2.52 2,4.6 4.53,4.63 2.53,0.03 4.6,-1.99 4.63,-4.52 0.03,-2.53 -1.99,-4.6 -4.52,-4.64 z m 10.49,92.54 -23.2,-0.27 c -3.3,-0.04 -5.94,-2.76 -5.9,-6.06 l 1.13,-94.15 c 0.04,-3.3 2.74,-5.94 6.05,-5.91 l 23.19,0.29 c 3.3,0.04 5.95,2.74 5.91,6.05 l -1.13,94.14 c -0.04,3.3 -2.75,5.95 -6.05,5.91"
         style="fill:#ffffff;fill-opacity:1;fill-rule:nonzero;stroke:none"
         transform="matrix(0.13333333,0,0,-0.13333333,0,590.36)" />
      <path
         id="path120"
         d="m 849.203,1801.46 c 0,0 -402.012,-65.27 -380.551,-524.17 l 366.465,69.33 14.086,454.84"
         style="fill:#d4259a;fill-opacity:1;fill-rule:nonzero;stroke:none"
         transform="matrix(0.13333333,0,0,-0.13333333,0,590.36)" />
      <path
         id="path121"
         d="m 726.582,1539.76 9.906,-211.3"
         style="fill:none;stroke:#040606;stroke-width:7.5;stroke-linecap:butt;stroke-linejoin:miter;stroke-miterlimit:10;stroke-dasharray:none;stroke-opacity:1"
         transform="matrix(0.13333333,0,0,-0.13333333,0,590.36)" />
      <path
         id="path122"
         d="m 2148.96,3340.92 c 0,-185.7 -150.54,-336.24 -336.24,-336.24 -185.69,0 -336.23,150.54 -336.23,336.24 0,185.71 150.54,336.24 336.23,336.24 185.7,0 336.24,-150.53 336.24,-336.24"
         style="fill:#f48c25;fill-opacity:1;fill-rule:nonzero;stroke:none"
         transform="matrix(0.13333333,0,0,-0.13333333,0,590.36)" />
      <path
         id="path123"
         d="m 1817.32,3648.99 v -80.85"
         style="fill:none;stroke:#040606;stroke-width:5;stroke-linecap:round;stroke-linejoin:miter;stroke-miterlimit:10;stroke-dasharray:none;stroke-opacity:1"
         transform="matrix(0.13333333,0,0,-0.13333333,0,590.36)" />
      <path
         id="path124"
         d="m 1597.97,3561.18 57.17,-57.17"
         style="fill:none;stroke:#040606;stroke-width:5;stroke-linecap:round;stroke-linejoin:miter;stroke-miterlimit:10;stroke-dasharray:none;stroke-opacity:1"
         transform="matrix(0.13333333,0,0,-0.13333333,0,590.36)" />
      <path
         id="path125"
         d="m 1504.97,3343.99 h 80.84"
         style="fill:none;stroke:#040606;stroke-width:5;stroke-linecap:round;stroke-linejoin:miter;stroke-miterlimit:10;stroke-dasharray:none;stroke-opacity:1"
         transform="matrix(0.13333333,0,0,-0.13333333,0,590.36)" />
      <path
         id="path126"
         d="m 1592.78,3124.64 57.16,57.17"
         style="fill:none;stroke:#040606;stroke-width:5;stroke-linecap:round;stroke-linejoin:miter;stroke-miterlimit:10;stroke-dasharray:none;stroke-opacity:1"
         transform="matrix(0.13333333,0,0,-0.13333333,0,590.36)" />
      <path
         id="path127"
         d="m 1809.97,3031.63 v 80.85"
         style="fill:none;stroke:#040606;stroke-width:5;stroke-linecap:round;stroke-linejoin:miter;stroke-miterlimit:10;stroke-dasharray:none;stroke-opacity:1"
         transform="matrix(0.13333333,0,0,-0.13333333,0,590.36)" />
      <path
         id="path128"
         d="m 2029.31,3119.45 -57.16,57.16"
         style="fill:none;stroke:#040606;stroke-width:5;stroke-linecap:round;stroke-linejoin:miter;stroke-miterlimit:10;stroke-dasharray:none;stroke-opacity:1"
         transform="matrix(0.13333333,0,0,-0.13333333,0,590.36)" />
      <path
         id="path129"
         d="m 2122.32,3336.64 h -80.85"
         style="fill:none;stroke:#040606;stroke-width:5;stroke-linecap:round;stroke-linejoin:miter;stroke-miterlimit:10;stroke-dasharray:none;stroke-opacity:1"
         transform="matrix(0.13333333,0,0,-0.13333333,0,590.36)" />
      <path
         id="path130"
         d="m 2034.51,3555.98 -57.17,-57.16"
         style="fill:none;stroke:#040606;stroke-width:5;stroke-linecap:round;stroke-linejoin:miter;stroke-miterlimit:10;stroke-dasharray:none;stroke-opacity:1"
         transform="matrix(0.13333333,0,0,-0.13333333,0,590.36)" />
      <path
         id="path131"
         d="m 1830.44,3338.25 c 0,-11.08 -8.98,-20.05 -20.06,-20.05 -11.07,0 -20.05,8.97 -20.05,20.05 0,11.07 8.98,20.05 20.05,20.05 11.08,0 20.06,-8.98 20.06,-20.05"
         style="fill:#ffffff;fill-opacity:1;fill-rule:nonzero;stroke:none"
         transform="matrix(0.13333333,0,0,-0.13333333,0,590.36)" />
      <path
         id="path132"
         d="M 1888.93,3495.67 1810.72,3340.92 1969.14,3245"
         style="fill:none;stroke:#ffffff;stroke-width:10;stroke-linecap:butt;stroke-linejoin:miter;stroke-miterlimit:10;stroke-dasharray:none;stroke-opacity:1"
         transform="matrix(0.13333333,0,0,-0.13333333,0,590.36)" />
      <path
         id="path133"
         d="m 1951.57,3746.65 c 61.68,-20.17 119.67,-54.76 168.7,-103.79"
         style="fill:none;stroke:#ffffff;stroke-width:7.5;stroke-linecap:round;stroke-linejoin:miter;stroke-miterlimit:10;stroke-dasharray:none;stroke-opacity:1"
         transform="matrix(0.13333333,0,0,-0.13333333,0,590.36)" />
      <path
         id="path134"
         d="m 1406.32,3232.09 c -37.44,141.96 -0.52,299.47 110.78,410.77 85.38,85.38 197.96,127 309.85,124.84"
         style="fill:none;stroke:#ffffff;stroke-width:7.5;stroke-linecap:round;stroke-linejoin:miter;stroke-miterlimit:10;stroke-dasharray:none;stroke-opacity:1"
         transform="matrix(0.13333333,0,0,-0.13333333,0,590.36)" />
      <path
         id="path135"
         d="m 1966.34,2941.03 c -151.27,-55.7 -327.77,-22.81 -449.24,98.66"
         style="fill:none;stroke:#ffffff;stroke-width:7.5;stroke-linecap:round;stroke-linejoin:miter;stroke-miterlimit:10;stroke-dasharray:none;stroke-opacity:1"
         transform="matrix(0.13333333,0,0,-0.13333333,0,590.36)" />
      <path
         id="path136"
         d="m 2120.27,3642.86 c 58.88,-58.88 96.95,-130.7 114.2,-206.31"
         style="fill:none;stroke:#ffffff;stroke-width:7.5;stroke-linecap:round;stroke-linejoin:miter;stroke-miterlimit:10;stroke-dasharray:none;stroke-opacity:1"
         transform="matrix(0.13333333,0,0,-0.13333333,0,590.36)" />
      <path
         id="path137"
         d="m 2281.96,3176.34 c -24.57,-75.15 -66.72,-145.82 -126.46,-205.56"
         style="fill:none;stroke:#ffffff;stroke-width:7.5;stroke-linecap:round;stroke-linejoin:miter;stroke-miterlimit:10;stroke-dasharray:none;stroke-opacity:1"
         transform="matrix(0.13333333,0,0,-0.13333333,0,590.36)" />
      <path
         id="path138"
         d="m 1654.99,3840.71 c 172.98,45.62 364.9,0.63 500.51,-134.98 104.04,-104.04 154.74,-241.21 152.12,-377.54"
         style="fill:none;stroke:#ffffff;stroke-width:7.5;stroke-linecap:round;stroke-linejoin:miter;stroke-miterlimit:10;stroke-dasharray:none;stroke-opacity:1"
         transform="matrix(0.13333333,0,0,-0.13333333,0,590.36)" />
      <path
         id="path139"
         d="m 1300.35,3158.34 c -67.86,184.32 -27.79,399.38 120.21,547.39"
         style="fill:none;stroke:#ffffff;stroke-width:7.5;stroke-linecap:round;stroke-linejoin:miter;stroke-miterlimit:10;stroke-dasharray:none;stroke-opacity:1"
         transform="matrix(0.13333333,0,0,-0.13333333,0,590.36)" />
      <path
         id="path140"
         d="m 2155.5,2970.78 c -71.75,-71.74 -159.25,-118.13 -251.37,-139.14"
         style="fill:none;stroke:#ffffff;stroke-width:7.5;stroke-linecap:round;stroke-linejoin:miter;stroke-miterlimit:10;stroke-dasharray:none;stroke-opacity:1"
         transform="matrix(0.13333333,0,0,-0.13333333,0,590.36)" />
    </g>
    <text
       xml:space="preserve"
       style="font-size:16.0521px;font-family:Cantarell;-inkscape-font-specification:'Cantarell, Normal';text-align:center;text-anchor:middle;opacity:0.99;fill:#000000;stroke-width:1.51181"
       x="468.43399"
       y="651.97803"
       id="text180"
       transform="scale(1.1168522,0.89537363)"><tspan
         sodipodi:role="line"
         id="tspan180"
         x="468.43399"
         y="651.97803"
         style="fill:#000000;stroke-width:1.51181">Designed by Freepik</tspan></text>
  </g>
</svg>
